<svg width="66" height="45" viewBox="0 0 66 45" fill="none" xmlns="http://www.w3.org/2000/svg">
<rect width="24.2189" height="44.6846" rx="1" fill="#DC783F"/>
<rect x="27.0508" width="24.2189" height="24.2189" rx="1" fill="#FCFCFC"/>
<path d="M4.75032 29.9086H7.81274C9.48098 29.9086 10.3151 30.834 10.3151 32.685C10.3151 33.6621 10.0768 34.3572 9.60014 34.7703C9.1235 35.1754 8.46018 35.378 7.61017 35.378H6.70455V39.5605H4.75032L4.75032 29.9086ZM7.40759 33.9958C7.82863 33.9958 8.11064 33.8965 8.25363 33.6979C8.39662 33.4993 8.46812 33.1497 8.46812 32.6492C8.46812 32.3235 8.44429 32.0693 8.39662 31.8866C8.34896 31.696 8.24569 31.549 8.08681 31.4457C7.93587 31.3425 7.70549 31.2908 7.39568 31.2908H6.70455L6.70455 33.9958H7.40759ZM13.8039 39.6797C13.0572 39.6797 12.4812 39.4811 12.0761 39.0839C11.6789 38.6867 11.4803 38.1108 11.4803 37.3561V34.8775C11.4803 34.1229 11.6789 33.5469 12.0761 33.1497C12.4812 32.7525 13.0572 32.5539 13.8039 32.5539C14.5506 32.5539 15.1226 32.7525 15.5198 33.1497C15.925 33.5469 16.1275 34.1229 16.1275 34.8775V37.3561C16.1275 38.1108 15.925 38.6867 15.5198 39.0839C15.1226 39.4811 14.5506 39.6797 13.8039 39.6797ZM13.8158 38.4643C14.0224 38.4643 14.1614 38.3848 14.2329 38.226C14.3123 38.0591 14.352 37.8129 14.352 37.4872V34.7584C14.352 34.4327 14.3123 34.1864 14.2329 34.0196C14.1614 33.8528 14.0224 33.7694 13.8158 33.7694C13.6013 33.7694 13.4544 33.8567 13.3749 34.0315C13.2955 34.1983 13.2558 34.4406 13.2558 34.7584V37.4872C13.2558 37.8049 13.2955 38.0472 13.3749 38.214C13.4544 38.3809 13.6013 38.4643 13.8158 38.4643ZM19.806 39.6797C19.0514 39.6797 18.4794 39.4692 18.0901 39.0482C17.7009 38.6271 17.5062 38.0353 17.5062 37.2727V34.949C17.5062 34.1785 17.7009 33.5866 18.0901 33.1736C18.4794 32.7605 19.0514 32.5539 19.806 32.5539C20.5448 32.5539 21.1009 32.7287 21.4743 33.0782C21.8556 33.4278 22.0463 33.9521 22.0463 34.6511V35.3065H20.3184V34.6035C20.3184 34.3016 20.2787 34.0951 20.1993 33.9838C20.1198 33.8647 19.9927 33.8051 19.818 33.8051C19.6273 33.8051 19.4923 33.8766 19.4128 34.0196C19.3413 34.1626 19.3056 34.4128 19.3056 34.7703V37.4872C19.3056 37.8446 19.3453 38.0909 19.4247 38.226C19.5121 38.361 19.6432 38.4285 19.818 38.4285C20.0007 38.4285 20.1278 38.365 20.1993 38.2379C20.2787 38.1108 20.3184 37.9082 20.3184 37.6301L20.3184 36.796H22.0463V37.5587C22.0463 38.2498 21.8556 38.7781 21.4743 39.1435C21.093 39.501 20.5369 39.6797 19.806 39.6797Z" fill="#404040"/>
<path d="M27.004 29.9086H32.6879V39.5605L30.7456 39.5605L30.7456 31.3146H28.9344L28.9344 39.5605H27.004L27.004 29.9086ZM36.6161 39.6797C35.8694 39.6797 35.2934 39.4811 34.8883 39.0839C34.4911 38.6867 34.2925 38.1108 34.2925 37.3561V34.8775C34.2925 34.1229 34.4911 33.5469 34.8883 33.1497C35.2934 32.7525 35.8694 32.5539 36.6161 32.5539C37.3629 32.5539 37.9348 32.7525 38.332 33.1497C38.7372 33.5469 38.9398 34.1229 38.9398 34.8775V37.3561C38.9398 38.1108 38.7372 38.6867 38.332 39.0839C37.9348 39.4811 37.3629 39.6797 36.6161 39.6797ZM36.628 38.4643C36.8346 38.4643 36.9736 38.3848 37.0451 38.226C37.1245 38.0591 37.1643 37.8129 37.1643 37.4872V34.7584C37.1643 34.4327 37.1245 34.1864 37.0451 34.0196C36.9736 33.8528 36.8346 33.7694 36.628 33.7694C36.4136 33.7694 36.2666 33.8567 36.1872 34.0315C36.1077 34.1983 36.068 34.4406 36.068 34.7584V37.4872C36.068 37.8049 36.1077 38.0472 36.1872 38.214C36.2666 38.3809 36.4136 38.4643 36.628 38.4643ZM40.0004 38.4524C40.5167 38.1743 40.906 37.7414 41.1681 37.1535C41.4382 36.5577 41.6011 35.7156 41.6567 34.6273L41.8235 32.6731H45.4698V38.4285H46.435V41.4075H45.1362L45.0051 39.5605H41.4184L41.3111 41.4075H40.0004V38.4524ZM43.8135 38.4285V33.7813H43.1581L43.0509 35.0444C43.0112 36.0135 42.896 36.7523 42.7053 37.2608C42.5147 37.7692 42.2525 38.1584 41.9189 38.4285H43.8135ZM48.437 33.9004H47.1024V32.6731H50.2244V35.4614H50.3317C50.991 35.4614 51.5273 35.525 51.9403 35.6521C52.3534 35.7712 52.6632 35.9857 52.8698 36.2956C53.0763 36.5974 53.1796 37.0145 53.1796 37.5467C53.1796 38.0393 53.0803 38.4325 52.8817 38.7264C52.691 39.0124 52.3852 39.2229 51.9642 39.358C51.5511 39.493 50.999 39.5605 50.3078 39.5605H48.437V33.9004ZM50.284 38.5239C50.7607 38.5239 51.0903 38.4563 51.273 38.3213C51.4558 38.1783 51.5471 37.9201 51.5471 37.5467C51.5471 37.1575 51.4558 36.8914 51.273 36.7484C51.0983 36.6054 50.7765 36.5299 50.3078 36.522H50.2244V38.5239H50.284ZM56.2899 39.6797C55.5352 39.6797 54.9593 39.4732 54.5621 39.0601C54.1728 38.647 53.9782 38.0512 53.9782 37.2727V34.961C53.9782 34.1824 54.1768 33.5866 54.574 33.1736C54.9712 32.7605 55.5431 32.5539 56.2899 32.5539C57.0604 32.5539 57.6245 32.7605 57.982 33.1736C58.3394 33.5866 58.5182 34.1983 58.5182 35.0086V36.2121H55.7656V37.5467C55.7656 37.8407 55.8093 38.0552 55.8966 38.1902C55.992 38.3253 56.127 38.3928 56.3018 38.3928C56.6593 38.3928 56.838 38.1346 56.838 37.6182V36.9509H58.5063V37.5467C58.5063 38.2379 58.3156 38.7661 57.9343 39.1316C57.553 39.497 57.0048 39.6797 56.2899 39.6797ZM56.838 35.3542V34.6869C56.838 34.385 56.7943 34.1705 56.7069 34.0434C56.6196 33.9084 56.4805 33.8408 56.2899 33.8408C56.1072 33.8408 55.9721 33.9123 55.8847 34.0553C55.8053 34.1983 55.7656 34.4525 55.7656 34.818V35.3542H56.838ZM54.2761 29.9086H55.7656V31.5768H54.2761V29.9086ZM56.7546 29.9086H58.256V31.5768H56.7546V29.9086ZM60.0194 32.6731H61.354L62.7839 36.1645L64.2258 32.6731H65.5485L65.5842 39.5605L64.1662 39.5605V35.8308L63.058 38.5715H62.5218L61.4136 35.8308V39.5605H59.9837L60.0194 32.6731Z" fill="#FCFCFC"/>
</svg>
