<svg id="Capa_1" enable-background="new 0 0 512 512" height="512" viewBox="0 0 512 512" width="512" xmlns="http://www.w3.org/2000/svg"><g><g><path d="m359.498 198.865c-3.71-1.844-8.211-.33-10.054 3.38-1.843 3.709-.329 8.21 3.38 10.053 3.451 1.714 6.944 3.538 10.381 5.419 1.144.626 2.378.923 3.595.923 2.652 0 5.223-1.41 6.586-3.9 1.988-3.633.655-8.191-2.978-10.18-3.611-1.976-7.282-3.893-10.91-5.695z"/><path d="m228.319 189.737c.354 0 .713-.025 1.074-.077 3.816-.547 7.674-.983 11.465-1.296 4.128-.34 7.199-3.963 6.858-8.091s-3.967-7.201-8.091-6.858c-4.09.337-8.25.808-12.363 1.397-4.1.588-6.947 4.388-6.359 8.489.537 3.739 3.745 6.436 7.416 6.436z"/><path d="m185.716 200.371c.83 0 1.675-.139 2.502-.432 3.672-1.3 7.388-2.512 11.046-3.604 3.969-1.185 6.226-5.363 5.041-9.332s-5.362-6.226-9.332-5.041c-3.896 1.163-7.854 2.454-11.76 3.837-3.905 1.382-5.95 5.668-4.568 9.573 1.09 3.077 3.983 4.999 7.071 4.999z"/><path d="m313.176 196.466c3.657 1.1 7.374 2.321 11.046 3.629.832.296 1.682.437 2.517.437 3.082 0 5.972-1.916 7.065-4.985 1.39-3.902-.647-8.192-4.549-9.582-3.907-1.391-7.863-2.691-11.761-3.862-3.961-1.193-8.148 1.055-9.342 5.022-1.192 3.966 1.057 8.149 5.024 9.341z"/><path d="m271.578 188.4c3.792.322 7.652.767 11.475 1.324.366.053.73.079 1.091.079 3.663 0 6.868-2.688 7.412-6.42.597-4.099-2.242-7.906-6.341-8.503-4.118-.6-8.279-1.08-12.369-1.427-4.116-.356-7.757 2.712-8.106 6.839-.351 4.128 2.71 7.758 6.838 8.108z"/><path d="m398.3 221.633c-3.431-2.323-8.093-1.426-10.416 2.003-2.322 3.43-1.426 8.093 2.004 10.416 3.057 2.07 6.159 4.242 9.222 6.455 1.328.959 2.864 1.421 4.387 1.421 2.325 0 4.619-1.079 6.085-3.108 2.426-3.357 1.671-8.046-1.687-10.472-3.186-2.301-6.414-4.561-9.595-6.715z"/><path d="m108.504 241.928c1.522 0 3.059-.462 4.387-1.422 3.204-2.315 6.447-4.582 9.64-6.737 3.433-2.318 4.337-6.979 2.02-10.413-2.318-3.433-6.98-4.337-10.413-2.02-3.325 2.245-6.701 4.604-10.034 7.013-3.357 2.426-4.112 7.114-1.686 10.472 1.468 2.029 3.76 3.107 6.086 3.107z"/><path d="m145.645 218.397c1.213 0 2.443-.295 3.583-.917 3.442-1.876 6.934-3.692 10.378-5.396 3.712-1.837 5.233-6.335 3.396-10.048-1.837-3.712-6.335-5.233-10.048-3.396-3.621 1.792-7.29 3.699-10.905 5.67-3.637 1.982-4.978 6.538-2.995 10.175 1.36 2.498 3.934 3.912 6.591 3.912z"/><path d="m509.648 331.356c-1.161-1.097-28.959-27.156-74.151-53.548-41.829-24.429-106.926-53.549-179.497-53.549-50.693 0-103.44 13.829-156.774 41.103-3.688 1.886-5.149 6.405-3.263 10.092 1.887 3.688 6.405 5.149 10.092 3.263 15.429-7.89 30.788-14.599 46.042-20.135-12.862 19.825-19.767 42.947-19.767 67.117 0 40.09 19.177 75.783 48.837 98.396-38.341-10.245-71.835-26.504-96.764-41.036-31.804-18.54-55.104-37.275-65.59-46.249 9.549-8.171 29.714-24.429 57.209-41.243 3.534-2.161 4.647-6.777 2.486-10.311-2.16-3.533-6.776-4.646-10.311-2.486-40.333 24.664-64.822 47.619-65.845 48.584-1.5 1.417-2.352 3.389-2.352 5.453 0 1.659.556 3.253 1.551 4.552l-.008.006 17.05 22.291c4.287 5.604 106.502 137.233 237.407 137.233 38.844 0 78.877-11.567 118.988-34.38 3.601-2.048 4.859-6.627 2.812-10.228-2.049-3.601-6.627-4.86-10.228-2.812-37.822 21.513-75.361 32.42-111.572 32.42-88.641 0-164.02-64.815-201.074-103.445 6.659 4.367 13.857 8.862 21.576 13.371 41.83 24.431 106.926 53.554 179.497 53.554s137.668-29.123 179.498-53.554c7.696-4.495 14.873-8.977 21.514-13.331-14.68 15.28-35.386 34.677-60.584 52.558-3.378 2.397-4.173 7.079-1.775 10.457 1.462 2.061 3.774 3.16 6.123 3.16 1.501 0 3.017-.449 4.334-1.384 52.897-37.538 86.884-81.766 88.297-83.62l17.05-22.29-.007-.006c.994-1.299 1.55-2.893 1.55-4.551.001-2.063-.85-4.036-2.351-5.452zm-82.052 51.702c-24.906 14.518-58.361 30.76-96.656 41.007 15.613-11.904 28.2-27.328 36.687-45.104 1.785-3.738.202-8.215-3.536-10-3.736-1.785-8.216-.203-9.999 3.536-17.948 37.586-56.452 61.872-98.093 61.872-59.921 0-108.67-48.749-108.67-108.67 0-28.306 10.773-54.98 30.366-75.332 26.566-7.386 52.737-11.109 78.304-11.109 27.551 0 54.027 4.446 78.459 11.268 19.495 20.331 30.211 46.941 30.211 75.173 0 5.24-.374 10.465-1.111 15.529-.597 4.099 2.242 7.906 6.342 8.502.366.053.729.079 1.09.079 3.663 0 6.868-2.688 7.412-6.42.841-5.778 1.268-11.73 1.268-17.69 0-24.113-6.872-47.185-19.676-66.978 26.192 9.489 49.228 21.133 67.603 31.844 31.805 18.538 55.105 37.272 65.591 46.245-10.487 8.974-33.787 27.709-65.592 46.248z"/><path d="m293.376 259.611c-9.041 0-17.205 3.805-22.992 9.891-4.673-1.197-9.49-1.81-14.384-1.81-31.986 0-58.008 26.022-58.008 58.008s26.022 58.008 58.008 58.008c31.985 0 58.008-26.022 58.008-58.008 0-3.228-.269-6.436-.797-9.588 7.253-5.823 11.909-14.755 11.909-24.758 0-17.503-14.24-31.743-31.744-31.743zm0 15c9.232 0 16.744 7.511 16.744 16.744 0 6.304-3.505 11.802-8.666 14.657-.058.029-.111.063-.167.094-2.358 1.269-5.051 1.993-7.911 1.993-9.232 0-16.744-7.511-16.744-16.744s7.511-16.744 16.744-16.744zm5.632 51.089c0 23.715-19.293 43.008-43.008 43.008s-43.008-19.293-43.008-43.008 19.293-43.008 43.008-43.008c2.26 0 4.494.182 6.693.526-.69 2.598-1.062 5.324-1.062 8.136 0 17.504 14.24 31.744 31.744 31.744 1.881 0 3.722-.174 5.514-.489.074 1.026.119 2.056.119 3.091z"/><path d="m323.868 165.018 24.855 10.652c6.142 2.632 12.581 3.914 18.955 3.914 12.419 0 24.584-4.864 33.792-14.071l55.943-55.943c2.929-2.929 2.929-7.678 0-10.606l-7.555-7.554 12.251-12.251 7.554 7.554c1.407 1.407 3.314 2.197 5.304 2.197s3.896-.79 5.304-2.197l29.532-29.533c2.929-2.929 2.929-7.678 0-10.606-2.93-2.929-7.678-2.929-10.607 0l-24.228 24.229-7.554-7.554c-2.93-2.929-7.678-2.929-10.607 0l-22.857 22.857c-2.929 2.929-2.929 7.678 0 10.606l7.555 7.554-50.64 50.64c-9.57 9.569-23.79 12.31-36.232 6.977l-14.673-6.289 131.68-131.68c2.929-2.929 2.929-7.678 0-10.606-2.93-2.929-7.678-2.929-10.607 0l-139.515 139.513c-1.76 1.76-2.531 4.278-2.061 6.722.471 2.443 2.123 4.494 4.411 5.475z"/></g></g></svg>