<svg width="18" height="18" viewBox="0 0 18 18" fill="none" xmlns="http://www.w3.org/2000/svg">
<path d="M2.25 4.5H3.75H15.75" stroke="#1A1A1A" stroke-width="1.6" stroke-linejoin="round"/>
<path d="M6 4.50002V3.00002C6 2.6022 6 1.50015 6 1.50015C6 1.50015 7.10218 1.50002 7.5 1.50002C7.89782 1.50002 10.5 1.50002 10.5 1.50002C10.8978 1.50002 12 1.5 12 1.5C12 1.5 12 2.6022 12 3.00002V4.50002M14.25 4.50002V15C14.25 15.3978 14.25 16.5 14.25 16.5C14.25 16.5 13.1478 16.5 12.75 16.5H5.25C4.85218 16.5 3.75004 16.5 3.75004 16.5C3.75004 16.5 3.75 15.3978 3.75 15V4.50002H14.25Z" stroke="#1A1A1A" stroke-width="1.6" stroke-linejoin="bevel"/>
<path d="M7.5 8.25V12.75" stroke="#1A1A1A" stroke-width="1.6" stroke-linejoin="round"/>
<path d="M10.5 8.25V12.75" stroke="#1A1A1A" stroke-width="1.6" stroke-linejoin="round"/>
</svg>
