<svg xmlns="http://www.w3.org/2000/svg" xmlns:xlink="http://www.w3.org/1999/xlink" version="1.1" id="OBJECTS" x="0px" y="0px" style="enable-background:new 0 0 2490.4 1135.1;" xml:space="preserve" viewBox="1767.8 243 413.8 413.8">
<style type="text/css">
	.st0{fill:#D5AB56;}
</style>
<path class="st0" d="M1974.7,243c0,114.3-96.4,207.1-206.9,206.9c114.3,0,206.9,92.6,206.9,206.9c0-114.3,92.6-206.9,206.9-206.9  C2067.3,449.9,1974.7,357.3,1974.7,243z M2000.4,475.6c-6.7,6.7-25.7,28-25.7,28s-19.1-21.2-25.8-27.9c-6.7-6.7-27.9-25.8-27.9-25.8  s21.4-18.9,28.1-25.6s25.6-28.1,25.6-28.1s18.6,21.7,25.4,28.4c6.7,6.7,28.4,25.4,28.4,25.4S2007.1,468.9,2000.4,475.6z"/>
</svg>