<svg width="68" height="63" viewBox="0 0 68 63" fill="none" xmlns="http://www.w3.org/2000/svg">
<path d="M65.67 9.3C65.67 9.3 55.21 9.53 45.21 14.03C40.03 5.57 33.04 0 33.04 0C33.04 0 26.41 5.29 21.27 13.38C11.76 9.51 2.33003 9.3 2.33003 9.3C2.33003 9.3 -3.16997 31.18 7.35003 44.98C12.73 52.04 19.24 57.15 25.34 59.68C27.67 61.69 30.28 62.83 33.04 62.83C35.22 62.83 37.3 62.12 39.23 60.84C46.25 59.04 54.25 53.39 60.65 44.99C71.18 31.19 65.67 9.3 65.67 9.3ZM33.04 2.73C33.04 2.73 38.87 7.54 43.41 14.89C39.99 16.63 36.7 18.91 34 21.9C30.91 18.49 27.06 15.99 23.12 14.17C27.58 7.23 33.04 2.73 33.04 2.73ZM38.77 57.09C37.41 58.13 35.79 58.72 34 58.91C32.21 58.72 30.59 58.13 29.23 57.09C22.43 51.9 24.58 37.64 34 25.12C43.42 37.64 45.57 51.9 38.77 57.09ZM32.59 23.58C23.89 34.99 20.85 47.89 24.45 55.36C20.22 50.23 17.43 41.42 17.43 31.42C17.43 25.7 19.47 20.38 22.07 15.9C25.9 17.65 29.68 20.09 32.67 23.48C32.65 23.51 32.62 23.54 32.59 23.58ZM35.41 23.58C35.38 23.54 35.35 23.51 35.32 23.48C37.92 20.53 41.11 18.3 44.42 16.62C46.82 20.94 48.64 26 48.64 31.42C48.64 38.48 47.25 44.94 44.95 49.94C45.6 42.48 42.26 32.57 35.41 23.58ZM8.97003 43.74C-0.639972 31.15 3.99003 11.47 3.99003 11.47C3.99003 11.47 11.94 11.77 20.24 15.1C17.5 19.85 15.4 25.44 15.4 31.41C15.4 41.03 17.83 49.63 21.65 55.39C17.26 52.77 12.82 48.79 8.97003 43.74ZM59.03 43.74C54.27 49.98 48.6 54.59 43.25 57.02C47.75 51.33 50.69 41.98 50.69 31.4C50.69 25.7 48.78 20.36 46.22 15.75C55.05 11.8 64.01 11.46 64.01 11.46C64.01 11.46 68.64 31.15 59.03 43.74Z" fill="#CAADD0"/>
</svg>
