<svg width="52" height="52" viewBox="0 0 52 52" fill="none" xmlns="http://www.w3.org/2000/svg">
<path d="M15.1673 30.333H19.5007C20.0753 30.333 20.6264 30.1047 21.0327 29.6984C21.439 29.2921 21.6673 28.741 21.6673 28.1663C21.6673 27.5917 21.439 27.0406 21.0327 26.6343C20.6264 26.2279 20.0753 25.9997 19.5007 25.9997H15.1673C14.5927 25.9997 14.0416 26.2279 13.6353 26.6343C13.2289 27.0406 13.0007 27.5917 13.0007 28.1663C13.0007 28.741 13.2289 29.2921 13.6353 29.6984C14.0416 30.1047 14.5927 30.333 15.1673 30.333ZM28.1673 34.6663H15.1673C14.5927 34.6663 14.0416 34.8946 13.6353 35.3009C13.2289 35.7073 13.0007 36.2584 13.0007 36.833C13.0007 37.4076 13.2289 37.9587 13.6353 38.3651C14.0416 38.7714 14.5927 38.9997 15.1673 38.9997H28.1673C28.742 38.9997 29.2931 38.7714 29.6994 38.3651C30.1057 37.9587 30.334 37.4076 30.334 36.833C30.334 36.2584 30.1057 35.7073 29.6994 35.3009C29.2931 34.8946 28.742 34.6663 28.1673 34.6663ZM41.1673 4.33301H10.834C9.11008 4.33301 7.45678 5.01783 6.23779 6.23681C5.0188 7.4558 4.33398 9.1091 4.33398 10.833V41.1663C4.33398 42.8903 5.0188 44.5436 6.23779 45.7625C7.45678 46.9815 9.11008 47.6663 10.834 47.6663H41.1673C42.8912 47.6663 44.5445 46.9815 45.7635 45.7625C46.9825 44.5436 47.6673 42.8903 47.6673 41.1663V10.833C47.6673 9.1091 46.9825 7.4558 45.7635 6.23681C44.5445 5.01783 42.8912 4.33301 41.1673 4.33301ZM30.334 8.66634V15.7947L27.0623 13.9747C26.7329 13.7845 26.3593 13.6844 25.979 13.6844C25.5987 13.6844 25.225 13.7845 24.8957 13.9747L21.6673 15.7947V8.66634H30.334ZM43.334 41.1663C43.334 41.741 43.1057 42.2921 42.6994 42.6984C42.2931 43.1047 41.742 43.333 41.1673 43.333H10.834C10.2593 43.333 9.70825 43.1047 9.30192 42.6984C8.89559 42.2921 8.66732 41.741 8.66732 41.1663V10.833C8.66732 10.2584 8.89559 9.70727 9.30192 9.30094C9.70825 8.89461 10.2593 8.66634 10.834 8.66634H17.334V19.4997C17.3363 19.8778 17.4375 20.2487 17.6275 20.5756C17.8176 20.9025 18.0899 21.174 18.4173 21.363C18.7467 21.5532 19.1203 21.6533 19.5007 21.6533C19.881 21.6533 20.2546 21.5532 20.584 21.363L26.0007 18.3513L31.439 21.3847C31.7628 21.5682 32.1284 21.6652 32.5007 21.6663C33.0753 21.6663 33.6264 21.4381 34.0327 21.0317C34.439 20.6254 34.6673 20.0743 34.6673 19.4997V8.66634H41.1673C41.742 8.66634 42.2931 8.89461 42.6994 9.30094C43.1057 9.70727 43.334 10.2584 43.334 10.833V41.1663Z" fill="#DC783F"/>
</svg>
