<svg width="52" height="52" viewBox="0 0 52 52" fill="none" xmlns="http://www.w3.org/2000/svg">
<path d="M2.16602 27.0837V37.917C2.16602 38.4916 2.39429 39.0427 2.80062 39.4491C3.20695 39.8554 3.75805 40.0837 4.33268 40.0837H6.49935C6.49935 41.8076 7.18417 43.4609 8.40315 44.6799C9.62214 45.8988 11.2754 46.5837 12.9993 46.5837C14.7233 46.5837 16.3766 45.8988 17.5955 44.6799C18.8145 43.4609 19.4993 41.8076 19.4993 40.0837H32.4993C32.4993 41.8076 33.1842 43.4609 34.4032 44.6799C35.6221 45.8988 37.2754 46.5837 38.9993 46.5837C40.7233 46.5837 42.3766 45.8988 43.5955 44.6799C44.8145 43.4609 45.4993 41.8076 45.4993 40.0837H47.666C48.2406 40.0837 48.7917 39.8554 49.1981 39.4491C49.6044 39.0427 49.8327 38.4916 49.8327 37.917V11.917C49.8327 10.1931 49.1479 8.53978 47.9289 7.3208C46.7099 6.10181 45.0566 5.41699 43.3327 5.41699H23.8327C22.1088 5.41699 20.4555 6.10181 19.2365 7.3208C18.0175 8.53978 17.3327 10.1931 17.3327 11.917V16.2503H12.9993C11.9903 16.2503 10.995 16.4853 10.0925 16.9365C9.1899 17.3878 8.4048 18.043 7.79935 18.8503L2.59935 25.7837C2.53598 25.8778 2.485 25.9798 2.44768 26.087L2.31768 26.3253C2.22206 26.567 2.17068 26.8238 2.16602 27.0837ZM36.8327 40.0837C36.8327 39.6551 36.9598 39.2362 37.1978 38.8799C37.4359 38.5236 37.7743 38.2459 38.1702 38.0819C38.5661 37.9179 39.0018 37.875 39.422 37.9586C39.8423 38.0422 40.2284 38.2486 40.5314 38.5516C40.8344 38.8546 41.0408 39.2407 41.1244 39.661C41.208 40.0812 41.1651 40.5169 41.0011 40.9128C40.8371 41.3087 40.5594 41.6471 40.2031 41.8852C39.8468 42.1233 39.4279 42.2503 38.9993 42.2503C38.4247 42.2503 37.8736 42.0221 37.4673 41.6157C37.061 41.2094 36.8327 40.6583 36.8327 40.0837ZM21.666 11.917C21.666 11.3424 21.8943 10.7913 22.3006 10.3849C22.7069 9.9786 23.258 9.75033 23.8327 9.75033H43.3327C43.9073 9.75033 44.4584 9.9786 44.8647 10.3849C45.2711 10.7913 45.4993 11.3424 45.4993 11.917V35.7503H43.8093C43.2001 35.0801 42.4575 34.5445 41.6292 34.178C40.8009 33.8116 39.9051 33.6223 38.9993 33.6223C38.0936 33.6223 37.1978 33.8116 36.3695 34.178C35.5412 34.5445 34.7986 35.0801 34.1893 35.7503H21.666V11.917ZM17.3327 24.917H8.66602L11.266 21.4503C11.4678 21.1812 11.7295 20.9628 12.0304 20.8124C12.3312 20.662 12.663 20.5837 12.9993 20.5837H17.3327V24.917ZM10.8327 40.0837C10.8327 39.6551 10.9598 39.2362 11.1978 38.8799C11.4359 38.5236 11.7743 38.2459 12.1702 38.0819C12.5661 37.9179 13.0018 37.875 13.422 37.9586C13.8423 38.0422 14.2284 38.2486 14.5314 38.5516C14.8344 38.8546 15.0408 39.2407 15.1244 39.661C15.208 40.0812 15.1651 40.5169 15.0011 40.9128C14.8371 41.3087 14.5594 41.6471 14.2031 41.8852C13.8468 42.1233 13.4279 42.2503 12.9993 42.2503C12.4247 42.2503 11.8736 42.0221 11.4673 41.6157C11.061 41.2094 10.8327 40.6583 10.8327 40.0837ZM6.49935 29.2503H17.3327V35.2737C16.054 34.1309 14.3755 33.5397 12.6628 33.629C10.9502 33.7183 9.34228 34.4808 8.18935 35.7503H6.49935V29.2503Z" fill="#DC783F"/>
</svg>
