<svg width="52" height="52" viewBox="0 0 52 52" fill="none" xmlns="http://www.w3.org/2000/svg">
<path d="M26.0007 4.33301C21.7154 4.33301 17.5264 5.60374 13.9633 7.9845C10.4002 10.3653 7.62317 13.7491 5.98327 17.7082C4.34337 21.6673 3.9143 26.0237 4.75031 30.2266C5.58633 34.4296 7.64988 38.2902 10.68 41.3203C13.7102 44.3505 17.5708 46.414 21.7737 47.25C25.9766 48.086 30.3331 47.657 34.2921 46.0171C38.2512 44.3772 41.6351 41.6001 44.0158 38.037C46.3966 34.474 47.6673 30.2849 47.6673 25.9997C47.6673 23.1544 47.1069 20.3369 46.0181 17.7082C44.9292 15.0795 43.3332 12.691 41.3213 10.679C39.3094 8.66709 36.9209 7.07114 34.2921 5.98228C31.6634 4.89343 28.846 4.33301 26.0007 4.33301ZM26.0007 43.333C22.5725 43.333 19.2212 42.3164 16.3708 40.4118C13.5203 38.5072 11.2987 35.8001 9.98675 32.6329C8.67483 29.4656 8.33157 25.9804 9.00038 22.6181C9.66919 19.2558 11.32 16.1673 13.7441 13.7432C16.1683 11.319 19.2568 9.66821 22.6191 8.9994C25.9814 8.33059 29.4666 8.67384 32.6338 9.98576C35.8011 11.2977 38.5082 13.5193 40.4128 16.3698C42.3174 19.2202 43.334 22.5715 43.334 25.9997C43.334 30.5968 41.5078 35.0056 38.2572 38.2562C35.0065 41.5068 30.5977 43.333 26.0007 43.333ZM32.7173 27.3647L28.1673 24.743V15.1663C28.1673 14.5917 27.9391 14.0406 27.5327 13.6343C27.1264 13.2279 26.5753 12.9997 26.0007 12.9997C25.426 12.9997 24.8749 13.2279 24.4686 13.6343C24.0623 14.0406 23.834 14.5917 23.834 15.1663V25.9997C23.834 25.9997 23.834 26.173 23.834 26.2597C23.8468 26.409 23.8834 26.5552 23.9423 26.693C23.9869 26.8216 24.0451 26.945 24.1157 27.0613C24.175 27.1845 24.2476 27.3007 24.3323 27.408L24.679 27.6897L24.874 27.8847L30.5073 31.1347C30.8375 31.3218 31.2111 31.419 31.5907 31.4163C32.0704 31.4197 32.5377 31.2637 32.9192 30.9729C33.3008 30.6821 33.575 30.2729 33.6989 29.8094C33.8229 29.3459 33.7895 28.8544 33.604 28.412C33.4185 27.9696 33.0914 27.6012 32.674 27.3647H32.7173Z" fill="#DC783F"/>
</svg>
