<?xml version="1.0" encoding="utf-8"?>
<!-- Generator: Adobe Illustrator 18.0.0, SVG Export Plug-In . SVG Version: 6.00 Build 0)  -->
<!DOCTYPE svg PUBLIC "-//W3C//DTD SVG 1.1//EN" "http://www.w3.org/Graphics/SVG/1.1/DTD/svg11.dtd">
<svg version="1.1" id="Layer_1" xmlns="http://www.w3.org/2000/svg" xmlns:xlink="http://www.w3.org/1999/xlink" x="0px" y="0px"
	 viewBox="0 0 74.8 70.5" enable-background="new 0 0 74.8 70.5" xml:space="preserve">
<path fill="#a65047" d="M2.8,0c3.7,1.4,7.3,2.9,11.1,4.3c1.3,0.5,2.1,1.3,2.3,2.8c2.2,11.9,4.3,23.8,6.5,35.7c0.1,0.3,0.1,0.6,0.2,0.9
	c0.3,0,0.6,0,0.9,0c12,0,24,0,35.9,0c0.6,0,1-0.1,1.2-0.8c2.7-8.4,5.4-16.8,8-25.2c0-0.2,0.1-0.3,0.2-0.6c-2.4-0.1-4.8-0.2-7.2-0.3
	c-11.5-0.5-23-1-34.5-1.5c-0.6,0-1.2-0.1-1.8-0.2c-1.3-0.2-2.1-1.3-2-2.5c0.1-1.2,1.1-2.2,2.4-2.2c2,0,4.1,0.1,6.1,0.2
	c13.3,0.6,26.6,1.2,39.9,1.7c1.3,0.1,2.2,0.6,2.8,1.8c0,0.4,0,0.8,0,1.2c-0.1,0.3-0.3,0.6-0.4,0.9C71.3,26.2,68.1,36,65,45.9
	c-0.7,2.1-1.2,2.5-3.4,2.5c-11.4,0-22.8,0-34.2,0c-0.4,0-0.8,0-1.2,0c-0.7,2-1.4,3.9-2.1,6c0.6,0,1,0,1.4,0c11.9,0,23.8,0,35.7,0
	c0.3,0,0.7,0,1,0c1.3,0.1,2.1,0.8,2.2,2c0,1.1-0.9,2-2.2,2c-0.6,0-1.2,0-2,0c0.2,0.3,0.3,0.5,0.4,0.6c2.2,3.2,1.6,7.3-1.4,9.8
	c-1.2,1-2.5,1.3-3.9,1.6c-0.3,0-0.7,0-1,0c-0.2-0.1-0.3-0.1-0.5-0.1c-4.6-0.7-7.3-5.1-5.8-9.5c0.3-0.8,0.8-1.6,1.2-2.3
	c-5.1,0-10.2,0-15.4,0c0.1,0.2,0.2,0.4,0.3,0.5c2.3,3.3,1.8,7.5-1.4,9.9c-1.1,0.8-2.5,1.1-3.8,1.6c-0.4,0-0.8,0-1.2,0
	c-0.1-0.1-0.3-0.1-0.4-0.2c-3.4-0.5-5.9-3.3-6.1-6.7c-0.1-1.9,0.5-3.5,1.8-5.1c-0.6,0-1.1,0-1.5,0c-1.8,0-2.6-1.2-2.1-2.9
	c0.4-1.3,1-2.7,1.4-4c0.4-1,0.7-2,1.1-3c-2.6-0.3-3.2-0.7-3.6-2.6c-2.2-12.2-4.5-24.4-6.7-36.5c-0.1-0.7-0.4-0.9-1-1.2
	C7.9,7.2,5.1,6,2.2,5C1.2,4.6,0.4,4,0,3c0-0.3,0-0.7,0-1c0.4-1,1.1-1.7,2.2-2C2.4,0,2.6,0,2.8,0z M54.8,66.4c1.8,0,3.2-1.4,3.2-3.2
	c0-1.7-1.4-3.2-3.2-3.2c-1.7,0-3.2,1.4-3.2,3.2C51.6,65,53,66.4,54.8,66.4z M28.4,66.4c1.8,0,3.2-1.4,3.2-3.1c0-1.8-1.4-3.2-3.1-3.2
	c-1.7,0-3.2,1.4-3.2,3.1C25.2,64.9,26.6,66.4,28.4,66.4z"/>
</svg>
