<?xml version="1.0" encoding="utf-8"?>
<!-- Generator: Adobe Illustrator 21.0.2, SVG Export Plug-In . SVG Version: 6.00 Build 0)  -->
<svg version="1.1" id="Layer_1" xmlns="http://www.w3.org/2000/svg" xmlns:xlink="http://www.w3.org/1999/xlink" x="0px" y="0px"
	 viewBox="0 0 217.3 224.3" style="enable-background:new 0 0 217.3 224.3;" xml:space="preserve">
<style type="text/css">
	.st0{fill:#DB241C;}
</style>
<title>new_icons2</title>
<path d="M177,71.2c1.3,1.6,2.3,3.4,3.2,5.3c0.8,1.6,1.4,3,1.5,3.4l0.3,0.8l0.2-0.8c0.6-2.5,0.9-5.1,1-7.7c0.1-1.6-0.2-3.3-0.8-4.8
	c-1.4-3-3.6-5.5-6.3-7.2c-1-0.7-3.2-2.3-4.8-3.5c-1.3-3.6-3-7.1-4.9-10.4c1.2,0.8,2.5,1.5,3.7,2.2c1.7,1.1,3.3,2.4,4.8,3.9
	c0.6,0.6,1.5,1.5,2.5,2.6l0,0l0.6,0.7l-0.1-0.8c0-0.1,0-0.2,0-0.3c-0.7-5.5-2.2-9.6-4.1-11.5c-2.3-2.3-5.2-3.9-8.4-4.6
	c-1.2-0.3-3.9-1.1-5.8-1.6c-2.5-2.9-5.2-5.6-8.1-8.1c1.4,0.3,2.9,0.6,4.3,0.8c2,0.4,4,1.1,5.8,2c1.7,0.8,3.3,1.5,3.4,1.7l0,0
	l0.7,0.4l-0.4-0.7l-0.1-0.2c-2.5-4.9-5.3-8.2-7.8-9.4c-2.2-1.1-4.6-1.6-7.1-1.6c-1,0-1.8,0.1-2.4,0.1c-1.2,0.1-3.9,0.3-6,0.4
	c-3.3-1.9-6.8-3.5-10.4-4.8c1.4-0.2,2.8-0.5,4.2-0.7c1-0.2,2-0.2,3-0.2c2.3,0,4.6,0.2,6.9,0.5l0.8,0.1l-0.6-0.5l-0.2-0.2
	c-4-3.7-7.8-5.9-10.6-6.2c-0.5,0-1.1-0.1-1.6-0.1c-2.7,0-5.4,0.7-7.8,1.9c-0.9,0.4-2.7,1.2-5.4,2.4c-3.7-0.7-7.5-1-11.2-1H109
	c1.3-0.6,2.6-1.4,3.7-2l0,0c1.9-1,3.8-1.7,5.8-2.2c1.1-0.3,2.4-0.6,3.6-0.9L123,8l-0.7-0.3h-0.1c-1.4-0.6-6.2-2.6-10.1-2.6
	c-0.7,0-1.4,0.1-2.1,0.2c-3.2,0.8-6,2.6-8.2,5c-0.9,0.9-2.8,2.8-4.3,4.1c-3.8,0.7-7.5,1.7-11,3c1-1,1.9-2.2,2.7-3.2l0-0.1
	c1.4-1.5,3-2.9,4.7-4.1c1.4-1,2.6-1.8,3.1-2.1l0.7-0.5l-0.8-0.1c-0.3,0-1.1-0.1-2.1-0.1c-1.8,0-7.2,0.1-10.2,2.1
	c-2.7,1.9-4.8,4.5-6,7.5c-0.5,1.1-1.8,3.6-2.6,5.4c-3.3,2-6.4,4.2-9.4,6.7c0.6-1.4,1.1-2.8,1.5-4l0,0c0.8-1.9,1.8-3.7,3-5.4
	c0.9-1.3,2-2.9,2.2-3.1l0,0l0.5-0.6L73,16.2l-0.3,0.1c-5.2,1.6-9,3.8-10.7,6c-1.9,2.7-2.9,5.8-3.1,9.1c-0.1,1.3-0.4,4.1-0.6,6
	c-2.4,2.9-4.6,6.1-6.5,9.4c0-0.7,0-1.4,0-2.3c0-0.6,0-1.2,0-1.7v-0.4c0-2.7,1.3-7.4,1.9-9.4l0,0l0.3-1l-0.6,0.5l-0.2,0.2
	c-4.4,3.3-7.2,6.7-8,9.3c-0.4,1.4-0.6,2.9-0.6,4.4c0,1.8,0.3,3.5,0.8,5.2c0.3,1.2,1,3.8,1.5,5.8c-1.3,3.6-2.3,7.3-2.9,11.1
	c-0.4-1.4-1-2.8-1.4-4c-0.6-2-1-4-1.2-6.1c-0.2-2.1-0.3-3.8-0.3-3.8v-0.8l-0.5,0.7l-0.1,0.2c-2.7,4.2-4.3,8.2-4.3,11
	c0,0.2,0,0.4,0,0.6c0.3,3.2,1.5,6.3,3.5,8.9c0.7,1,2.2,3.2,3.3,4.9c0,3.8,0.3,7.6,1,11.4c-0.8-1.1-1.8-2.3-2.6-3.3
	c-1.3-1.6-2.3-3.4-3.2-5.3c-0.8-1.7-1.4-3.2-1.6-3.4l-0.3-0.8l-0.2,0.8c-0.6,2.5-0.9,5.1-1,7.7c-0.1,1.6,0.2,3.3,0.8,4.8
	c1.4,3,3.6,5.5,6.3,7.2c0.8,0.6,2.4,1.8,4.8,3.5c1.3,3.6,3,7.1,4.9,10.4c-1.2-0.8-2.5-1.5-3.7-2.2c-1.7-1.1-3.3-2.4-4.8-3.9
	c-1.3-1.3-2.3-2.4-2.6-2.7l0,0l-0.6-0.6l0.1,0.8c0,0.1,0,0.1,0,0.3c0.7,5.5,2.2,9.6,4.1,11.6c2.3,2.3,5.2,3.9,8.4,4.6
	c1.2,0.3,3.9,1.1,5.8,1.6c2.5,2.9,5.2,5.6,8.1,8.1c-1.5-0.3-2.9-0.6-4.3-0.8c-2-0.4-4-1.1-5.8-2c-1.1-0.5-2.2-1-3.3-1.6l-0.8-0.4
	l0.4,0.7l0.1,0.2c2.5,4.9,5.3,8.2,7.8,9.4c2.2,1,4.6,1.6,7.1,1.6c0.9,0,1.7-0.1,2.3-0.1h0.1c1.2-0.1,4-0.3,6-0.4
	c3.3,1.9,6.8,3.5,10.4,4.8c-1.5,0.2-2.9,0.5-4.2,0.7c-1,0.2-2,0.2-3,0.2h-0.1c-2.3,0-4.6-0.2-6.9-0.5l-0.8-0.1l0.6,0.6l0.2,0.2
	c4,3.7,7.8,5.9,10.6,6.2c0.5,0,1.1,0.1,1.6,0.1c2.7,0,5.4-0.7,7.8-1.9c1.1-0.5,3.6-1.6,5.4-2.4c3.7,0.7,7.5,1,11.2,1h0.2
	c-1.3,0.7-2.6,1.4-3.7,2.1c-1.8,0.9-3.8,1.7-5.8,2.2c-1.6,0.5-3.4,0.9-3.7,0.9h0.1l-0.8,0.2l0.7,0.3l0,0h0.1
	c1.4,0.6,6.2,2.5,10.1,2.5c0.7,0,1.4-0.1,2.1-0.2c3.2-0.8,6-2.6,8.2-5c0.8-0.9,2.8-2.7,4.3-4.1c3.8-0.7,7.5-1.7,11.1-3
	c-0.9,1-1.9,2.1-2.7,3.1l-0.1,0.1c-1.4,1.5-3,2.9-4.7,4.1c-0.8,0.6-2.8,1.9-3.2,2.2h0.1l-0.7,0.4l0.8,0.1c0.4,0,1.1,0.1,2.1,0.1
	c1.8,0,7.2-0.1,10.2-2.1c2.7-1.9,4.8-4.5,6-7.5c0.5-1.1,1.8-3.6,2.6-5.4c3.3-1.9,6.5-4.2,9.4-6.6c-0.6,1.4-1.1,2.8-1.5,4.1
	c-0.8,1.9-1.8,3.7-3,5.4c-0.9,1.3-1.7,2.4-2.1,3l-0.6,0.7l0.8-0.2l0.3-0.1c5.2-1.6,9-3.8,10.7-6c1.9-2.7,2.9-5.8,3.1-9.1
	c0.1-1.2,0.4-4,0.6-6c2.4-2.9,4.6-6.1,6.5-9.4c0,0.7,0,1.4-0.1,2.3c0,0.7,0,1.3,0,2v0.1c0,2.8-1.5,8-2,9.5l-0.3,0.9l0.6-0.5l0.2-0.2
	c4.4-3.3,7.2-6.7,8-9.3c0.4-1.4,0.6-2.9,0.6-4.4c0-1.8-0.3-3.5-0.8-5.2c-0.3-1.2-1-3.9-1.5-5.8c1.3-3.6,2.3-7.3,2.9-11.1
	c0.4,1.4,1,2.8,1.4,4c0.6,2,1,4,1.2,6.1c0.1,0.8,0.2,2.1,0.3,3.6l0,0v1l0.4-0.7l0.1-0.2c2.7-4.2,4.3-8.2,4.3-11c0-0.2,0-0.4,0-0.6
	c-0.2-3.3-1.4-6.5-3.4-9.1c-0.7-1-2.2-3.3-3.4-4.9c0-3.8-0.3-7.6-1-11.4C175.2,69,176.2,70.2,177,71.2z M172.6,80.1
	c-0.5,1.3-1.3,2.5-2.3,3.5l-0.7,0.6c-1.7,1.4-4.3,3.6-5,6.2c-0.5,2.5-0.8,5.1-0.7,7.8c0,0.6,0,0.9,0,1v0.6l0.4-0.4l0.2-0.2
	c3.8-3.7,5-5.5,5.3-6.2c0.5-1.1,1.5-3,2.2-4.4l0.2,0.1c-0.6,4.2-1.6,8.4-3.1,12.4l-0.6,0.6c-1,1-2.1,1.9-3.4,2.6l-0.9,0.3
	c-2.1,0.8-5.2,1.9-6.9,4.1c-1.5,2.5-2.7,5.1-3.6,7.9l-0.1,0.2l-0.2,0.6l0.5-0.2l0.2-0.1c3.6-1.6,6.1-3,7.2-4.1
	c0.6-0.6,1.8-1.7,3.6-3.3l0.2,0.1c-2,3.8-4.5,7.4-7.2,10.7l-0.8,0.4c-1.2,0.6-2.6,1.1-4,1.2h-1.3c-2.1,0-5.2,0-7.4,1.5
	c-2.2,1.8-4.3,3.9-6.1,6.2l-0.1,0.1l0,0l-0.4,0.5h0.6h0.3c5-0.4,7.1-0.9,8.1-1.4c0.9-0.4,2.3-1,4.5-1.9l0.1,0.2
	c-3.2,2.9-6.7,5.4-10.4,7.6c-0.9,0.1-1.8,0.2-2.7,0.2h-0.1c-0.8,0-1.6-0.1-2.3-0.3l-0.8-0.3c-2-0.9-4.1-1.4-6.3-1.5
	c-0.6,0-1.1,0.1-1.7,0.2c-2.7,0.9-5.3,2.2-7.8,3.7l-0.1,0.1l-0.5,0.3l0.6,0.2h0.2c2.5,0.8,5.1,1.3,7.8,1.5h0.4
	c0.9-0.1,2.6-0.2,5-0.2v0.2c-4,1.6-8.1,2.8-12.4,3.6l-0.9-0.2c-1.4-0.3-2.7-0.9-3.9-1.6l-0.7-0.6c-1.7-1.4-4.2-3.6-6.9-3.9
	c-0.3,0-0.7,0-1.1,0c-2.6,0.1-5.1,0.4-7.7,0.9l-0.6,0.1l0.5,0.4l0.2,0.1c3.1,2.3,5.7,3.8,7.1,4.2c0.9,0.2,2.4,0.7,4.7,1.4v0.2
	c-0.7,0-1.3,0-2,0c-3.6,0-7.2-0.3-10.8-0.9l-0.8-0.5c-1.2-0.8-2.3-1.8-3.1-3l-0.5-0.8c-1.1-1.9-2.8-4.8-5.2-6
	c-2.7-1.1-5.5-1.8-8.3-2.1h-0.2l-0.6-0.1l0.3,0.5l0.2,0.2c2.8,4.1,4.4,5.7,5.2,6.3c0.8,0.6,2.7,2,3.9,3l-0.1,0.2
	c-4.1-1.3-8-3.1-11.8-5.2l-0.5-0.7c-0.8-1.1-1.5-2.4-1.9-3.8c-0.1-0.3-0.1-0.6-0.2-0.9c-0.4-2.2-0.9-5.5-2.8-7.5
	c-2.2-1.9-4.6-3.5-7.1-4.9l-0.1-0.1l0,0l-0.5-0.3l0.1,0.6l0.1,0.3c1.2,4.8,2.2,6.9,2.8,7.7s1.4,2.1,2.7,4.1l-0.2,0.2
	c-3.4-2.7-6.5-5.7-9.3-9l-0.1-0.4c-0.4-1.3-0.6-2.6-0.7-3.9c0-0.2,0-0.5,0-0.7l0.1-0.7c0.3-1.6,0.5-3.1,0.5-4.7
	c0-1.2-0.2-2.4-0.6-3.4c-1.4-2.5-3.1-4.9-5-7l-0.1-0.1l-0.4-0.4l-0.1,0.6c0,0.3-0.3,3.1-0.3,5.5c0,1,0,2,0.2,2.9
	c0.2,0.9,0.6,2.5,1.1,4.8l-0.2,0.1c-2.3-3.6-4.2-7.5-5.6-11.5c0.1-1.6,0.4-4,1-5l0.5-0.8c1-1.8,2.6-4.5,2.7-7.1c0-0.2,0-0.3,0-0.4
	c-0.4-2.9-1.2-5.6-2.3-8.3l-0.1-0.2L51,79.4l-0.3,0.5l-0.1,0.2c-2.3,4.7-2.8,6.8-2.9,7.7s-0.3,2.6-0.6,4.9h-0.2
	c-0.9-4.2-1.4-8.5-1.4-12.8c0.1-0.3,0.2-0.5,0.4-0.8c0.5-1.3,1.3-2.5,2.3-3.5l0.7-0.6c1.7-1.4,4.3-3.6,5-6.2
	c0.5-2.6,0.7-5.2,0.7-7.8c0-0.6,0-0.9,0-1v-0.6l-0.4,0.4l-0.2,0.2c-3.6,3.5-4.9,5.3-5.3,6.2c-0.5,0.9-1.5,3-2.2,4.4l-0.2-0.1
	c0.6-4.2,1.6-8.4,3.1-12.4l0.6-0.7c1-1,2.1-1.9,3.4-2.5l0.9-0.3c2.1-0.8,5.2-1.9,6.9-4.1c1.5-2.5,2.7-5.1,3.6-7.9l0.1-0.2l0,0
	l0.2-0.6L64.2,42L64,42.1c-3.5,1.6-6.1,3-7.2,4.1c-0.7,0.7-1.9,1.8-3.6,3.3L53,49.4c2-3.8,4.5-7.4,7.2-10.7l0.8-0.4
	c1.2-0.7,2.6-1.1,4-1.2h1.4c2.1,0,5.2,0,7.4-1.5c2.2-1.8,4.3-3.9,6.1-6.2l0.1-0.1l0,0l0.4-0.5h-0.6h-0.2c-5.2,0.4-7.3,1-8.1,1.4
	c-1,0.5-3,1.3-4.5,1.9l-0.1,0c3.2-2.9,6.7-5.4,10.4-7.6c0.9-0.1,1.8-0.2,2.7-0.2h0.1c0.8,0,1.6,0.1,2.3,0.3l0.7,0.3
	c2,0.9,4.2,1.4,6.4,1.5c0.6,0,1.1-0.1,1.7-0.2c2.7-0.9,5.3-2.2,7.7-3.8l0.2-0.1l0.5-0.3l-0.6-0.2l0,0h-0.2c-2.5-0.8-5.1-1.3-7.8-1.5
	h-0.4c-0.9,0.1-2.6,0.2-4.9,0.2v-0.2c4-1.6,8.1-2.8,12.3-3.6l0.9,0.2c1.4,0.3,2.7,0.9,3.9,1.6l0.7,0.6c1.7,1.4,4.2,3.6,7,3.9
	c0.3,0,0.7,0,1.1,0c2.5-0.1,5.1-0.4,7.6-0.9h0.1l0.6-0.1l-0.5-0.4l-0.2-0.1c-4.3-3-6.3-3.9-7.1-4.1s-2.5-0.7-4.7-1.4v-0.3
	c0.7,0,1.3,0,2,0c3.6,0,7.2,0.3,10.8,0.9l0.8,0.5c1.2,0.7,2.3,1.7,3.2,2.8l0.5,0.8c1.1,1.9,2.8,4.8,5.2,6c2.7,1.1,5.5,1.8,8.4,2.2
	h0.1l0.6,0.1l-0.3-0.5l-0.1-0.2c-2.9-4.3-4.5-5.8-5.2-6.3s-2.1-1.5-3.9-3l0.1-0.2c4.1,1.3,8,3.1,11.8,5.2l0.5,0.7
	c0.9,1.1,1.5,2.4,1.9,3.8c0.1,0.3,0.1,0.6,0.2,0.9c0.4,2.2,0.9,5.5,2.8,7.5c2.2,1.9,4.6,3.5,7.1,4.9l0.2,0.1l0,0l0.5,0.3l-0.1-0.6
	l-0.1-0.2c-1.3-5.1-2.3-7-2.8-7.7c-0.5-0.7-1.4-2.1-2.7-4.1l0.2-0.1c3.4,2.7,6.5,5.7,9.3,9l0.1,0.4c0.4,1.3,0.6,2.6,0.7,3.9
	c0,0.2,0,0.5,0,0.7l-0.1,0.7c-0.3,1.6-0.5,3.2-0.6,4.8c0,1.2,0.2,2.4,0.6,3.4c1.4,2.5,3.1,4.9,5.1,7l0.1,0.1l0,0l0.4,0.5l0.1-0.6
	c0,0,0.3-3,0.3-5.5c0-1-0.1-2-0.3-2.9c-0.2-0.9-0.6-2.5-1.1-4.8l0.2-0.1c2.3,3.6,4.2,7.5,5.7,11.5c-0.1,1.6-0.4,4-1,5l-0.4,0.8
	c-1.1,1.8-2.6,4.5-2.7,7.1c0,0.1,0,0.3,0,0.4c0.4,2.8,1.1,5.6,2.2,8.3l0.1,0.2l0.2,0.6l0.3-0.5l0.1-0.2c1.7-3.5,2.7-6.2,2.9-7.7
	c0.1-0.9,0.3-2.6,0.6-4.9h0.2c0.9,4.2,1.3,8.5,1.4,12.8C172.9,79.5,172.7,79.8,172.6,80.1z"/>
<path class="st0" d="M109.2,27.5c-28.2,0-51,22.8-51,51s22.8,51,51,51s51-22.8,51-51S137.4,27.5,109.2,27.5L109.2,27.5z
	 M110.5,121.1c-14.1,0-17.7-6.7-17.7-6.7c13.9,3.8,23.3,0.2,23.3,0.2c0.3-2.5-6.2-3.3-17.7-3.3s-17.7-6.3-20-12.5s1.9-19.2,1.9-19.2
	c1.7,20.2,27.4,21.3,33.7,21.3s8.9,10.8,8.9,10.8l1.6-2.2c0-8.3-6.5-12.8-15.4-14.6S85,84.7,84.7,72.5s9.3-19,9.3-19
	c-1.9,22.5,15.2,26.1,27,32.6s8.9,19.5,8.9,19.5c2.1-2.1,2.7-5.2,2.7-10.3c0-12.9-31.7-21.1-31.7-38s8.2-21.5,8.2-21.5
	c0,5.5,4.1,11.8,8.9,16.6s23.1,17.7,23.1,36.7S124.6,121.1,110.5,121.1z"/>
<g>
	<path d="M8.9,184v33.4H4.4v-37.4h14.1v4H8.9z"/>
	<path d="M55.2,211.4c-1.5,4.9-3.6,5.9-8.8,5.9v-4c3,0,4.2-0.8,5.1-3.9l1.2-4.2l-8-25.3h4.9l5.2,19.1l5.1-19.1h4.9L55.2,211.4z"/>
	<path d="M89.1,201.7h-3.9v15.6h-4.5v-37.4h8.4c5.7,0,8.9,2.6,8.9,10.9C98,199.1,94.7,201.7,89.1,201.7z M89,184h-3.7v13.7H89
		c3,0,4.5-1.8,4.5-6.8C93.5,185.8,92,184,89,184z"/>
	<path d="M117.7,217.4v-26l-9.1,26h-4.2v-37.4h4.5v26l9.2-26h4.2v37.4H117.7z"/>
	<path d="M138.6,184v33.4h-4.5V184h-6.3v-4h17.1v4H138.6z"/>
	<path d="M159.3,211.4c-1.5,4.9-3.6,5.9-8.8,5.9v-4c3,0,4.2-0.8,5.1-3.9l1.2-4.2l-8-25.3h4.9L159,199l5.1-19.1h4.9L159.3,211.4z"/>
	<path d="M185.4,217.4l-1.8-8.8h-8.7l-1.8,8.8h-4.7l8.7-37.4h4.4l8.7,37.4H185.4z M179.3,187.2l-3.5,17.2h7L179.3,187.2z"/>
	<path d="M209.5,217.4V184h-6.7v16.6c0,15.3-4,16.8-8.7,16.8h-1.3v-4h0.5c2.7,0,5.3-0.7,5.3-13.5v-19.9h15.6v37.4H209.5z"/>
	<g>
		<path d="M31.6,217.1h-8.5v-37.3h15.8v4H27.6v11.4h4c5.7,0,9,2.7,9,10.9C40.5,214.4,37.2,217.1,31.6,217.1z M31.5,199.3h-3.9v13.8
			h3.9c2.9,0,4.5-1.9,4.5-6.9C36,201.2,34.5,199.3,31.5,199.3z"/>
	</g>
</g>
</svg>
