<svg width="789" height="812" viewBox="0 0 789 812" fill="none" xmlns="http://www.w3.org/2000/svg">
<rect x="0.621216" y="389.615" width="777.898" height="777.898" rx="176.324" transform="rotate(-30 0.621216 389.615)" fill="url(#paint0_linear_268_2)"/>
<rect x="0.621216" y="389.615" width="777.898" height="777.898" rx="176.324" transform="rotate(-30 0.621216 389.615)" fill="url(#paint1_linear_268_2)"/>
<g opacity="0.16" filter="url(#filter0_f_268_2)">
<path d="M642.283 574.175C642.602 576.546 643.099 578.89 643.771 581.189L643.807 581.535C647.781 596.075 656.865 608.723 669.355 617.107C681.844 625.49 696.879 629.031 711.637 627.065C721.301 625.802 730.485 622.193 738.405 616.548L738.528 616.476C747.337 610.203 754.299 601.656 758.698 591.715C763.098 581.773 764.776 570.795 763.561 559.907C762.346 549.019 758.282 538.614 751.785 529.761C745.289 520.907 736.594 513.925 726.595 509.53C716.595 505.135 705.651 503.486 694.885 504.752C684.12 506.019 673.922 510.155 665.339 516.737C656.755 523.318 650.096 532.107 646.044 542.201C641.992 552.296 640.694 563.332 642.283 574.175Z" fill="url(#paint2_linear_268_2)"/>
</g>
<path d="M631.912 556.211C632.23 558.581 632.727 560.925 633.399 563.224L633.435 563.57C637.409 578.11 646.494 590.759 658.983 599.142C671.472 607.525 686.507 611.067 701.265 609.101C710.929 607.837 720.114 604.229 728.033 598.583L728.156 598.512C736.965 592.238 743.927 583.692 748.327 573.75C752.726 563.809 754.404 552.83 753.19 541.942C751.975 531.054 747.91 520.649 741.414 511.796C734.917 502.943 726.223 495.96 716.223 491.565C706.223 487.17 695.279 485.521 684.514 486.788C673.749 488.054 663.551 492.19 654.967 498.772C646.384 505.353 639.724 514.142 635.672 524.237C631.62 534.331 630.322 545.367 631.912 556.211Z" fill="url(#paint3_linear_268_2)"/>
<g filter="url(#filter1_d_268_2)">
<rect x="126.948" y="180" width="165.937" height="165.937" rx="37.6123" transform="rotate(15 126.948 180)" fill="url(#paint4_linear_268_2)"/>
<g opacity="0.16" filter="url(#filter2_f_268_2)">
<path d="M192.12 245.74C188.731 246.798 182.966 246.369 180.613 246.22C180.152 246.204 179.695 246.306 179.286 246.516C178.877 246.726 178.528 247.037 178.274 247.42C177.466 248.63 173.765 254.746 172.71 256.308C172.401 256.783 171.941 257.142 171.404 257.327C170.867 257.513 170.283 257.515 169.744 257.333C167.274 256.481 158.02 252.708 156.766 252.258C156.284 252.099 155.767 252.08 155.276 252.205C154.784 252.329 154.339 252.592 153.993 252.961C151.393 255.922 148.759 262.26 148.498 264.327C148.441 264.847 148.548 265.371 148.805 265.827C149.061 266.284 149.454 266.649 149.928 266.873C150.886 267.313 159.145 270.858 160.092 271.264C160.415 271.409 160.703 271.62 160.94 271.882C161.176 272.144 161.355 272.453 161.465 272.788C161.575 273.123 161.614 273.477 161.58 273.827C161.545 274.178 161.438 274.517 161.264 274.824C146.082 301.748 142.097 320.919 167.32 327.677C175.093 329.76 183.116 328.105 190.834 323.954C189.097 321.658 187.909 318.997 187.362 316.176C183.367 318.072 179.493 319.038 176.001 318.629C164.12 317.271 173.941 298.053 185.387 279.512C185.621 279.123 185.977 278.82 186.401 278.652C186.824 278.484 187.291 278.459 187.731 278.581C193.023 280.012 198.417 281.033 203.866 281.636C204.212 281.672 204.562 281.62 204.883 281.484C205.203 281.348 205.483 281.132 205.697 280.858C207.537 278.549 210.321 273.1 210.759 271.322C210.828 271.047 210.84 270.76 210.794 270.48C210.749 270.2 210.647 269.932 210.495 269.691C210.343 269.451 210.144 269.244 209.91 269.082C209.676 268.92 209.411 268.807 209.132 268.749C205.4 267.978 201.481 266.997 197.634 265.966C197.306 265.88 197.004 265.716 196.753 265.489C196.502 265.262 196.31 264.977 196.193 264.66C196.077 264.343 196.038 264.002 196.082 263.668C196.125 263.333 196.249 263.014 196.443 262.737C199.069 258.901 203.558 251.791 204.775 250.051C205.104 249.584 205.319 249.047 205.404 248.482C205.488 247.917 205.439 247.341 205.261 246.797C205.083 246.254 204.78 245.76 204.377 245.353C203.975 244.947 203.482 244.639 202.94 244.455L202.649 244.377C199.514 243.537 195.508 244.759 192.101 245.741" fill="url(#paint5_linear_268_2)"/>
<path d="M195.895 304.624C195.585 305.029 195.306 305.458 195.061 305.906L195.014 305.964C193.421 308.756 192.883 312.034 193.502 315.183C194.122 318.331 195.855 321.133 198.378 323.062C200.026 324.33 201.956 325.171 204.002 325.514L204.031 325.521C206.306 325.904 208.645 325.665 210.809 324.829C212.972 323.993 214.881 322.59 216.34 320.765C217.799 318.939 218.755 316.757 219.111 314.441C219.466 312.126 219.208 309.761 218.363 307.59C217.517 305.419 216.115 303.519 214.3 302.087C212.486 300.654 210.323 299.74 208.036 299.438C205.749 299.136 203.418 299.457 201.285 300.368C199.151 301.28 197.291 302.748 195.895 304.624Z" fill="url(#paint6_linear_268_2)"/>
</g>
</g>
<defs>
<filter id="filter0_f_268_2" x="572.014" y="434.727" width="261.542" height="262.479" filterUnits="userSpaceOnUse" color-interpolation-filters="sRGB">
<feFlood flood-opacity="0" result="BackgroundImageFix"/>
<feBlend mode="normal" in="SourceGraphic" in2="BackgroundImageFix" result="shape"/>
<feGaussianBlur stdDeviation="34.8053" result="effect1_foregroundBlur_268_2"/>
</filter>
<filter id="filter1_d_268_2" x="32.4311" y="158.437" width="306.368" height="306.368" filterUnits="userSpaceOnUse" color-interpolation-filters="sRGB">
<feFlood flood-opacity="0" result="BackgroundImageFix"/>
<feColorMatrix in="SourceAlpha" type="matrix" values="0 0 0 0 0 0 0 0 0 0 0 0 0 0 0 0 0 0 127 0" result="hardAlpha"/>
<feOffset dy="30.0063"/>
<feGaussianBlur stdDeviation="30.0063"/>
<feColorMatrix type="matrix" values="0 0 0 0 0 0 0 0 0 0 0 0 0 0 0 0 0 0 0.2 0"/>
<feBlend mode="overlay" in2="BackgroundImageFix" result="effect1_dropShadow_268_2"/>
<feBlend mode="normal" in="SourceGraphic" in2="effect1_dropShadow_268_2" result="shape"/>
</filter>
<filter id="filter2_f_268_2" x="133.634" y="229.247" width="100.481" height="114.178" filterUnits="userSpaceOnUse" color-interpolation-filters="sRGB">
<feFlood flood-opacity="0" result="BackgroundImageFix"/>
<feBlend mode="normal" in="SourceGraphic" in2="BackgroundImageFix" result="shape"/>
<feGaussianBlur stdDeviation="7.42445" result="effect1_foregroundBlur_268_2"/>
</filter>
<linearGradient id="paint0_linear_268_2" x1="389.57" y1="389.615" x2="389.57" y2="1167.51" gradientUnits="userSpaceOnUse">
<stop stop-color="#F7BA66"/>
<stop offset="1" stop-color="#F81777"/>
</linearGradient>
<linearGradient id="paint1_linear_268_2" x1="389.57" y1="389.615" x2="389.57" y2="1167.51" gradientUnits="userSpaceOnUse">
<stop stop-color="#8746D1"/>
<stop offset="1" stop-color="#E223B2"/>
</linearGradient>
<linearGradient id="paint2_linear_268_2" x1="619.092" y1="542.848" x2="755.584" y2="634.912" gradientUnits="userSpaceOnUse">
<stop stop-color="#FE624C"/>
<stop offset="1" stop-color="#CA137B"/>
</linearGradient>
<linearGradient id="paint3_linear_268_2" x1="608.72" y1="524.883" x2="745.212" y2="616.947" gradientUnits="userSpaceOnUse">
<stop stop-color="#FE624C"/>
<stop offset="1" stop-color="#CA137B"/>
</linearGradient>
<linearGradient id="paint4_linear_268_2" x1="209.916" y1="180" x2="209.916" y2="345.937" gradientUnits="userSpaceOnUse">
<stop stop-color="#F7BA66"/>
<stop offset="1" stop-color="#F73172"/>
</linearGradient>
<linearGradient id="paint5_linear_268_2" x1="157.063" y1="232.162" x2="133.872" y2="318.715" gradientUnits="userSpaceOnUse">
<stop stop-color="white"/>
<stop offset="0.579955" stop-color="#CFE3FF"/>
<stop offset="1" stop-color="#B8D6FF"/>
</linearGradient>
<linearGradient id="paint6_linear_268_2" x1="197.122" y1="296.4" x2="203.823" y2="330.875" gradientUnits="userSpaceOnUse">
<stop stop-color="#FE624C"/>
<stop offset="1" stop-color="#CA137B"/>
</linearGradient>
</defs>
</svg>
