<svg width="482" height="482" viewBox="0 0 482 482" fill="none" xmlns="http://www.w3.org/2000/svg">
<rect x="101.703" width="392.952" height="392.952" rx="89.0691" transform="rotate(15 101.703 0)" fill="url(#paint0_linear_45_4)"/>
<g opacity="0.4">
<rect x="120.538" y="32.6227" width="339.679" height="339.679" transform="rotate(15 120.538 32.6227)" stroke="white" stroke-width="0.879087"/>
<circle cx="240.633" cy="240.633" r="169.84" transform="rotate(15 240.633 240.633)" stroke="white" stroke-width="0.879087"/>
<circle cx="240.633" cy="240.633" r="105.658" transform="rotate(15 240.633 240.633)" stroke="white" stroke-width="0.879087"/>
<line x1="221.058" y1="31.9808" x2="119.354" y2="411.543" stroke="white" stroke-width="0.879087"/>
<line x1="291.909" y1="50.9655" x2="190.206" y2="430.528" stroke="white" stroke-width="0.879087"/>
<line x1="362.761" y1="69.9501" x2="261.057" y2="449.513" stroke="white" stroke-width="0.879087"/>
<line x1="449.285" y1="221.058" x2="69.7226" y2="119.354" stroke="white" stroke-width="0.879087"/>
<line x1="430.3" y1="291.909" x2="50.7379" y2="190.206" stroke="white" stroke-width="0.879087"/>
<line x1="411.316" y1="362.761" x2="31.7533" y2="261.057" stroke="white" stroke-width="0.879087"/>
<line x1="120.608" y1="31.8646" x2="361.419" y2="448.962" stroke="white" stroke-width="0.879314"/>
<line x1="449.401" y1="120.608" x2="32.3042" y2="361.419" stroke="white" stroke-width="0.879087"/>
</g>
<rect x="121.16" y="33.6994" width="337.921" height="337.921" rx="87.7505" transform="rotate(15 121.16 33.6994)" stroke="white" stroke-width="2.63726"/>
<path d="M267.689 284.998C266.956 285.959 266.296 286.974 265.715 288.035L265.604 288.171C261.83 294.784 260.557 302.547 262.024 310.003C263.49 317.458 267.596 324.094 273.569 328.663C277.472 331.663 282.042 333.655 286.887 334.467L286.957 334.486C292.344 335.391 297.884 334.825 303.006 332.846C308.129 330.866 312.65 327.544 316.105 323.221C319.56 318.898 321.825 313.73 322.667 308.247C323.508 302.764 322.897 297.164 320.895 292.023C318.893 286.881 315.573 282.383 311.275 278.99C306.978 275.597 301.857 273.432 296.441 272.717C291.024 272.002 285.506 272.762 280.453 274.921C275.4 277.079 270.994 280.557 267.689 284.998Z" fill="url(#paint1_linear_45_4)" fill-opacity="0.4"/>
<path d="M267.689 284.998C266.956 285.959 266.296 286.974 265.715 288.035L265.604 288.171C261.83 294.784 260.557 302.547 262.024 310.003C263.49 317.458 267.596 324.094 273.569 328.663C277.472 331.663 282.042 333.655 286.887 334.467L286.957 334.486C292.344 335.391 297.884 334.825 303.006 332.846C308.129 330.866 312.65 327.544 316.105 323.221C319.56 318.898 321.825 313.73 322.667 308.247C323.508 302.764 322.897 297.164 320.895 292.023C318.893 286.881 315.573 282.383 311.275 278.99C306.978 275.597 301.857 273.432 296.441 272.717C291.024 272.002 285.506 272.762 280.453 274.921C275.4 277.079 270.994 280.557 267.689 284.998" stroke="white" stroke-width="2.63726" stroke-linecap="round" stroke-linejoin="round"/>
<defs>
<linearGradient id="paint0_linear_45_4" x1="298.179" y1="0" x2="298.179" y2="392.952" gradientUnits="userSpaceOnUse">
<stop stop-color="#03B1FC"/>
<stop offset="1" stop-color="#006BF3"/>
</linearGradient>
<linearGradient id="paint1_linear_45_4" x1="270.595" y1="265.525" x2="286.464" y2="347.163" gradientUnits="userSpaceOnUse">
<stop stop-color="white" stop-opacity="0"/>
<stop offset="1" stop-color="white"/>
</linearGradient>
</defs>
</svg>
