<svg width="345" height="306" viewBox="0 0 345 306" fill="none" xmlns="http://www.w3.org/2000/svg">
<rect y="35.0364" width="135.37" height="135.37" rx="30.684" transform="rotate(-15 0 35.0364)" fill="url(#paint0_linear_268_3)"/>
<path d="M98.6105 91.4728C98.5573 91.8856 98.5353 92.3021 98.5447 92.7187L98.5351 92.7785C98.5483 95.4015 99.5056 97.9368 101.227 99.9085C102.949 101.88 105.317 103.153 107.886 103.487C109.567 103.71 111.274 103.517 112.859 102.924L112.883 102.918C114.646 102.26 116.202 101.137 117.389 99.6644C118.576 98.1914 119.353 96.4216 119.639 94.5368C119.925 92.6519 119.711 90.7199 119.017 88.9391C118.324 87.1583 117.177 85.593 115.694 84.4038C114.211 83.2147 112.446 82.4446 110.579 82.1726C108.713 81.9007 106.812 82.1366 105.073 82.8563C103.334 83.576 101.819 84.7534 100.683 86.2677C99.5471 87.782 98.8318 89.5785 98.6105 91.4728Z" fill="url(#paint1_linear_268_3)"/>
<rect x="273" y="249.18" width="58.649" height="58.649" rx="13.2938" transform="rotate(-15 273 249.18)" fill="url(#paint2_linear_268_3)"/>
<g opacity="0.16" filter="url(#filter0_f_268_3)">
<path d="M304.566 257.785C303.716 258.707 301.875 259.595 301.129 259.965C300.985 260.042 300.863 260.154 300.775 260.29C300.687 260.427 300.635 260.584 300.625 260.746C300.592 261.259 300.54 263.785 300.493 264.449C300.482 264.65 300.405 264.841 300.273 264.992C300.141 265.144 299.963 265.248 299.766 265.287C298.859 265.463 295.36 265.944 294.896 266.027C294.721 266.064 294.559 266.15 294.431 266.275C294.303 266.399 294.213 266.558 294.172 266.732C293.899 268.099 294.213 270.504 294.499 271.183C294.573 271.352 294.699 271.493 294.858 271.588C295.017 271.682 295.202 271.725 295.386 271.709C295.757 271.675 298.912 271.3 299.274 271.257C299.398 271.245 299.523 271.258 299.642 271.297C299.761 271.335 299.87 271.398 299.963 271.481C300.056 271.564 300.131 271.665 300.182 271.779C300.233 271.892 300.26 272.015 300.261 272.14C300.372 283.064 302.54 289.636 311.455 287.247C314.203 286.511 316.366 284.587 317.995 281.952C317.057 281.556 316.224 280.952 315.557 280.185C314.67 281.472 313.655 282.452 312.513 282.944C308.637 284.628 308.247 277.01 308.474 269.312C308.477 269.151 308.532 268.996 308.632 268.869C308.732 268.743 308.87 268.653 309.026 268.612C310.899 268.115 312.731 267.475 314.505 266.696C314.618 266.646 314.715 266.568 314.789 266.47C314.863 266.372 314.911 266.256 314.928 266.135C315.083 265.103 314.973 262.943 314.793 262.321C314.765 262.225 314.718 262.135 314.654 262.057C314.591 261.979 314.512 261.915 314.423 261.869C314.334 261.822 314.237 261.794 314.137 261.785C314.036 261.777 313.935 261.789 313.84 261.821C312.561 262.244 311.188 262.637 309.828 263.001C309.713 263.033 309.591 263.036 309.475 263.011C309.358 262.985 309.249 262.932 309.157 262.856C309.065 262.779 308.993 262.682 308.947 262.572C308.901 262.462 308.883 262.342 308.893 262.223C309.019 260.585 309.137 257.616 309.202 256.868C309.22 256.667 309.191 256.464 309.117 256.276C309.043 256.089 308.926 255.921 308.776 255.786C308.625 255.651 308.445 255.553 308.25 255.5C308.055 255.447 307.85 255.44 307.651 255.479L307.548 255.507C306.44 255.804 305.43 256.885 304.561 257.788" fill="url(#paint3_linear_268_3)"/>
<path d="M316.128 275.141C316.105 275.32 316.095 275.501 316.099 275.681L316.095 275.707C316.101 276.843 316.515 277.942 317.261 278.796C318.007 279.65 319.033 280.201 320.146 280.346C320.875 280.443 321.614 280.359 322.301 280.103L322.311 280.1C323.075 279.815 323.749 279.328 324.263 278.69C324.778 278.052 325.114 277.285 325.238 276.469C325.362 275.652 325.269 274.815 324.969 274.044C324.669 273.272 324.172 272.594 323.529 272.079C322.887 271.563 322.122 271.23 321.313 271.112C320.504 270.994 319.681 271.096 318.928 271.408C318.174 271.72 317.518 272.23 317.025 272.886C316.533 273.542 316.224 274.321 316.128 275.141Z" fill="url(#paint4_linear_268_3)"/>
</g>
<path d="M315.723 273.63C315.7 273.809 315.69 273.99 315.694 274.17L315.69 274.196C315.696 275.333 316.111 276.431 316.857 277.285C317.603 278.139 318.628 278.691 319.741 278.836C320.47 278.932 321.209 278.849 321.896 278.592L321.906 278.589C322.67 278.304 323.344 277.818 323.859 277.179C324.373 276.541 324.709 275.775 324.833 274.958C324.957 274.141 324.864 273.304 324.564 272.533C324.264 271.761 323.767 271.083 323.124 270.568C322.482 270.053 321.717 269.719 320.908 269.601C320.1 269.483 319.276 269.586 318.523 269.897C317.769 270.209 317.113 270.719 316.621 271.375C316.129 272.031 315.819 272.81 315.723 273.63Z" fill="url(#paint5_linear_268_3)"/>
<defs>
<filter id="filter0_f_268_3" x="288.819" y="250.206" width="41.7206" height="42.7789" filterUnits="userSpaceOnUse" color-interpolation-filters="sRGB">
<feFlood flood-opacity="0" result="BackgroundImageFix"/>
<feBlend mode="normal" in="SourceGraphic" in2="BackgroundImageFix" result="shape"/>
<feGaussianBlur stdDeviation="2.62412" result="effect1_foregroundBlur_268_3"/>
</filter>
<linearGradient id="paint0_linear_268_3" x1="67.6852" y1="35.0364" x2="67.6852" y2="170.407" gradientUnits="userSpaceOnUse">
<stop stop-color="#F6187B"/>
<stop offset="1" stop-color="#A83AD2"/>
</linearGradient>
<linearGradient id="paint1_linear_268_3" x1="96.1233" y1="85.1624" x2="114.92" y2="106.785" gradientUnits="userSpaceOnUse">
<stop stop-color="#FE624C"/>
<stop offset="1" stop-color="#CA137B"/>
</linearGradient>
<linearGradient id="paint2_linear_268_3" x1="302.325" y1="249.18" x2="302.325" y2="307.829" gradientUnits="userSpaceOnUse">
<stop stop-color="#8447D1"/>
<stop offset="1" stop-color="#D726C0"/>
</linearGradient>
<linearGradient id="paint3_linear_268_3" x1="291.436" y1="259.824" x2="299.633" y2="290.415" gradientUnits="userSpaceOnUse">
<stop stop-color="white"/>
<stop offset="0.579955" stop-color="#CFE3FF"/>
<stop offset="1" stop-color="#B8D6FF"/>
</linearGradient>
<linearGradient id="paint4_linear_268_3" x1="315.05" y1="272.407" x2="323.194" y2="281.775" gradientUnits="userSpaceOnUse">
<stop stop-color="#FE624C"/>
<stop offset="1" stop-color="#CA137B"/>
</linearGradient>
<linearGradient id="paint5_linear_268_3" x1="314.645" y1="270.896" x2="322.789" y2="280.264" gradientUnits="userSpaceOnUse">
<stop stop-color="#FE624C"/>
<stop offset="1" stop-color="#CA137B"/>
</linearGradient>
</defs>
</svg>
