<svg width="225" height="230" viewBox="0 0 225 230" fill="none" xmlns="http://www.w3.org/2000/svg">
<g filter="url(#filter0_d_45_50)">
<rect x="3" y="80" width="160" height="160" rx="36.2667" transform="rotate(-30 3 80)" fill="url(#paint0_linear_45_50)"/>
<g opacity="0.16" filter="url(#filter1_f_45_50)">
<path d="M92.2578 80.3871C90.6681 83.4187 86.4448 87.0572 84.7392 88.5602C84.4143 88.8633 84.1723 89.2441 84.0363 89.6664C83.9004 90.0887 83.8749 90.5383 83.9623 90.9725C84.2366 92.3484 85.8833 99.0415 86.2292 100.826C86.3419 101.361 86.273 101.919 86.0333 102.412C85.7936 102.904 85.3968 103.304 84.9053 103.547C82.6403 104.651 73.7583 108.388 72.5964 108.936C72.1595 109.156 71.7945 109.496 71.5444 109.915C71.2944 110.335 71.1699 110.818 71.1855 111.305C71.4314 115.097 73.9572 121.215 75.1884 122.802C75.504 123.195 75.9348 123.479 76.4207 123.615C76.9066 123.751 77.4236 123.733 77.8994 123.562C78.8525 123.209 86.9002 119.995 87.8231 119.626C88.1419 119.505 88.4822 119.452 88.8223 119.47C89.1623 119.488 89.4947 119.576 89.7982 119.729C90.1018 119.882 90.3698 120.097 90.5852 120.36C90.8006 120.622 90.9587 120.927 91.0494 121.254C99.0552 149.963 109.409 165.751 131.215 153.161C137.934 149.282 142.276 142.684 144.707 134.59C141.958 134.21 139.334 133.205 137.037 131.654C135.606 135.672 133.624 138.971 130.963 141.073C121.938 148.248 115.531 128.45 110.693 108.004C110.587 107.578 110.624 107.13 110.798 106.726C110.972 106.323 111.273 105.987 111.656 105.771C116.24 103.138 120.614 100.156 124.74 96.8527C125.001 96.641 125.204 96.3666 125.329 96.0555C125.455 95.7443 125.5 95.4066 125.458 95.0742C125.139 92.2447 123.322 86.6318 122.408 85.1205C122.267 84.8862 122.08 84.6829 121.858 84.5228C121.636 84.3628 121.383 84.2492 121.116 84.189C120.849 84.1288 120.572 84.1232 120.302 84.1725C120.032 84.2217 119.774 84.3249 119.545 84.4758C116.474 86.4943 113.134 88.4977 109.807 90.4181C109.525 90.5828 109.208 90.6771 108.882 90.693C108.555 90.7089 108.231 90.6459 107.935 90.5094C107.639 90.3729 107.38 90.1668 107.182 89.9089C106.983 89.651 106.85 89.3487 106.794 89.028C105.968 84.6224 104.182 76.7146 103.825 74.6977C103.731 74.155 103.511 73.6421 103.184 73.1995C102.857 72.757 102.43 72.397 101.938 72.1482C101.447 71.8993 100.903 71.7685 100.351 71.766C99.7991 71.7635 99.2537 71.8894 98.7582 72.1337L98.5066 72.2789C95.7963 73.8437 93.8983 77.408 92.2453 80.4011" fill="url(#paint1_linear_45_50)"/>
<path d="M134.979 117.961C135.044 118.448 135.146 118.931 135.285 119.403L135.292 119.475C136.109 122.465 137.978 125.067 140.547 126.791C143.116 128.515 146.208 129.244 149.243 128.839C151.231 128.58 153.12 127.837 154.749 126.676L154.774 126.661C156.586 125.371 158.018 123.613 158.923 121.568C159.828 119.524 160.173 117.266 159.923 115.026C159.674 112.787 158.838 110.647 157.501 108.826C156.165 107.005 154.377 105.568 152.32 104.664C150.263 103.76 148.012 103.421 145.798 103.682C143.584 103.942 141.486 104.793 139.721 106.147C137.955 107.5 136.586 109.308 135.752 111.384C134.919 113.461 134.652 115.73 134.979 117.961Z" fill="url(#paint2_linear_45_50)"/>
</g>
<path d="M132.845 114.266C132.911 114.753 133.013 115.235 133.151 115.708L133.159 115.779C133.976 118.77 135.845 121.372 138.413 123.096C140.982 124.82 144.075 125.549 147.11 125.144C149.098 124.884 150.987 124.142 152.616 122.981L152.641 122.966C154.453 121.676 155.885 119.918 156.79 117.873C157.695 115.828 158.04 113.57 157.79 111.331C157.54 109.091 156.704 106.951 155.368 105.13C154.032 103.309 152.243 101.873 150.187 100.969C148.13 100.065 145.879 99.7261 143.665 99.9866C141.45 100.247 139.353 101.098 137.587 102.452C135.822 103.805 134.452 105.613 133.619 107.689C132.785 109.765 132.518 112.035 132.845 114.266Z" fill="url(#paint3_linear_45_50)"/>
</g>
<defs>
<filter id="filter0_d_45_50" x="0.268463" y="5.26846" width="224.027" height="224.027" filterUnits="userSpaceOnUse" color-interpolation-filters="sRGB">
<feFlood flood-opacity="0" result="BackgroundImageFix"/>
<feColorMatrix in="SourceAlpha" type="matrix" values="0 0 0 0 0 0 0 0 0 0 0 0 0 0 0 0 0 0 127 0" result="hardAlpha"/>
<feOffset dy="8"/>
<feGaussianBlur stdDeviation="8"/>
<feColorMatrix type="matrix" values="0 0 0 0 0 0 0 0 0 0 0 0 0 0 0 0 0 0 0.08 0"/>
<feBlend mode="overlay" in2="BackgroundImageFix" result="effect1_dropShadow_45_50"/>
<feBlend mode="normal" in="SourceGraphic" in2="effect1_dropShadow_45_50" result="shape"/>
</filter>
<filter id="filter1_f_45_50" x="56.8665" y="57.4483" width="117.454" height="114.406" filterUnits="userSpaceOnUse" color-interpolation-filters="sRGB">
<feFlood flood-opacity="0" result="BackgroundImageFix"/>
<feBlend mode="normal" in="SourceGraphic" in2="BackgroundImageFix" result="shape"/>
<feGaussianBlur stdDeviation="7.15884" result="effect1_foregroundBlur_45_50"/>
</filter>
<linearGradient id="paint0_linear_45_50" x1="83" y1="80" x2="83" y2="240" gradientUnits="userSpaceOnUse">
<stop stop-color="#F7BA66"/>
<stop offset="1" stop-color="#F73172"/>
</linearGradient>
<linearGradient id="paint1_linear_45_50" x1="59.0981" y1="95.0315" x2="102.298" y2="169.856" gradientUnits="userSpaceOnUse">
<stop stop-color="white"/>
<stop offset="0.579955" stop-color="#CFE3FF"/>
<stop offset="1" stop-color="#B8D6FF"/>
</linearGradient>
<linearGradient id="paint2_linear_45_50" x1="130.209" y1="111.517" x2="158.283" y2="130.453" gradientUnits="userSpaceOnUse">
<stop stop-color="#FE624C"/>
<stop offset="1" stop-color="#CA137B"/>
</linearGradient>
<linearGradient id="paint3_linear_45_50" x1="128.075" y1="107.822" x2="156.149" y2="126.758" gradientUnits="userSpaceOnUse">
<stop stop-color="#FE624C"/>
<stop offset="1" stop-color="#CA137B"/>
</linearGradient>
</defs>
</svg>
