<svg width="109" height="109" viewBox="0 0 109 109" fill="none" xmlns="http://www.w3.org/2000/svg">
<rect x="22.9763" width="88.7738" height="88.7738" rx="20.1221" transform="rotate(15 22.9763 0)" fill="url(#paint0_linear_45_26)"/>
<g opacity="0.16" filter="url(#filter0_f_45_26)">
<path d="M59.8627 66.6722C59.6971 66.8891 59.5481 67.1185 59.4168 67.3582L59.3917 67.389C58.5392 68.8829 58.2515 70.6367 58.5829 72.321C58.9142 74.0054 59.8417 75.5044 61.1912 76.5366C62.073 77.2145 63.1054 77.6645 64.2 77.8479L64.2157 77.8521C65.4328 78.0567 66.6842 77.9289 67.8415 77.4816C68.9987 77.0344 70.0201 76.284 70.8006 75.3073C71.5812 74.3307 72.0929 73.1631 72.283 71.9244C72.4732 70.6858 72.3351 69.4207 71.8828 68.2591C71.4305 67.0975 70.6804 66.0813 69.7095 65.3148C68.7386 64.5483 67.5819 64.0592 66.3582 63.8976C65.1345 63.7361 63.8878 63.9079 62.7463 64.3955C61.6048 64.8831 60.6095 65.6689 59.8627 66.6722Z" fill="url(#paint1_linear_45_26)"/>
</g>
<path d="M60.4754 64.3855C60.3098 64.6024 60.1607 64.8318 60.0295 65.0715L60.0044 65.1023C59.1518 66.5962 58.8642 68.35 59.1955 70.0343C59.5269 71.7187 60.4544 73.2177 61.8039 74.2499C62.6857 74.9278 63.718 75.3778 64.8127 75.5612L64.8283 75.5654C66.0454 75.77 67.2969 75.6422 68.4541 75.1949C69.6114 74.7477 70.6327 73.9973 71.4133 73.0206C72.1939 72.044 72.7055 70.8764 72.8957 69.6377C73.0859 68.3991 72.9478 67.134 72.4955 65.9724C72.0432 64.8108 71.2931 63.7946 70.3222 63.0281C69.3513 62.2616 68.1946 61.7725 66.9709 61.6109C65.7471 61.4494 64.5005 61.6212 63.359 62.1088C62.2174 62.5964 61.2222 63.3822 60.4754 64.3855Z" fill="url(#paint2_linear_45_26)"/>
<defs>
<filter id="filter0_f_45_26" x="50.5048" y="55.8947" width="29.8052" height="29.9962" filterUnits="userSpaceOnUse" color-interpolation-filters="sRGB">
<feFlood flood-opacity="0" result="BackgroundImageFix"/>
<feBlend mode="normal" in="SourceGraphic" in2="BackgroundImageFix" result="shape"/>
<feGaussianBlur stdDeviation="3.97198" result="effect1_foregroundBlur_45_26"/>
</filter>
<linearGradient id="paint0_linear_45_26" x1="67.3632" y1="0" x2="67.3632" y2="88.7738" gradientUnits="userSpaceOnUse">
<stop stop-color="#F6B063"/>
<stop offset="1" stop-color="#F83967"/>
</linearGradient>
<linearGradient id="paint1_linear_45_26" x1="60.5193" y1="62.2728" x2="64.1043" y2="80.7161" gradientUnits="userSpaceOnUse">
<stop stop-color="#FE624C"/>
<stop offset="1" stop-color="#CA137B"/>
</linearGradient>
<linearGradient id="paint2_linear_45_26" x1="61.132" y1="59.9861" x2="64.717" y2="78.4294" gradientUnits="userSpaceOnUse">
<stop stop-color="#FE624C"/>
<stop offset="1" stop-color="#CA137B"/>
</linearGradient>
</defs>
</svg>
