<svg width="24" height="25" viewBox="0 0 24 25" fill="none" xmlns="http://www.w3.org/2000/svg">
<path fill-rule="evenodd" clip-rule="evenodd" d="M24 8.66998H0V24.67H24V8.66998ZM14.7989 18.058C14.7694 17.8893 14.8289 17.7174 14.9584 17.5985L16.8282 15.9218C16.9821 15.7849 17.0386 15.5765 16.9731 15.3866C16.9036 15.1971 16.7282 15.0597 16.5182 15.0313L14.0335 14.6898C13.854 14.6638 13.6986 14.5562 13.6186 14.4014L12.5092 12.2841C12.4227 12.125 12.2573 12.0184 12.0693 11.9999H11.8588L11.7738 12.0331L11.7193 12.052C11.6893 12.0686 11.6623 12.089 11.6388 12.1136L11.5938 12.1468C11.5533 12.1837 11.5198 12.2273 11.4939 12.2747L10.399 14.4014C10.314 14.5624 10.148 14.6713 9.95905 14.6898L7.47438 15.0313C7.2679 15.0621 7.09693 15.199 7.02993 15.3866C6.96094 15.5746 7.01344 15.783 7.16442 15.9218L8.96968 17.5796C9.09916 17.7003 9.15866 17.8732 9.12916 18.0433L8.68422 20.3736C8.63572 20.6555 8.8332 20.9226 9.12916 20.9757C9.25064 20.9941 9.37463 20.9757 9.48411 20.9236L11.6988 19.8242C11.7408 19.8024 11.7868 19.7882 11.8338 19.7816H11.9693C12.0568 19.7839 12.1423 19.8048 12.2193 19.8436L14.4335 20.9378C14.6199 21.0325 14.8474 21.0183 15.0184 20.8999C15.1929 20.7857 15.2809 20.5858 15.2434 20.3883L14.7989 18.058Z" fill="#D4DAE4"/>
<path d="M0 0.5V8H24V0.5H0Z" fill="#1A1A1A"/>
</svg>
