<svg width="28" height="26" viewBox="0 0 28 26" fill="none" xmlns="http://www.w3.org/2000/svg">
<path opacity="0.4" d="M9.03974 0.334069C9.87974 0.359615 10.6931 0.506281 11.4811 0.774281H11.5597C11.6131 0.799615 11.6531 0.827615 11.6797 0.852948C11.9744 0.947615 12.2531 1.05428 12.5197 1.20095L13.0264 1.42761C13.2264 1.53428 13.4664 1.73295 13.5997 1.81428C13.7331 1.89295 13.8797 1.97428 13.9997 2.06628C15.4811 0.934281 17.2797 0.320948 19.1331 0.334069C19.9744 0.334069 20.8144 0.452948 21.6131 0.720948C26.5344 2.32095 28.3077 7.72095 26.8264 12.4409C25.9864 14.8529 24.6131 17.0543 22.8144 18.8529C20.2397 21.3463 17.4144 23.5596 14.3731 25.4663L14.0397 25.6676L13.6931 25.4529C10.6411 23.5596 7.79974 21.3463 5.20107 18.8396C3.4144 17.0409 2.03974 14.8529 1.1864 12.4409C-0.320263 7.72095 1.45307 2.32095 6.42774 0.692948C6.8144 0.559615 7.21307 0.466281 7.61307 0.414281H7.77307C8.14774 0.359615 8.51974 0.334069 8.89307 0.334069H9.03974ZM20.9197 4.54761C20.3731 4.35961 19.7731 4.65428 19.5731 5.21428C19.3864 5.77428 19.6797 6.38761 20.2397 6.58628C21.0944 6.90628 21.6664 7.74761 21.6664 8.67961V8.72095C21.6411 9.02628 21.7331 9.32095 21.9197 9.54761C22.1064 9.77428 22.3864 9.90628 22.6797 9.93428C23.2264 9.91961 23.6931 9.48095 23.7331 8.91961V8.76095C23.7731 6.89295 22.6411 5.20095 20.9197 4.54761Z" fill="#5BBB35"/>
<path d="M18.093 4.06304C18.425 3.24001 19.421 2.80694 20.3284 3.08325C23.1856 4.04345 25.0646 6.53017 24.9982 9.27556V9.50875C24.9318 10.3337 24.1572 10.9784 23.2498 11C22.7629 10.9588 22.2981 10.7648 21.9882 10.4317C21.6784 10.0986 21.5257 9.66552 21.5677 9.21677V9.15602C21.5677 7.78627 20.6183 6.54977 19.1996 6.07946C18.2701 5.78748 17.7832 4.88607 18.093 4.06304Z" fill="#5BBB35"/>
</svg>
