<svg width="24" height="28" viewBox="0 0 24 28" fill="none" xmlns="http://www.w3.org/2000/svg">
<path d="M9.28415 23.6372C9.9507 23.4962 14.0123 23.4962 14.6788 23.6372C15.2486 23.7688 15.8648 24.0764 15.8648 24.7478C15.8317 25.387 15.4567 25.9537 14.9386 26.3136C14.2667 26.8373 13.4782 27.169 12.654 27.2885C12.1982 27.3476 11.7503 27.349 11.3103 27.2885C10.4847 27.169 9.69627 26.8373 9.02575 26.3123C8.50629 25.9537 8.13127 25.387 8.09814 24.7478C8.09814 24.0764 8.71434 23.7688 9.28415 23.6372Z" fill="#5BBB35"/>
<path opacity="0.4" d="M12.0603 0.666687C14.8338 0.666687 17.667 1.98271 19.3499 4.16624C20.4418 5.57224 20.9427 6.97689 20.9427 9.16042V9.72846C20.9427 11.403 21.3853 12.3901 22.3593 13.5275C23.0974 14.3654 23.3333 15.4411 23.3333 16.608C23.3333 17.7737 22.9503 18.8802 22.1831 19.7786C21.1786 20.8556 19.762 21.5431 18.3163 21.6627C16.2212 21.8413 14.1248 21.9917 12.0006 21.9917C9.87508 21.9917 7.78002 21.9017 5.68496 21.6627C4.2379 21.5431 2.82132 20.8556 1.81818 19.7786C1.05092 18.8802 0.666626 17.7737 0.666626 16.608C0.666626 15.4411 0.903828 14.3654 1.64061 13.5275C2.64507 12.3901 3.05852 11.403 3.05852 9.72846V9.16042C3.05852 6.91781 3.61773 5.45138 4.76929 4.01584C6.48138 1.92228 9.22576 0.666687 11.941 0.666687H12.0603Z" fill="#5BBB35"/>
</svg>
