<svg xmlns="http://www.w3.org/2000/svg" fill="none" viewBox="3 3 25.33 25.33">
<path fill-rule="evenodd" clip-rule="evenodd" d="M4.06622 12.426L10.9234 4.76211C8.8699 2.63129 7.8218 1.98851 4.43193 5.3786C4.40478 5.41236 4.35813 5.45793 4.29783 5.51682C3.71098 6.08999 1.83185 7.9253 4.06622 12.426Z" fill="#5BBB35"/>
<path opacity="0.4" fill-rule="evenodd" clip-rule="evenodd" d="M5.13745 14.2877C6.30365 16.0862 8.04336 18.2242 10.5795 20.7596C21.3929 31.57 24.9753 27.8999 25.8204 27.0342C25.8794 26.9737 25.9251 26.9268 25.959 26.8996C29.587 23.2726 28.5895 22.3237 26.0866 19.943C25.7358 19.6094 25.3555 19.2476 24.9542 18.8464C23.4514 17.3447 22.3778 17.7207 21.1837 18.1391C19.687 18.6634 18.0008 19.2542 15.0423 16.2965C12.084 13.3391 12.6733 11.6521 13.1964 10.1546C13.6137 8.95978 13.9889 7.88565 12.486 6.38311C12.437 6.33411 12.3885 6.28542 12.3407 6.23706L5.13745 14.2877Z" fill="#5BBB35"/>
</svg>