<svg width="26" height="28" viewBox="0 0 26 28" fill="none" xmlns="http://www.w3.org/2000/svg">
<path opacity="0.4" d="M13.9561 0.666779C14.9644 0.666779 15.8774 1.22678 16.3815 2.05345C16.6268 2.45345 16.7903 2.94678 16.7494 3.46678C16.7222 3.86678 16.8448 4.26678 17.0628 4.64011C17.7578 5.77345 19.2975 6.20011 20.4966 5.56011C21.8456 4.78678 23.5489 5.25345 24.3256 6.57345L25.2385 8.14678C26.0288 9.46678 25.5928 11.1601 24.2302 11.9201C23.072 12.6001 22.6632 14.1068 23.3581 15.2534C23.5761 15.6134 23.8214 15.9201 24.2029 16.1068C24.6798 16.3601 25.0477 16.7601 25.3066 17.1601C25.8108 17.9868 25.7699 19.0001 25.2794 19.8934L24.3256 21.4934C23.8214 22.3468 22.8812 22.8801 21.9137 22.8801C21.4368 22.8801 20.9054 22.7468 20.4694 22.4801C20.1151 22.2534 19.7063 22.1734 19.2703 22.1734C17.9213 22.1734 16.7903 23.2801 16.7494 24.6001C16.7494 26.1334 15.4958 27.3334 13.9288 27.3334H12.0757C10.4951 27.3334 9.24147 26.1334 9.24147 24.6001C9.21422 23.2801 8.08325 22.1734 6.73427 22.1734C6.2846 22.1734 5.87582 22.2534 5.53517 22.4801C5.09913 22.7468 4.55409 22.8801 4.0908 22.8801C3.10972 22.8801 2.16952 22.3468 1.66536 21.4934L0.725156 19.8934C0.220991 19.0268 0.193738 17.9868 0.697904 17.1601C0.915922 16.7601 1.3247 16.3601 1.78799 16.1068C2.16952 15.9201 2.41479 15.6134 2.64644 15.2534C3.32774 14.1068 2.91896 12.6001 1.76074 11.9201C0.411756 11.1601 -0.0242791 9.46678 0.752408 8.14678L1.66536 6.57345C2.45567 5.25345 4.14531 4.78678 5.50792 5.56011C6.69339 6.20011 8.23314 5.77345 8.92807 4.64011C9.14608 4.26678 9.26872 3.86678 9.24147 3.46678C9.21422 2.94678 9.3641 2.45345 9.623 2.05345C10.1272 1.22678 11.0401 0.693445 12.0348 0.666779H13.9561ZM13.0159 10.2401C10.8766 10.2401 9.14608 11.9201 9.14608 14.0134C9.14608 16.1068 10.8766 17.7734 13.0159 17.7734C15.1552 17.7734 16.8448 16.1068 16.8448 14.0134C16.8448 11.9201 15.1552 10.2401 13.0159 10.2401Z" fill="#5BBB35"/>
</svg>
