<?xml version="1.0" standalone="no"?>
<!DOCTYPE svg PUBLIC "-//W3C//DTD SVG 20010904//EN"
 "http://www.w3.org/TR/2001/REC-SVG-20010904/DTD/svg10.dtd">
<svg version="1.0" xmlns="http://www.w3.org/2000/svg"
 width="512.000000pt" height="512.000000pt" viewBox="0 0 512.000000 512.000000"
 preserveAspectRatio="xMidYMid meet">

<g transform="translate(0.000000,512.000000) scale(0.100000,-0.100000)"
fill="#000000" stroke="none">
<path d="M2335 4944 c-206 -34 -446 -137 -606 -258 -166 -126 -323 -312 -412
-492 -47 -94 -100 -248 -123 -359 -26 -124 -26 -395 -1 -515 41 -193 112 -364
216 -520 61 -92 204 -247 282 -307 58 -44 68 -35 -106 -88 -403 -124 -856
-392 -1116 -661 -119 -124 -198 -255 -253 -419 -52 -154 -56 -209 -56 -706 l0
-459 2401 0 2401 0 -5 483 c-4 443 -6 489 -25 567 -73 303 -218 510 -512 732
-281 212 -570 361 -907 468 -73 23 -133 43 -133 44 0 2 36 33 79 69 238 199
411 505 466 821 19 113 20 347 0 457 -105 604 -579 1065 -1179 1148 -103 15
-312 12 -411 -5z m472 -389 c334 -85 612 -349 716 -680 172 -549 -157 -1135
-718 -1281 -82 -21 -124 -26 -235 -27 -184 -2 -306 26 -465 105 -203 101 -366
270 -465 481 -72 153 -85 218 -85 422 0 158 3 190 23 260 48 166 131 311 246
432 172 182 368 278 641 317 70 10 247 -5 342 -29z m-32 -2386 c566 -42 1084
-246 1497 -588 119 -99 176 -168 233 -286 67 -139 75 -192 75 -494 l0 -261
-2026 0 -2026 0 5 277 c5 315 12 358 90 508 99 191 432 450 788 611 296 135
589 206 974 237 93 8 259 6 390 -4z"/>
</g>
</svg>
