<svg width="48" height="48" viewBox="0 0 48 48" fill="none" xmlns="http://www.w3.org/2000/svg">
<path d="M12 22.2856V42.8571C12 43.7664 12.3612 44.6385 13.0042 45.2814C13.6472 45.9244 14.5193 46.2856 15.4286 46.2856H32.5714C33.4807 46.2856 34.3528 45.9244 34.9958 45.2814C35.6388 44.6385 36 43.7664 36 42.8571V22.2856" fill="#90001A"/>
<path d="M36 22.2858V15.4286C36 14.5193 35.6388 13.6473 34.9958 13.0043C34.3528 12.3613 33.4807 12.0001 32.5714 12.0001C31.6621 12.0001 30.79 11.6388 30.1471 10.9959C29.5041 10.3529 29.1429 9.48081 29.1429 8.5715V6.85721C29.1429 5.49324 28.601 4.18514 27.6365 3.22066C26.6721 2.25619 25.364 1.71436 24 1.71436C22.636 1.71436 21.3279 2.25619 20.3635 3.22066C19.399 4.18514 18.8571 5.49324 18.8571 6.85721V8.5715C18.8571 9.48081 18.4959 10.3529 17.8529 10.9959C17.21 11.6388 16.3379 12.0001 15.4286 12.0001C14.5193 12.0001 13.6472 12.3613 13.0042 13.0043C12.3612 13.6473 12 14.5193 12 15.4286V22.2858" fill="#90001A"/>
<path d="M16.1616 22.1848H31.4349" stroke="#D9D9D9" stroke-width="3" stroke-linecap="round" stroke-linejoin="round"/>
<path d="M25.1274 33H31.1274" stroke="#D9D9D9" stroke-width="3" stroke-linecap="round" stroke-linejoin="round"/>
</svg>
