<svg width="82" height="48" viewBox="0 0 82 48" fill="none" xmlns="http://www.w3.org/2000/svg">
<path d="M67.9514 24.6526C68.2501 23.73 69.5554 23.73 69.8541 24.6526L71.6192 30.1039C71.7528 30.5164 72.137 30.7959 72.5706 30.7959H78.2899C79.2578 30.7959 79.6611 32.0337 78.879 32.6039L74.246 35.9817C73.8968 36.2364 73.7506 36.6866 73.8838 37.0978L75.652 42.5589C75.9505 43.4808 74.8946 44.2458 74.1115 43.6749L69.4919 40.3069C69.1408 40.0509 68.6647 40.0509 68.3136 40.3069L63.694 43.6749C62.911 44.2458 61.855 43.4808 62.1535 42.5589L63.9217 37.0978C64.0549 36.6866 63.9088 36.2364 63.5595 35.9817L58.9265 32.6039C58.1444 32.0337 58.5477 30.7959 59.5156 30.7959H65.2349C65.6685 30.7959 66.0527 30.5164 66.1863 30.1039L67.9514 24.6526Z" fill="#90001A"/>
<path d="M12.1458 24.6526C12.4446 23.73 13.7499 23.73 14.0486 24.6526L15.8137 30.1039C15.9472 30.5164 16.3314 30.7959 16.7651 30.7959H22.4844C23.4523 30.7959 23.8556 32.0337 23.0735 32.6039L18.4405 35.9817C18.0912 36.2364 17.9451 36.6866 18.0782 37.0978L19.8465 42.5589C20.145 43.4808 19.089 44.2458 18.306 43.6749L13.6863 40.3069C13.3353 40.0509 12.8591 40.0509 12.5081 40.3069L7.88845 43.6749C7.10542 44.2458 6.04945 43.4808 6.34796 42.5589L8.1162 37.0978C8.24935 36.6866 8.10322 36.2364 7.75395 35.9817L3.12094 32.6039C2.33885 32.0337 2.74218 30.7959 3.71006 30.7959H9.42939C9.86299 30.7959 10.2472 30.5164 10.3808 30.1039L12.1458 24.6526Z" fill="#90001A"/>
<path d="M40.0486 2.93823C40.3474 2.01562 41.6526 2.01562 41.9514 2.93823L45.3785 13.5226C45.5121 13.9351 45.8963 14.2145 46.3299 14.2145L57.4276 14.2145C58.3955 14.2145 58.7988 15.4524 58.0167 16.0226L49.0325 22.5728C48.6832 22.8274 48.5371 23.2776 48.6702 23.6889L52.1005 34.2829C52.399 35.2049 51.343 35.9699 50.56 35.399L41.5891 28.8586C41.2381 28.6026 40.7619 28.6026 40.4109 28.8586L31.44 35.399C30.657 35.9699 29.601 35.2049 29.8995 34.2829L33.3298 23.6889C33.4629 23.2776 33.3168 22.8274 32.9675 22.5728L23.9833 16.0226C23.2012 15.4524 23.6045 14.2145 24.5724 14.2145L35.6701 14.2145C36.1037 14.2145 36.4879 13.9351 36.6215 13.5226L40.0486 2.93823Z" fill="#90001A"/>
</svg>
