<svg width="95" height="48" viewBox="0 0 95 48" fill="none" xmlns="http://www.w3.org/2000/svg">
<path d="M53.706 2.01685H75.0869C76.221 2.01685 77.3087 2.60118 78.1107 3.6413C78.9126 4.68141 79.3631 6.09212 79.3631 7.56306V35.2942C79.3631 38.2361 78.4621 41.0575 76.8582 43.1377C75.2543 45.2179 73.079 46.3866 70.8107 46.3866H57.9822C55.714 46.3866 53.5386 45.2179 51.9347 43.1377C50.3309 41.0575 49.4298 38.2361 49.4298 35.2942V7.56306C49.4298 6.09212 49.8803 4.68141 50.6823 3.6413C51.4842 2.60118 52.5719 2.01685 53.706 2.01685Z" fill="#90001A"/>
<path d="M81.9266 12.2183H83.5245C85.6434 12.2183 87.6755 13.0918 89.1738 14.6466C90.6721 16.2015 91.5138 18.3103 91.5138 20.5092C91.5138 22.7081 90.6721 24.8169 89.1738 26.3717C87.6755 27.9266 85.6434 28.8001 83.5245 28.8001H81.9266" fill="white" fill-opacity="0.1"/>
<path d="M81.9266 12.2183H83.5245C85.6434 12.2183 87.6755 13.0918 89.1738 14.6466C90.6721 16.2015 91.5138 18.3103 91.5138 20.5092C91.5138 22.7081 90.6721 24.8169 89.1738 26.3717C87.6755 27.9266 85.6434 28.8001 83.5245 28.8001H81.9266" stroke="#90001A" stroke-width="3" stroke-linecap="round" stroke-linejoin="round"/>
<path d="M25.2753 29.1429L8.95468 4.32007C8.78912 4.0619 8.69839 3.76676 8.69168 3.46456C8.68498 3.16236 8.76255 2.86385 8.91652 2.59929C9.07049 2.33474 9.29539 2.11354 9.56842 1.95813C9.84145 1.80272 10.1529 1.71862 10.4712 1.71436H40.0793C40.3976 1.71862 40.7091 1.80272 40.9821 1.95813C41.2551 2.11354 41.48 2.33474 41.634 2.59929C41.788 2.86385 41.8655 3.16236 41.8588 3.46456C41.8521 3.76676 41.7614 4.0619 41.5958 4.32007L25.2753 29.1429Z" fill="#90001A"/>
<path d="M25.2753 27L25.2753 46" stroke="#90001A" stroke-width="3" stroke-linecap="round" stroke-linejoin="round"/>
<path d="M16.2484 46.2856H34.3021" stroke="#90001A" stroke-width="3" stroke-linecap="round" stroke-linejoin="round"/>
</svg>
