<svg width="48" height="48" viewBox="0 0 48 48" fill="none" xmlns="http://www.w3.org/2000/svg">
<path d="M46.2857 23.7944C46.2889 23.3185 46.193 22.8471 46.0042 22.4103C45.8153 21.9735 45.5375 21.5808 45.1886 21.2572L24 1.71436L2.81142 21.2572C2.46248 21.5808 2.18472 21.9735 1.99584 22.4103C1.80695 22.8471 1.71106 23.3185 1.71428 23.7944V42.8572C1.71428 43.7665 2.0755 44.6386 2.71849 45.2816C3.36147 45.9246 4.23354 46.2858 5.14285 46.2858H42.8571C43.7665 46.2858 44.6385 45.9246 45.2815 45.2816C45.9245 44.6386 46.2857 43.7665 46.2857 42.8572V23.7944Z" fill="#90001A"/>
<path d="M24 36.605C28.7339 36.605 32.5714 32.7675 32.5714 28.0336C32.5714 23.2997 28.7339 19.4622 24 19.4622C19.2661 19.4622 15.4286 23.2997 15.4286 28.0336C15.4286 32.7675 19.2661 36.605 24 36.605Z" fill="#D9D9D9"/>
<path d="M9.27731 46.3866C10.8159 43.7999 12.9784 41.6621 15.5567 40.1786C18.1351 38.6952 21.0427 37.916 24 37.916C26.9573 37.916 29.8649 38.6952 32.4433 40.1786C35.0217 41.6621 37.1841 43.7999 38.7227 46.3866" fill="#D9D9D9"/>
</svg>
