<svg width="48" height="48" viewBox="0 0 48 48" fill="none" xmlns="http://www.w3.org/2000/svg">
<path d="M46.012 15.357C45.6639 13.8928 44.9486 12.546 43.9363 11.4487C42.924 10.3515 41.6494 9.5413 40.2376 9.09773C38.8258 8.65416 37.3252 8.5924 35.883 8.91852C34.4407 9.24463 33.1063 9.94741 32.0106 10.958C31.4125 9.28111 30.323 7.83258 28.8899 6.80898C27.4568 5.78539 25.7496 5.23633 24 5.23633C22.2504 5.23633 20.5432 5.78539 19.1101 6.80898C17.6771 7.83258 16.5875 9.28111 15.9894 10.958C14.8938 9.94741 13.5594 9.24463 12.1171 8.91852C10.6748 8.5924 9.17423 8.65416 7.76242 9.09773C6.35061 9.5413 5.07608 10.3515 4.06378 11.4487C3.05149 12.546 2.3362 13.8928 1.98805 15.357C1.71604 16.4996 1.67229 17.6864 1.85938 18.8466C2.04648 20.0068 2.4606 21.1168 3.07709 22.1103C3.69358 23.1039 4.49982 23.9608 5.4478 24.63C6.39579 25.2992 7.46612 25.767 8.59507 26.0055V38.3996C8.59507 39.3255 8.95574 40.2136 9.59773 40.8683C10.2397 41.523 11.1105 41.8909 12.0184 41.8909H35.9817C36.8896 41.8909 37.7603 41.523 38.4023 40.8683C39.0443 40.2136 39.405 39.3255 39.405 38.3996V26.0055C40.5339 25.767 41.6043 25.2992 42.5523 24.63C43.5002 23.9608 44.3065 23.1039 44.923 22.1103C45.5395 21.1168 45.9536 20.0068 46.1407 18.8466C46.3278 17.6864 46.284 16.4996 46.012 15.357Z" fill="#90001A"/>
<path d="M11.3455 45.3818L36.6545 45.3818" stroke="#90001A" stroke-width="3" stroke-linecap="round"/>
</svg>
