<svg width="70" height="48" viewBox="0 0 70 48" fill="none" xmlns="http://www.w3.org/2000/svg">
<path d="M18.4391 7.71436L19.9551 3.90864C20.2108 3.26429 20.6606 2.71005 21.2457 2.31851C21.8307 1.92697 22.5238 1.7164 23.234 1.71436H26.125C26.8352 1.7164 27.5282 1.92697 28.1133 2.31851C28.6983 2.71005 29.1482 3.26429 29.4038 3.90864L30.9199 7.71436L36.0673 10.5944L40.2276 9.97721C40.9203 9.88577 41.6253 9.99667 42.2531 10.2958C42.8809 10.5949 43.403 11.0688 43.7532 11.6572L45.1635 14.0572C45.5248 14.655 45.6913 15.3453 45.641 16.0369C45.5906 16.7286 45.3258 17.3892 44.8814 17.9315L42.3077 21.1201V26.8801L44.9519 30.0686C45.3963 30.6109 45.6611 31.2715 45.7115 31.9632C45.7618 32.6549 45.5953 33.3452 45.234 33.9429L43.8237 36.3429C43.4735 36.9313 42.9514 37.4052 42.3236 37.7043C41.6958 38.0035 40.9908 38.1144 40.2981 38.0229L36.1378 37.4058L30.9904 40.2858L29.4743 44.0915C29.2187 44.7359 28.7689 45.2901 28.1838 45.6816C27.5987 46.0732 26.9057 46.2837 26.1955 46.2858H23.234C22.5238 46.2837 21.8307 46.0732 21.2457 45.6816C20.6606 45.2901 20.2108 44.7359 19.9551 44.0915L18.4391 40.2858L13.2917 37.4058L9.1314 38.0229C8.43867 38.1144 7.73363 38.0035 7.10586 37.7043C6.47809 37.4052 5.95594 36.9313 5.60576 36.3429L4.1955 33.9429C3.83413 33.3452 3.66763 32.6549 3.71799 31.9632C3.76834 31.2715 4.03318 30.6109 4.47755 30.0686L7.05127 26.8801V21.1201L4.40704 17.9315C3.96267 17.3892 3.69783 16.7286 3.64748 16.0369C3.59712 15.3453 3.76362 14.655 4.12499 14.0572L5.53525 11.6572C5.88543 11.0688 6.40758 10.5949 7.03534 10.2958C7.66311 9.99667 8.36816 9.88577 9.06089 9.97721L13.2211 10.5944L18.4391 7.71436ZM17.6282 24.0001C17.6282 25.3563 18.0417 26.682 18.8166 27.8097C19.5914 28.9373 20.6926 29.8162 21.9811 30.3352C23.2695 30.8542 24.6873 30.99 26.0551 30.7255C27.4229 30.4609 28.6793 29.8078 29.6655 28.8488C30.6516 27.8898 31.3232 26.668 31.5953 25.3378C31.8673 24.0077 31.7277 22.6289 31.194 21.376C30.6603 20.123 29.7565 19.052 28.597 18.2986C27.4374 17.5451 26.0741 17.1429 24.6795 17.1429C22.8094 17.1429 21.0158 17.8654 19.6935 19.1513C18.3711 20.4373 17.6282 22.1814 17.6282 24.0001Z" fill="#90001A"/>
<path d="M57.0698 31.1531L57.7037 29.5617C57.8107 29.2922 57.9988 29.0604 58.2434 28.8967C58.4881 28.733 58.7779 28.6449 59.0749 28.644H60.2839C60.5809 28.6449 60.8707 28.733 61.1153 28.8967C61.36 29.0604 61.5481 29.2922 61.655 29.5617L62.289 31.1531L64.4416 32.3575L66.1813 32.0994C66.471 32.0612 66.7658 32.1076 67.0283 32.2326C67.2909 32.3577 67.5092 32.5559 67.6557 32.802L68.2454 33.8056C68.3965 34.0556 68.4661 34.3442 68.4451 34.6335C68.424 34.9227 68.3133 35.199 68.1275 35.4258L67.0512 36.7592V39.1679L68.1569 40.5013C68.3428 40.7281 68.4535 41.0043 68.4746 41.2936C68.4956 41.5828 68.426 41.8715 68.2749 42.1214L67.6851 43.1251C67.5387 43.3711 67.3204 43.5693 67.0578 43.6944C66.7953 43.8195 66.5005 43.8659 66.2108 43.8276L64.471 43.5695L62.3185 44.7739L61.6845 46.3654C61.5776 46.6348 61.3895 46.8666 61.1448 47.0304C60.9002 47.1941 60.6103 47.2821 60.3133 47.283H59.0749C58.7779 47.2821 58.4881 47.1941 58.2434 47.0304C57.9988 46.8666 57.8107 46.6348 57.7037 46.3654L57.0698 44.7739L54.9172 43.5695L53.1775 43.8276C52.8878 43.8659 52.5929 43.8195 52.3304 43.6944C52.0679 43.5693 51.8495 43.3711 51.7031 43.1251L51.1133 42.1214C50.9622 41.8715 50.8926 41.5828 50.9137 41.2936C50.9347 41.0043 51.0455 40.7281 51.2313 40.5013L52.3076 39.1679V36.7592L51.2018 35.4258C51.016 35.199 50.9052 34.9227 50.8842 34.6335C50.8631 34.3442 50.9327 34.0556 51.0839 33.8056L51.6736 32.802C51.82 32.5559 52.0384 32.3577 52.3009 32.2326C52.5634 32.1076 52.8583 32.0612 53.148 32.0994L54.8877 32.3575L57.0698 31.1531ZM56.7307 37.9635C56.7307 38.5307 56.9036 39.0851 57.2276 39.5566C57.5516 40.0282 58.0121 40.3957 58.551 40.6128C59.0898 40.8298 59.6826 40.8866 60.2546 40.776C60.8266 40.6653 61.352 40.3922 61.7644 39.9912C62.1768 39.5901 62.4577 39.0792 62.5714 38.5229C62.6852 37.9667 62.6268 37.3901 62.4036 36.8662C62.1805 36.3422 61.8025 35.8943 61.3176 35.5793C60.8327 35.2642 60.2626 35.096 59.6794 35.096C58.8973 35.096 58.1473 35.3981 57.5943 35.9359C57.0413 36.4736 56.7307 37.203 56.7307 37.9635Z" fill="#90001A"/>
</svg>
