<svg width="48" height="48" viewBox="0 0 48 48" fill="none" xmlns="http://www.w3.org/2000/svg">
<path d="M38.7257 46.3863H9.34311C8.37208 46.3918 7.41081 46.2071 6.52247 45.8444C5.63413 45.4818 4.83885 44.9493 4.18889 44.2821C3.53894 43.6148 3.04904 42.8279 2.7514 41.9731C2.45375 41.1182 2.35511 40.2148 2.46194 39.3222L4.76713 20.5799C4.86068 19.798 5.26407 19.0759 5.89945 18.5529C6.53483 18.0299 7.35715 17.7431 8.20772 17.7479H39.8611C40.7117 17.7431 41.534 18.0299 42.1694 18.5529C42.8047 19.0759 43.2081 19.798 43.3017 20.5799L45.5381 39.3222C45.6442 40.2095 45.5474 41.1075 45.2538 41.9579C44.9603 42.8083 44.4765 43.5921 43.834 44.2583C43.1916 44.9246 42.4047 45.4583 41.5246 45.8249C40.6446 46.1916 39.6909 46.3828 38.7257 46.3863Z" fill="#90001A"/>
<path d="M14 14C14 11.0826 15.0536 8.28473 16.9289 6.22183C18.8043 4.15893 21.3478 3 24 3C26.6522 3 29.1957 4.15893 31.0711 6.22183C32.9464 8.28473 34 11.0826 34 14" fill="white" fill-opacity="0.1"/>
<path d="M14 14C14 11.0826 15.0536 8.28473 16.9289 6.22183C18.8043 4.15893 21.3478 3 24 3C26.6522 3 29.1957 4.15893 31.0711 6.22183C32.9464 8.28473 34 11.0826 34 14" stroke="#90001A" stroke-width="3" stroke-linecap="round" stroke-linejoin="round"/>
</svg>
