<svg id="svg" version="1.1" width="400" height="263.51351351351354" xmlns="http://www.w3.org/2000/svg" xmlns:xlink="http://www.w3.org/1999/xlink" style="display: block;"><g id="svgg"><path id="path0" d="M314.265 29.042 C 314.604 29.569,314.912 30.000,314.950 30.000 C 315.061 30.000,314.458 29.034,314.038 28.539 C 313.825 28.288,313.927 28.515,314.265 29.042 M320.282 38.013 C 320.448 38.295,320.690 38.614,320.820 38.721 C 320.950 38.829,320.846 38.598,320.590 38.208 C 320.050 37.390,319.837 37.255,320.282 38.013 M94.744 38.708 C 94.487 39.098,94.383 39.329,94.513 39.221 C 94.764 39.014,95.402 38.000,95.282 38.000 C 95.243 38.000,95.001 38.319,94.744 38.708 M93.000 41.250 C 92.716 41.662,92.521 42.000,92.567 42.000 C 92.613 42.000,92.883 41.662,93.167 41.250 C 93.450 40.837,93.645 40.500,93.599 40.500 C 93.554 40.500,93.284 40.837,93.000 41.250 M324.645 44.417 C 324.735 44.600,324.931 44.900,325.080 45.083 L 325.352 45.417 325.188 45.083 C 325.098 44.900,324.902 44.600,324.753 44.417 L 324.482 44.083 324.645 44.417 M326.449 47.179 C 326.615 47.462,326.857 47.780,326.987 47.888 C 327.117 47.995,327.013 47.765,326.756 47.375 C 326.217 46.557,326.004 46.422,326.449 47.179 M88.577 47.708 C 88.320 48.098,88.216 48.329,88.347 48.221 C 88.597 48.014,89.235 47.000,89.115 47.000 C 89.076 47.000,88.834 47.319,88.577 47.708 M87.167 49.750 C 86.883 50.163,86.688 50.500,86.734 50.500 C 86.780 50.500,87.050 50.163,87.333 49.750 C 87.617 49.337,87.812 49.000,87.766 49.000 C 87.720 49.000,87.450 49.337,87.167 49.750 M329.244 51.292 C 329.501 51.681,329.743 52.000,329.782 52.000 C 329.902 52.000,329.264 50.986,329.013 50.779 C 328.883 50.671,328.987 50.902,329.244 51.292 M285.750 51.667 C 285.892 51.942,286.046 52.167,286.092 52.167 C 286.138 52.167,286.059 51.942,285.917 51.667 C 285.774 51.392,285.621 51.167,285.575 51.167 C 285.529 51.167,285.608 51.392,285.750 51.667 M85.539 52.125 C 85.107 52.748,84.967 53.000,85.051 53.000 C 85.090 53.000,85.321 52.700,85.564 52.333 C 86.057 51.588,86.035 51.408,85.539 52.125 M330.812 53.583 C 330.902 53.767,331.098 54.067,331.247 54.250 L 331.518 54.583 331.355 54.250 C 331.265 54.067,331.069 53.767,330.920 53.583 L 330.648 53.250 330.812 53.583 M287.250 54.167 C 287.392 54.442,287.546 54.667,287.592 54.667 C 287.638 54.667,287.559 54.442,287.417 54.167 C 287.274 53.892,287.121 53.667,287.075 53.667 C 287.029 53.667,287.108 53.892,287.250 54.167 M125.453 55.170 C 125.748 55.480,126.018 55.699,126.052 55.658 C 126.087 55.617,125.845 55.364,125.516 55.095 L 124.917 54.608 125.453 55.170 M288.750 56.667 C 288.892 56.942,289.046 57.167,289.092 57.167 C 289.138 57.167,289.059 56.942,288.917 56.667 C 288.774 56.392,288.621 56.167,288.575 56.167 C 288.529 56.167,288.608 56.392,288.750 56.667 M290.012 58.750 C 290.218 59.117,290.458 59.492,290.546 59.583 C 290.795 59.845,290.225 58.789,289.915 58.417 C 289.763 58.233,289.806 58.383,290.012 58.750 M335.500 60.583 C 335.964 61.271,336.381 61.833,336.427 61.833 C 336.473 61.833,336.131 61.271,335.667 60.583 C 335.203 59.896,334.786 59.333,334.740 59.333 C 334.694 59.333,335.036 59.896,335.500 60.583 M79.645 60.708 C 79.437 61.006,79.169 61.310,79.050 61.383 C 78.931 61.457,78.833 61.592,78.833 61.685 C 78.833 61.777,78.907 61.807,78.998 61.751 C 79.197 61.628,80.216 60.167,80.103 60.167 C 80.059 60.167,79.853 60.410,79.645 60.708 M265.083 62.097 C 264.533 62.512,263.892 63.035,263.658 63.259 C 263.423 63.483,263.161 63.668,263.074 63.669 C 262.988 63.671,262.542 64.008,262.084 64.419 C 261.627 64.830,261.164 65.167,261.057 65.167 C 260.949 65.167,260.836 65.234,260.806 65.316 C 260.775 65.398,260.075 65.967,259.250 66.580 C 258.425 67.194,257.689 67.803,257.615 67.935 C 257.540 68.067,258.365 67.501,259.448 66.677 C 264.738 62.655,265.442 62.112,265.779 61.801 C 265.990 61.606,266.228 61.518,266.347 61.592 C 266.478 61.673,266.509 61.649,266.433 61.526 C 266.256 61.240,266.172 61.275,265.083 62.097 M78.153 62.708 C 77.624 63.435,77.109 64.333,77.221 64.333 C 77.256 64.333,77.634 63.808,78.060 63.167 C 78.911 61.887,78.973 61.583,78.153 62.708 M267.000 62.833 C 267.187 63.200,267.378 63.500,267.423 63.500 C 267.469 63.500,267.354 63.200,267.167 62.833 C 266.980 62.467,266.789 62.167,266.743 62.167 C 266.697 62.167,266.813 62.467,267.000 62.833 M269.000 66.500 C 269.187 66.867,269.378 67.167,269.423 67.167 C 269.469 67.167,269.354 66.867,269.167 66.500 C 268.980 66.133,268.789 65.833,268.743 65.833 C 268.697 65.833,268.813 66.133,269.000 66.500 M338.762 66.651 L 338.274 67.250 338.837 66.714 C 339.146 66.419,339.366 66.149,339.325 66.115 C 339.284 66.080,339.030 66.321,338.762 66.651 M337.656 67.958 C 336.476 69.235,336.107 69.667,336.195 69.667 C 336.244 69.667,336.751 69.142,337.322 68.500 C 338.407 67.278,338.654 66.880,337.656 67.958 M270.250 68.833 C 270.482 69.292,270.710 69.667,270.756 69.667 C 270.801 69.667,270.649 69.292,270.417 68.833 C 270.184 68.375,269.957 68.000,269.911 68.000 C 269.865 68.000,270.018 68.375,270.250 68.833 M256.198 68.906 C 255.721 69.312,255.182 69.692,254.999 69.750 C 254.816 69.808,254.667 69.921,254.667 70.000 C 254.667 70.079,254.048 70.591,253.292 71.137 C 252.535 71.683,251.767 72.301,251.583 72.509 C 251.400 72.718,252.327 72.070,253.644 71.069 C 254.961 70.069,256.330 69.040,256.686 68.783 C 257.042 68.525,257.333 68.282,257.333 68.241 C 257.333 68.031,256.979 68.239,256.198 68.906 M143.567 68.692 C 143.492 68.814,143.522 68.839,143.648 68.762 C 143.766 68.689,144.165 68.898,144.623 69.274 C 145.050 69.623,145.628 70.066,145.908 70.257 C 146.188 70.448,146.979 71.006,147.667 71.497 C 148.354 71.987,148.804 72.252,148.667 72.084 C 148.529 71.916,148.042 71.527,147.583 71.221 C 147.125 70.915,146.090 70.177,145.284 69.582 C 143.666 68.388,143.734 68.423,143.567 68.692 M73.667 69.417 C 73.383 69.829,73.188 70.167,73.234 70.167 C 73.280 70.167,73.550 69.829,73.833 69.417 C 74.117 69.004,74.312 68.667,74.266 68.667 C 74.220 68.667,73.950 69.004,73.667 69.417 M335.406 70.542 L 334.917 71.083 335.458 70.594 C 335.756 70.325,336.000 70.081,336.000 70.052 C 336.000 69.923,335.862 70.037,335.406 70.542 M71.833 72.083 C 71.550 72.496,71.355 72.833,71.401 72.833 C 71.446 72.833,71.716 72.496,72.000 72.083 C 72.284 71.671,72.479 71.333,72.433 71.333 C 72.387 71.333,72.117 71.671,71.833 72.083 M334.073 72.042 L 333.583 72.583 334.125 72.094 C 334.630 71.638,334.743 71.500,334.615 71.500 C 334.586 71.500,334.342 71.744,334.073 72.042 M141.333 72.833 C 141.146 73.200,141.031 73.500,141.077 73.500 C 141.122 73.500,141.313 73.200,141.500 72.833 C 141.687 72.467,141.803 72.167,141.757 72.167 C 141.711 72.167,141.520 72.467,141.333 72.833 M149.333 72.660 C 149.880 73.124,151.451 74.323,152.083 74.759 C 152.358 74.949,153.146 75.504,153.833 75.993 C 154.521 76.482,154.938 76.719,154.761 76.519 C 154.584 76.319,154.171 75.994,153.844 75.796 C 153.517 75.598,152.955 75.188,152.595 74.885 C 152.235 74.581,151.875 74.333,151.796 74.333 C 151.717 74.333,151.496 74.187,151.304 74.009 C 151.112 73.830,150.497 73.374,149.936 72.995 C 149.375 72.616,149.104 72.465,149.333 72.660 M250.537 73.157 C 249.823 73.810,249.852 73.963,250.583 73.405 C 250.904 73.161,251.167 72.894,251.167 72.814 C 251.167 72.597,251.125 72.620,250.537 73.157 M72.089 74.042 C 72.624 74.615,73.367 75.385,73.739 75.753 C 74.112 76.121,75.429 77.500,76.667 78.818 C 79.081 81.390,80.500 82.833,80.500 82.717 C 80.500 82.677,78.569 80.614,76.208 78.133 C 73.848 75.651,71.819 73.481,71.699 73.310 C 71.579 73.140,71.399 73.000,71.299 73.000 C 71.198 73.000,71.554 73.469,72.089 74.042 M332.658 73.625 L 332.083 74.250 332.708 73.676 C 333.052 73.360,333.333 73.078,333.333 73.051 C 333.333 72.923,333.192 73.043,332.658 73.625 M249.364 74.079 C 249.152 74.196,248.777 74.477,248.531 74.704 C 248.098 75.104,246.024 76.659,244.833 77.477 C 244.512 77.698,244.030 78.093,243.760 78.356 C 243.491 78.618,243.202 78.833,243.119 78.833 C 243.036 78.833,242.620 79.139,242.195 79.513 C 241.770 79.888,241.215 80.316,240.961 80.466 C 240.708 80.616,240.500 80.843,240.500 80.971 C 240.500 81.131,240.591 81.100,240.792 80.870 C 240.952 80.686,243.015 79.096,245.375 77.335 C 249.668 74.134,250.509 73.448,249.364 74.079 M273.500 74.833 C 273.687 75.200,273.878 75.500,273.923 75.500 C 273.969 75.500,273.854 75.200,273.667 74.833 C 273.480 74.467,273.289 74.167,273.243 74.167 C 273.197 74.167,273.313 74.467,273.500 74.833 M331.409 75.042 L 330.750 75.750 331.458 75.091 C 331.848 74.729,332.167 74.410,332.167 74.383 C 332.167 74.257,332.022 74.383,331.409 75.042 M139.917 75.500 C 139.684 75.958,139.532 76.333,139.578 76.333 C 139.624 76.333,139.851 75.958,140.083 75.500 C 140.316 75.042,140.468 74.667,140.422 74.667 C 140.376 74.667,140.149 75.042,139.917 75.500 M327.816 79.042 C 324.359 82.899,323.734 83.633,325.147 82.178 C 326.396 80.892,330.877 75.833,330.767 75.833 C 330.726 75.833,329.398 77.277,327.816 79.042 M274.667 77.000 C 274.854 77.367,275.044 77.667,275.090 77.667 C 275.136 77.667,275.020 77.367,274.833 77.000 C 274.646 76.633,274.456 76.333,274.410 76.333 C 274.364 76.333,274.480 76.633,274.667 77.000 M155.487 77.221 C 155.710 77.466,155.958 77.667,156.040 77.667 C 156.122 77.667,156.590 77.985,157.080 78.375 C 157.570 78.765,158.559 79.492,159.277 79.992 C 159.996 80.492,160.931 81.185,161.356 81.534 C 161.782 81.882,162.180 82.167,162.243 82.167 C 162.305 82.167,162.757 82.485,163.247 82.875 C 163.737 83.265,164.726 83.992,165.444 84.492 C 166.162 84.992,167.087 85.670,167.500 85.999 C 167.912 86.329,168.438 86.724,168.667 86.877 C 168.896 87.030,169.308 87.323,169.583 87.528 L 170.083 87.900 169.766 87.534 C 169.592 87.333,168.580 86.555,167.516 85.807 C 166.453 85.059,165.396 84.278,165.167 84.072 C 164.938 83.866,164.518 83.559,164.234 83.390 C 163.951 83.221,162.976 82.521,162.068 81.833 C 161.160 81.146,160.192 80.442,159.917 80.269 C 159.642 80.096,159.122 79.702,158.762 79.394 C 158.401 79.086,158.019 78.833,157.912 78.833 C 157.806 78.833,157.589 78.691,157.432 78.517 C 157.274 78.342,156.681 77.879,156.114 77.488 C 155.336 76.950,155.182 76.885,155.487 77.221 M138.583 78.000 C 138.351 78.458,138.199 78.833,138.244 78.833 C 138.290 78.833,138.518 78.458,138.750 78.000 C 138.982 77.542,139.135 77.167,139.089 77.167 C 139.043 77.167,138.816 77.542,138.583 78.000 M302.417 79.500 C 302.559 79.775,302.713 80.000,302.759 80.000 C 302.804 80.000,302.726 79.775,302.583 79.500 C 302.441 79.225,302.287 79.000,302.241 79.000 C 302.196 79.000,302.274 79.225,302.417 79.500 M111.417 79.833 C 111.274 80.108,111.196 80.333,111.241 80.333 C 111.287 80.333,111.441 80.108,111.583 79.833 C 111.726 79.558,111.804 79.333,111.759 79.333 C 111.713 79.333,111.559 79.558,111.417 79.833 M137.250 80.500 C 137.018 80.958,136.865 81.333,136.911 81.333 C 136.957 81.333,137.184 80.958,137.417 80.500 C 137.649 80.042,137.801 79.667,137.756 79.667 C 137.710 79.667,137.482 80.042,137.250 80.500 M276.667 80.667 C 276.854 81.033,277.044 81.333,277.090 81.333 C 277.136 81.333,277.020 81.033,276.833 80.667 C 276.646 80.300,276.456 80.000,276.410 80.000 C 276.364 80.000,276.480 80.300,276.667 80.667 M303.679 81.583 C 303.885 81.950,304.125 82.325,304.212 82.417 C 304.462 82.678,303.891 81.622,303.582 81.250 C 303.429 81.067,303.473 81.217,303.679 81.583 M109.234 83.542 C 108.787 84.298,108.208 85.281,107.947 85.727 C 107.686 86.172,107.552 86.487,107.650 86.427 C 107.748 86.366,108.141 85.777,108.524 85.117 C 108.906 84.457,109.339 83.729,109.484 83.500 C 109.780 83.034,110.179 82.167,110.098 82.167 C 110.069 82.167,109.680 82.785,109.234 83.542 M277.917 83.000 C 278.149 83.458,278.376 83.833,278.422 83.833 C 278.468 83.833,278.316 83.458,278.083 83.000 C 277.851 82.542,277.624 82.167,277.578 82.167 C 277.532 82.167,277.684 82.542,277.917 83.000 M135.833 83.167 C 135.646 83.533,135.531 83.833,135.577 83.833 C 135.622 83.833,135.813 83.533,136.000 83.167 C 136.187 82.800,136.303 82.500,136.257 82.500 C 136.211 82.500,136.020 82.800,135.833 83.167 M80.672 83.030 C 80.904 83.366,83.876 86.346,83.928 86.294 C 83.962 86.261,83.225 85.487,82.292 84.575 C 81.358 83.663,80.629 82.968,80.672 83.030 M241.917 83.500 C 242.059 83.775,242.213 84.000,242.259 84.000 C 242.304 84.000,242.226 83.775,242.083 83.500 C 241.941 83.225,241.787 83.000,241.741 83.000 C 241.696 83.000,241.774 83.225,241.917 83.500 M305.179 84.083 C 305.385 84.450,305.625 84.825,305.712 84.917 C 305.962 85.178,305.391 84.122,305.082 83.750 C 304.929 83.567,304.973 83.717,305.179 84.083 M106.103 88.767 C 105.402 89.928,104.938 90.787,105.073 90.675 C 105.384 90.417,107.547 86.825,107.450 86.728 C 107.410 86.688,106.804 87.605,106.103 88.767 M244.417 87.833 C 244.559 88.108,244.713 88.333,244.759 88.333 C 244.804 88.333,244.726 88.108,244.583 87.833 C 244.441 87.558,244.287 87.333,244.241 87.333 C 244.196 87.333,244.274 87.558,244.417 87.833 M281.083 88.833 C 281.316 89.292,281.543 89.667,281.589 89.667 C 281.635 89.667,281.482 89.292,281.250 88.833 C 281.018 88.375,280.790 88.000,280.744 88.000 C 280.699 88.000,280.851 88.375,281.083 88.833 M86.750 89.333 C 87.387 89.975,87.945 90.500,87.991 90.500 C 88.037 90.500,87.553 89.975,86.917 89.333 C 86.280 88.692,85.721 88.167,85.676 88.167 C 85.630 88.167,86.113 88.692,86.750 89.333 M132.250 89.833 C 132.018 90.292,131.865 90.667,131.911 90.667 C 131.957 90.667,132.184 90.292,132.417 89.833 C 132.649 89.375,132.801 89.000,132.756 89.000 C 132.710 89.000,132.482 89.375,132.250 89.833 M168.750 89.667 C 168.608 89.942,168.529 90.167,168.575 90.167 C 168.621 90.167,168.774 89.942,168.917 89.667 C 169.059 89.392,169.138 89.167,169.092 89.167 C 169.046 89.167,168.892 89.392,168.750 89.667 M246.250 91.000 C 246.392 91.275,246.546 91.500,246.592 91.500 C 246.638 91.500,246.559 91.275,246.417 91.000 C 246.274 90.725,246.121 90.500,246.075 90.500 C 246.029 90.500,246.108 90.725,246.250 91.000 M282.333 91.167 C 282.520 91.533,282.711 91.833,282.757 91.833 C 282.803 91.833,282.687 91.533,282.500 91.167 C 282.313 90.800,282.122 90.500,282.077 90.500 C 282.031 90.500,282.146 90.800,282.333 91.167 M88.851 91.458 C 89.254 91.894,89.846 92.470,90.167 92.738 C 90.487 93.007,90.189 92.651,89.504 91.947 C 88.129 90.534,87.700 90.213,88.851 91.458 M130.917 92.333 C 130.684 92.792,130.532 93.167,130.578 93.167 C 130.624 93.167,130.851 92.792,131.083 92.333 C 131.316 91.875,131.468 91.500,131.422 91.500 C 131.376 91.500,131.149 91.875,130.917 92.333 M167.417 92.000 C 167.274 92.275,167.196 92.500,167.241 92.500 C 167.287 92.500,167.441 92.275,167.583 92.000 C 167.726 91.725,167.804 91.500,167.759 91.500 C 167.713 91.500,167.559 91.725,167.417 92.000 M166.083 94.333 C 165.941 94.608,165.862 94.833,165.908 94.833 C 165.954 94.833,166.108 94.608,166.250 94.333 C 166.392 94.058,166.471 93.833,166.425 93.833 C 166.379 93.833,166.226 94.058,166.083 94.333 M284.250 94.667 C 284.392 94.942,284.546 95.167,284.592 95.167 C 284.638 95.167,284.559 94.942,284.417 94.667 C 284.274 94.392,284.121 94.167,284.075 94.167 C 284.029 94.167,284.108 94.392,284.250 94.667 M129.500 95.000 C 129.313 95.367,129.197 95.667,129.243 95.667 C 129.289 95.667,129.480 95.367,129.667 95.000 C 129.854 94.633,129.969 94.333,129.923 94.333 C 129.878 94.333,129.687 94.633,129.500 95.000 M312.750 94.936 C 312.383 95.261,312.233 95.452,312.417 95.362 C 312.723 95.211,313.650 94.325,313.487 94.340 C 313.448 94.343,313.117 94.611,312.750 94.936 M249.250 96.167 C 249.392 96.442,249.546 96.667,249.592 96.667 C 249.638 96.667,249.559 96.442,249.417 96.167 C 249.274 95.892,249.121 95.667,249.075 95.667 C 249.029 95.667,249.108 95.892,249.250 96.167 M285.500 97.000 C 285.687 97.367,285.878 97.667,285.923 97.667 C 285.969 97.667,285.854 97.367,285.667 97.000 C 285.480 96.633,285.289 96.333,285.243 96.333 C 285.197 96.333,285.313 96.633,285.500 97.000 M128.032 97.542 C 127.851 97.840,127.556 98.383,127.376 98.750 C 126.779 99.962,123.403 106.241,123.096 106.708 C 122.930 106.960,122.870 107.167,122.962 107.167 C 123.054 107.167,123.974 105.573,125.006 103.625 C 126.038 101.677,127.254 99.390,127.706 98.542 C 128.503 97.051,128.703 96.435,128.032 97.542 M96.747 99.465 C 97.662 100.401,98.502 101.167,98.613 101.167 C 98.725 101.167,98.239 100.629,97.533 99.973 C 96.827 99.316,96.174 98.697,96.081 98.598 C 95.987 98.498,95.725 98.270,95.497 98.090 C 95.270 97.911,95.832 98.529,96.747 99.465 M286.667 99.167 C 286.854 99.533,287.044 99.833,287.090 99.833 C 287.136 99.833,287.020 99.533,286.833 99.167 C 286.646 98.800,286.456 98.500,286.410 98.500 C 286.364 98.500,286.480 98.800,286.667 99.167 M251.083 99.333 C 251.226 99.608,251.379 99.833,251.425 99.833 C 251.471 99.833,251.392 99.608,251.250 99.333 C 251.108 99.058,250.954 98.833,250.908 98.833 C 250.862 98.833,250.941 99.058,251.083 99.333 M162.917 99.833 C 162.774 100.108,162.696 100.333,162.741 100.333 C 162.787 100.333,162.941 100.108,163.083 99.833 C 163.226 99.558,163.304 99.333,163.259 99.333 C 163.213 99.333,163.059 99.558,162.917 99.833 M252.250 101.333 C 252.392 101.608,252.546 101.833,252.592 101.833 C 252.638 101.833,252.559 101.608,252.417 101.333 C 252.274 101.058,252.121 100.833,252.075 100.833 C 252.029 100.833,252.108 101.058,252.250 101.333 M288.667 102.833 C 288.854 103.200,289.044 103.500,289.090 103.500 C 289.136 103.500,289.020 103.200,288.833 102.833 C 288.646 102.467,288.456 102.167,288.410 102.167 C 288.364 102.167,288.480 102.467,288.667 102.833 M160.917 103.333 C 160.774 103.608,160.696 103.833,160.741 103.833 C 160.787 103.833,160.941 103.608,161.083 103.333 C 161.226 103.058,161.304 102.833,161.259 102.833 C 161.213 102.833,161.059 103.058,160.917 103.333 M253.583 103.667 C 253.726 103.942,253.879 104.167,253.925 104.167 C 253.971 104.167,253.892 103.942,253.750 103.667 C 253.608 103.392,253.454 103.167,253.408 103.167 C 253.362 103.167,253.441 103.392,253.583 103.667 M289.917 105.167 C 290.149 105.625,290.376 106.000,290.422 106.000 C 290.468 106.000,290.316 105.625,290.083 105.167 C 289.851 104.708,289.624 104.333,289.578 104.333 C 289.532 104.333,289.684 104.708,289.917 105.167 M159.583 105.667 C 159.441 105.942,159.362 106.167,159.408 106.167 C 159.454 106.167,159.608 105.942,159.750 105.667 C 159.892 105.392,159.971 105.167,159.925 105.167 C 159.879 105.167,159.726 105.392,159.583 105.667 M255.417 106.833 C 255.559 107.108,255.713 107.333,255.759 107.333 C 255.804 107.333,255.726 107.108,255.583 106.833 C 255.441 106.558,255.287 106.333,255.241 106.333 C 255.196 106.333,255.274 106.558,255.417 106.833 M158.250 108.000 C 158.108 108.275,158.029 108.500,158.075 108.500 C 158.121 108.500,158.274 108.275,158.417 108.000 C 158.559 107.725,158.638 107.500,158.592 107.500 C 158.546 107.500,158.392 107.725,158.250 108.000 M256.583 108.833 C 256.726 109.108,256.879 109.333,256.925 109.333 C 256.971 109.333,256.892 109.108,256.750 108.833 C 256.608 108.558,256.454 108.333,256.408 108.333 C 256.362 108.333,256.441 108.558,256.583 108.833 M121.833 109.333 C 121.646 109.700,121.531 110.000,121.577 110.000 C 121.622 110.000,121.813 109.700,122.000 109.333 C 122.187 108.967,122.303 108.667,122.257 108.667 C 122.211 108.667,122.020 108.967,121.833 109.333 M293.083 111.000 C 293.316 111.458,293.543 111.833,293.589 111.833 C 293.635 111.833,293.482 111.458,293.250 111.000 C 293.018 110.542,292.790 110.167,292.744 110.167 C 292.699 110.167,292.851 110.542,293.083 111.000 M156.417 111.167 C 156.274 111.442,156.196 111.667,156.241 111.667 C 156.287 111.667,156.441 111.442,156.583 111.167 C 156.726 110.892,156.804 110.667,156.759 110.667 C 156.713 110.667,156.559 110.892,156.417 111.167 M120.417 112.000 C 120.184 112.458,120.032 112.833,120.078 112.833 C 120.124 112.833,120.351 112.458,120.583 112.000 C 120.816 111.542,120.968 111.167,120.922 111.167 C 120.876 111.167,120.649 111.542,120.417 112.000 M258.417 112.000 C 258.559 112.275,258.713 112.500,258.759 112.500 C 258.804 112.500,258.726 112.275,258.583 112.000 C 258.441 111.725,258.287 111.500,258.241 111.500 C 258.196 111.500,258.274 111.725,258.417 112.000 M294.105 112.912 C 294.166 113.071,294.049 113.322,293.811 113.546 C 293.593 113.750,291.016 116.200,288.083 118.992 C 285.150 121.783,282.188 124.601,281.500 125.255 C 279.913 126.764,273.897 132.445,272.548 133.708 C 271.985 134.235,271.598 134.667,271.688 134.667 C 271.852 134.667,274.225 132.449,275.657 130.958 C 276.075 130.523,276.474 130.167,276.542 130.167 C 276.611 130.167,277.258 129.585,277.981 128.875 C 278.704 128.165,280.100 126.833,281.084 125.917 C 282.067 125.000,283.257 123.875,283.728 123.417 C 284.198 122.958,285.336 121.871,286.256 121.000 C 287.175 120.129,289.301 118.104,290.980 116.500 C 292.658 114.896,294.099 113.558,294.182 113.528 C 294.385 113.453,294.375 112.879,294.169 112.751 C 294.074 112.692,294.047 112.761,294.105 112.912 M154.979 113.708 C 154.643 114.367,151.526 119.827,147.914 126.083 C 145.574 130.137,145.555 130.172,145.988 129.667 C 146.185 129.438,146.540 128.875,146.777 128.417 C 147.015 127.958,147.341 127.396,147.501 127.167 C 147.662 126.938,148.127 126.150,148.536 125.417 C 149.570 123.562,151.223 120.676,152.188 119.039 C 152.635 118.282,153.000 117.622,153.000 117.573 C 153.000 117.524,153.262 117.074,153.582 116.574 C 154.232 115.557,155.549 113.000,155.422 113.000 C 155.377 113.000,155.178 113.319,154.979 113.708 M119.083 114.500 C 118.851 114.958,118.699 115.333,118.744 115.333 C 118.790 115.333,119.018 114.958,119.250 114.500 C 119.482 114.042,119.635 113.667,119.589 113.667 C 119.543 113.667,119.316 114.042,119.083 114.500 M261.417 117.167 C 261.559 117.442,261.713 117.667,261.759 117.667 C 261.804 117.667,261.726 117.442,261.583 117.167 C 261.441 116.892,261.287 116.667,261.241 116.667 C 261.196 116.667,261.274 116.892,261.417 117.167 M262.750 119.500 C 262.892 119.775,263.046 120.000,263.092 120.000 C 263.138 120.000,263.059 119.775,262.917 119.500 C 262.774 119.225,262.621 119.000,262.575 119.000 C 262.529 119.000,262.608 119.225,262.750 119.500 M265.750 124.667 C 265.892 124.942,266.046 125.167,266.092 125.167 C 266.138 125.167,266.059 124.942,265.917 124.667 C 265.774 124.392,265.621 124.167,265.575 124.167 C 265.529 124.167,265.608 124.392,265.750 124.667 M267.583 127.833 C 267.726 128.108,267.879 128.333,267.925 128.333 C 267.971 128.333,267.892 128.108,267.750 127.833 C 267.608 127.558,267.454 127.333,267.408 127.333 C 267.362 127.333,267.441 127.558,267.583 127.833 M268.750 129.833 C 268.892 130.108,269.046 130.333,269.092 130.333 C 269.138 130.333,269.059 130.108,268.917 129.833 C 268.774 129.558,268.621 129.333,268.575 129.333 C 268.529 129.333,268.608 129.558,268.750 129.833 M129.487 131.227 C 129.710 131.469,129.963 131.667,130.049 131.667 C 130.273 131.667,129.845 131.183,129.430 130.968 C 129.121 130.807,129.127 130.835,129.487 131.227 M144.667 131.667 C 144.480 132.033,144.364 132.333,144.410 132.333 C 144.456 132.333,144.646 132.033,144.833 131.667 C 145.020 131.300,145.136 131.000,145.090 131.000 C 145.044 131.000,144.854 131.300,144.667 131.667 M130.926 132.272 C 132.295 133.576,134.735 135.713,134.250 135.185 C 133.975 134.884,132.962 133.961,132.000 133.134 C 131.037 132.306,130.554 131.918,130.926 132.272 M270.583 133.000 C 270.726 133.275,270.879 133.500,270.925 133.500 C 270.971 133.500,270.892 133.275,270.750 133.000 C 270.608 132.725,270.454 132.500,270.408 132.500 C 270.362 132.500,270.441 132.725,270.583 133.000 M136.250 137.167 C 137.071 137.992,137.781 138.667,137.826 138.667 C 137.872 138.667,137.238 137.992,136.417 137.167 C 135.595 136.342,134.886 135.667,134.840 135.667 C 134.794 135.667,135.429 136.342,136.250 137.167 M141.417 137.333 C 141.274 137.608,141.196 137.833,141.241 137.833 C 141.287 137.833,141.441 137.608,141.583 137.333 C 141.726 137.058,141.804 136.833,141.759 136.833 C 141.713 136.833,141.559 137.058,141.417 137.333 M138.513 139.315 C 138.709 139.580,139.105 139.966,139.393 140.172 C 139.762 140.436,139.672 140.293,139.090 139.690 C 138.152 138.718,137.998 138.619,138.513 139.315 M140.083 139.667 C 139.941 139.942,139.862 140.167,139.908 140.167 C 139.954 140.167,140.108 139.942,140.250 139.667 C 140.392 139.392,140.471 139.167,140.425 139.167 C 140.379 139.167,140.226 139.392,140.083 139.667 " stroke="none" fill="#808080" fill-rule="evenodd"></path><path id="path1" d="M57.167 11.768 C 56.938 11.811,56.064 11.958,55.225 12.094 C 53.762 12.333,51.963 12.940,51.260 13.433 C 51.076 13.561,50.827 13.667,50.706 13.667 C 50.349 13.667,47.660 15.582,46.667 16.544 C 42.087 20.977,39.991 27.790,41.193 34.333 C 41.665 36.903,43.456 41.263,44.866 43.276 C 45.215 43.774,45.500 44.234,45.500 44.299 C 45.500 44.364,45.804 44.754,46.175 45.167 C 46.546 45.579,46.975 46.123,47.128 46.375 C 47.280 46.627,47.463 46.833,47.534 46.833 C 47.605 46.833,47.908 47.160,48.207 47.560 C 48.755 48.293,52.910 53.087,53.933 54.167 C 54.237 54.487,55.926 56.362,57.685 58.333 C 59.444 60.304,61.603 62.703,62.483 63.665 C 71.225 73.218,71.133 73.124,71.410 72.722 C 74.508 68.231,78.050 62.976,78.751 61.831 C 78.843 61.681,79.031 61.445,79.168 61.308 C 79.402 61.072,80.553 59.412,88.255 48.200 C 89.999 45.661,92.763 41.636,94.398 39.256 C 98.083 33.893,97.888 34.485,96.316 33.431 C 95.398 32.816,92.316 30.533,91.065 29.542 C 90.574 29.152,90.108 28.833,90.031 28.833 C 89.954 28.833,89.711 28.641,89.490 28.406 C 89.270 28.171,88.825 27.820,88.503 27.626 C 88.180 27.431,87.688 27.080,87.409 26.844 C 87.130 26.609,86.717 26.286,86.492 26.127 C 86.267 25.968,85.758 25.593,85.361 25.294 C 84.963 24.995,84.401 24.583,84.111 24.380 C 83.821 24.176,83.471 23.906,83.333 23.780 C 83.097 23.563,79.790 21.100,78.035 19.833 C 77.591 19.512,76.482 18.688,75.572 18.002 C 74.661 17.316,73.729 16.655,73.500 16.533 C 73.271 16.411,72.933 16.175,72.750 16.009 C 72.567 15.842,71.817 15.388,71.083 14.999 C 70.350 14.610,69.675 14.234,69.583 14.164 C 69.320 13.963,66.012 12.719,65.000 12.440 C 63.009 11.893,58.548 11.510,57.167 11.768 M341.462 12.914 C 340.662 13.045,339.717 13.230,339.363 13.325 C 339.009 13.421,338.338 13.571,337.871 13.659 C 335.989 14.016,330.754 16.288,328.752 17.615 C 328.295 17.919,327.869 18.167,327.806 18.167 C 327.742 18.167,327.216 18.483,326.637 18.870 C 326.057 19.256,325.352 19.692,325.069 19.838 C 324.785 19.984,324.448 20.196,324.319 20.309 C 324.090 20.509,321.360 22.299,320.483 22.824 C 319.790 23.238,317.471 24.773,316.833 25.239 C 316.512 25.474,316.021 25.797,315.742 25.958 C 314.750 26.528,313.506 27.419,313.503 27.561 C 313.500 27.697,315.596 30.865,319.583 36.750 C 320.515 38.125,322.994 41.800,325.092 44.917 C 327.190 48.033,330.248 52.571,331.886 55.000 C 333.524 57.429,335.881 60.934,337.123 62.788 L 339.381 66.159 338.309 67.371 C 334.165 72.056,330.635 76.064,329.022 77.917 L 327.136 80.083 328.744 78.417 C 329.628 77.500,331.004 76.037,331.800 75.167 C 332.597 74.296,333.603 73.208,334.035 72.750 C 334.468 72.292,335.143 71.560,335.536 71.124 C 335.929 70.689,336.606 69.983,337.042 69.556 C 337.477 69.129,337.833 68.715,337.833 68.637 C 337.833 68.559,338.152 68.168,338.542 67.770 C 339.751 66.532,340.374 65.843,343.007 62.833 C 344.411 61.229,345.902 59.536,346.321 59.071 C 346.740 58.606,347.383 57.873,347.750 57.443 C 348.117 57.013,348.567 56.490,348.750 56.281 C 351.631 52.997,356.000 47.739,356.000 47.557 C 356.000 47.490,356.181 47.243,356.403 47.009 C 358.352 44.947,361.710 37.599,362.178 34.372 C 362.687 30.867,362.495 26.072,361.765 24.062 C 360.195 19.736,357.470 16.575,353.667 14.667 C 352.176 13.920,351.311 13.627,348.917 13.060 C 347.431 12.708,343.226 12.626,341.462 12.914 M282.583 49.164 C 282.125 49.529,281.600 49.898,281.417 49.984 C 281.233 50.070,280.730 50.428,280.299 50.779 C 279.868 51.130,278.532 52.129,277.330 53.000 C 276.128 53.871,274.708 54.921,274.176 55.333 C 273.643 55.746,272.625 56.496,271.913 57.000 C 271.200 57.504,270.348 58.144,270.017 58.423 C 269.687 58.701,269.117 59.132,268.750 59.381 C 267.153 60.467,266.185 61.285,266.326 61.430 C 266.408 61.514,266.880 62.333,267.375 63.250 C 268.799 65.889,272.809 73.301,274.588 76.583 C 275.482 78.233,277.168 81.346,278.333 83.500 C 279.499 85.654,281.204 88.804,282.123 90.500 C 287.122 99.724,288.241 101.789,290.384 105.750 C 294.161 112.733,294.333 113.060,294.333 113.232 C 294.333 113.403,296.340 111.443,306.274 101.572 L 312.155 95.728 303.869 81.888 C 299.312 74.276,292.958 63.652,289.750 58.280 C 286.237 52.397,283.817 48.510,283.667 48.507 C 283.529 48.504,283.042 48.800,282.583 49.164 M118.250 68.691 C 113.942 75.855,110.229 82.069,110.000 82.501 C 108.975 84.432,108.665 84.972,108.101 85.808 C 107.770 86.299,107.500 86.733,107.500 86.772 C 107.500 86.910,105.457 90.252,105.170 90.583 C 105.012 90.767,103.514 93.204,101.842 96.000 C 100.170 98.796,98.733 101.109,98.649 101.140 C 98.565 101.170,101.027 103.683,104.121 106.723 C 107.214 109.763,110.391 112.888,111.181 113.667 C 111.970 114.446,113.538 115.965,114.665 117.042 L 116.714 119.001 119.790 113.218 C 121.481 110.038,122.892 107.292,122.926 107.117 C 122.960 106.942,123.062 106.710,123.153 106.600 C 123.312 106.409,126.698 100.119,127.379 98.750 C 127.562 98.383,128.069 97.483,128.507 96.750 C 128.944 96.017,130.143 93.842,131.171 91.917 C 132.198 89.992,135.120 84.517,137.664 79.750 C 140.208 74.983,142.633 70.461,143.054 69.701 C 143.810 68.336,143.814 68.318,143.451 68.173 C 143.249 68.092,142.719 67.720,142.274 67.346 C 141.828 66.972,141.408 66.667,141.341 66.667 C 141.273 66.667,141.037 66.509,140.817 66.317 C 140.597 66.125,139.847 65.566,139.151 65.074 C 138.455 64.583,137.790 64.065,137.672 63.924 C 137.555 63.782,137.382 63.667,137.288 63.667 C 137.194 63.667,136.719 63.348,136.233 62.958 C 135.747 62.569,134.814 61.875,134.160 61.417 C 133.506 60.958,132.562 60.262,132.064 59.869 C 131.565 59.477,130.972 59.071,130.745 58.968 C 130.519 58.864,130.333 58.726,130.333 58.660 C 130.333 58.594,129.827 58.190,129.208 57.762 C 128.590 57.333,127.671 56.689,127.167 56.329 C 126.662 55.969,126.212 55.673,126.166 55.671 C 126.121 55.669,122.558 61.528,118.250 68.691 M326.158 81.125 L 325.583 81.750 326.208 81.176 C 326.552 80.860,326.833 80.578,326.833 80.551 C 326.833 80.423,326.692 80.543,326.158 81.125 M239.164 81.845 C 238.478 82.389,237.560 83.065,237.125 83.348 C 236.690 83.631,236.333 83.912,236.332 83.973 C 236.332 84.034,236.050 84.269,235.707 84.496 C 235.364 84.723,234.708 85.218,234.250 85.596 C 233.792 85.975,233.293 86.351,233.143 86.434 C 232.992 86.516,232.580 86.826,232.226 87.123 C 231.873 87.419,231.343 87.832,231.050 88.039 C 230.757 88.247,229.501 89.204,228.259 90.167 C 227.017 91.129,225.757 92.089,225.459 92.301 C 225.161 92.512,224.730 92.849,224.503 93.051 C 224.275 93.252,223.770 93.642,223.380 93.917 C 222.991 94.192,221.654 95.204,220.410 96.167 C 219.166 97.129,217.909 98.089,217.616 98.299 C 217.323 98.510,216.858 98.857,216.583 99.071 C 216.308 99.286,215.558 99.859,214.917 100.345 C 214.275 100.832,213.725 101.291,213.694 101.365 C 213.664 101.439,213.559 101.500,213.462 101.500 C 213.364 101.500,212.950 101.781,212.542 102.125 C 212.133 102.469,211.631 102.862,211.425 103.000 C 211.220 103.138,210.316 103.813,209.416 104.500 C 208.517 105.188,207.437 105.983,207.016 106.268 C 206.595 106.552,206.107 106.946,205.933 107.143 C 205.758 107.339,205.523 107.500,205.411 107.500 C 205.299 107.500,205.114 107.613,204.999 107.751 C 204.885 107.889,204.009 108.572,203.052 109.269 L 201.312 110.537 200.322 109.768 C 199.778 109.346,199.294 109.000,199.247 109.000 C 199.200 109.000,198.760 108.681,198.270 108.292 C 197.779 107.902,196.824 107.192,196.147 106.713 C 195.470 106.234,194.587 105.596,194.184 105.296 C 193.782 104.996,193.332 104.675,193.184 104.583 C 193.037 104.492,192.528 104.117,192.053 103.750 C 191.578 103.383,190.611 102.671,189.905 102.167 C 189.199 101.662,188.276 100.969,187.855 100.625 C 187.434 100.281,187.031 100.000,186.959 100.000 C 186.887 100.000,186.424 99.681,185.930 99.292 C 184.988 98.549,182.136 96.438,180.920 95.583 C 179.180 94.359,177.243 92.941,177.167 92.834 C 177.121 92.769,176.783 92.514,176.417 92.267 C 176.050 92.019,175.368 91.539,174.900 91.200 C 174.433 90.861,173.533 90.212,172.900 89.757 C 172.268 89.303,171.455 88.684,171.095 88.382 C 170.082 87.533,170.106 87.510,167.808 91.546 C 166.648 93.583,163.501 99.075,160.815 103.750 C 158.129 108.425,155.476 113.112,154.919 114.167 C 154.362 115.221,153.703 116.401,153.454 116.788 C 153.204 117.176,153.000 117.531,153.000 117.578 C 153.000 117.624,152.635 118.282,152.188 119.039 C 151.343 120.472,149.788 123.181,148.575 125.333 C 147.667 126.945,146.792 128.431,146.318 129.167 C 145.849 129.893,144.907 131.510,142.045 136.500 C 140.809 138.654,139.778 140.439,139.753 140.466 C 139.728 140.493,139.380 140.189,138.979 139.791 C 135.903 136.735,129.881 131.280,130.333 131.959 C 130.558 132.295,131.801 133.472,139.167 140.315 C 140.313 141.379,141.636 142.625,142.108 143.083 C 142.580 143.542,143.667 144.554,144.522 145.333 C 146.064 146.737,147.114 147.716,148.632 149.167 C 149.063 149.579,150.159 150.592,151.066 151.417 C 151.973 152.242,152.910 153.114,153.149 153.355 C 153.388 153.597,155.496 155.541,157.833 157.676 C 160.171 159.811,162.121 161.607,162.167 161.667 C 162.212 161.726,163.112 162.553,164.167 163.505 C 165.221 164.456,166.848 165.998,167.782 166.932 C 169.941 169.088,173.251 171.996,175.098 173.359 C 175.886 173.941,176.879 174.698,177.304 175.042 C 177.729 175.385,178.131 175.667,178.197 175.667 C 178.263 175.667,178.800 176.004,179.390 176.417 C 179.980 176.829,180.513 177.167,180.573 177.167 C 180.633 177.167,181.073 177.412,181.550 177.713 C 183.430 178.898,189.633 181.667,190.407 181.667 C 190.547 181.667,191.288 181.848,192.053 182.070 C 198.929 184.062,206.303 183.484,215.167 180.257 C 217.761 179.312,224.094 175.962,225.924 174.567 C 226.212 174.347,226.491 174.167,226.542 174.167 C 226.648 174.167,229.963 171.863,230.342 171.527 C 230.475 171.409,230.782 171.186,231.025 171.031 C 231.600 170.665,235.436 167.600,236.083 166.990 C 236.688 166.419,243.774 160.096,247.918 156.429 C 249.567 154.969,251.179 153.533,251.500 153.238 C 251.821 152.943,252.486 152.337,252.978 151.892 C 253.470 151.447,254.192 150.783,254.584 150.417 C 255.523 149.538,256.608 148.545,258.426 146.902 C 265.892 140.153,268.598 137.671,270.766 135.583 L 271.632 134.750 268.633 129.583 C 266.984 126.742,264.937 123.217,264.085 121.750 C 263.232 120.283,261.170 116.721,259.502 113.833 C 256.168 108.065,255.605 107.094,254.380 105.000 C 253.924 104.221,252.515 101.783,251.249 99.583 C 249.983 97.383,248.575 94.946,248.119 94.167 C 247.664 93.388,247.010 92.263,246.667 91.667 C 246.323 91.071,245.669 89.946,245.213 89.167 C 244.757 88.388,243.499 86.212,242.417 84.333 C 241.335 82.454,240.441 80.903,240.431 80.886 C 240.420 80.870,239.850 81.301,239.164 81.845 M290.073 117.375 L 289.583 117.917 290.125 117.427 C 290.630 116.971,290.743 116.833,290.615 116.833 C 290.586 116.833,290.342 117.077,290.073 117.375 M286.742 120.542 L 286.083 121.250 286.792 120.591 C 287.450 119.978,287.577 119.833,287.450 119.833 C 287.423 119.833,287.105 120.152,286.742 120.542 M380.063 122.663 C 379.298 122.825,375.664 124.443,374.500 125.140 C 374.087 125.387,373.547 125.701,373.300 125.836 C 372.678 126.177,369.878 127.931,369.167 128.426 C 367.488 129.592,366.037 130.646,365.393 131.167 C 364.996 131.487,364.250 132.087,363.735 132.500 C 361.858 134.004,357.889 137.645,356.815 138.848 C 354.604 141.327,353.385 142.761,353.075 143.250 C 352.901 143.525,352.709 143.787,352.649 143.833 C 352.560 143.902,351.482 145.386,350.407 146.917 C 349.797 147.787,347.000 152.066,347.000 152.130 C 347.000 152.170,346.644 152.745,346.208 153.408 C 345.431 154.591,344.827 155.559,344.000 156.945 C 343.361 158.016,342.345 159.659,341.750 160.583 C 341.142 161.528,339.878 163.605,339.494 164.292 C 339.353 164.544,339.046 165.050,338.812 165.417 C 338.577 165.783,338.138 166.531,337.835 167.078 C 337.531 167.625,337.069 168.367,336.808 168.728 C 336.547 169.088,336.333 169.450,336.333 169.530 C 336.333 169.611,335.996 170.190,335.583 170.816 C 335.171 171.442,334.833 172.012,334.833 172.083 C 334.833 172.154,334.496 172.725,334.083 173.351 C 333.671 173.977,333.333 174.543,333.333 174.608 C 333.333 174.673,333.047 175.182,332.696 175.738 C 331.709 177.307,330.333 179.635,330.333 179.738 C 330.333 179.788,329.996 180.356,329.583 181.000 C 329.171 181.644,328.833 182.234,328.833 182.312 C 328.833 182.390,328.635 182.745,328.392 183.102 C 328.149 183.458,327.650 184.313,327.283 185.000 C 326.915 185.688,326.569 186.287,326.512 186.333 C 326.326 186.484,325.833 187.318,325.833 187.482 C 325.833 187.571,325.544 188.080,325.190 188.613 C 324.837 189.147,324.382 189.883,324.179 190.250 C 323.977 190.617,323.406 191.554,322.911 192.333 C 321.360 194.773,320.095 196.819,319.797 197.368 C 319.640 197.659,319.297 198.201,319.036 198.573 C 318.774 198.946,318.311 199.700,318.007 200.250 C 317.703 200.800,317.307 201.438,317.128 201.667 C 316.950 201.896,316.697 202.308,316.568 202.583 C 316.438 202.858,316.110 203.421,315.839 203.833 C 315.568 204.246,315.234 204.827,315.098 205.125 C 314.962 205.423,314.667 205.910,314.444 206.208 C 314.220 206.506,313.844 207.136,313.608 207.608 C 313.371 208.080,312.951 208.804,312.672 209.216 C 312.394 209.628,312.167 210.070,312.167 210.199 C 312.167 210.328,312.093 210.507,312.002 210.598 C 311.711 210.889,310.667 212.700,310.667 212.914 C 310.667 213.028,310.518 213.311,310.335 213.543 C 310.153 213.775,309.380 215.191,308.617 216.690 C 307.854 218.190,306.972 219.685,306.657 220.013 C 304.764 221.981,300.959 225.827,300.481 226.255 C 300.170 226.532,299.419 227.207,298.811 227.755 C 298.203 228.302,297.378 229.025,296.978 229.361 C 296.577 229.697,295.910 230.259,295.495 230.611 C 295.080 230.962,294.118 231.700,293.359 232.250 C 292.599 232.800,291.652 233.488,291.253 233.780 C 290.526 234.311,287.241 236.333,287.105 236.333 C 287.065 236.333,286.401 236.632,285.629 236.997 C 282.520 238.468,279.176 238.539,277.931 237.161 C 275.619 234.601,278.675 225.865,287.669 209.333 C 288.242 208.279,289.012 206.854,289.379 206.167 C 289.746 205.479,290.224 204.656,290.440 204.336 C 290.656 204.017,290.837 203.680,290.840 203.586 C 290.844 203.493,291.172 202.892,291.569 202.250 L 292.290 201.083 293.187 201.087 C 293.680 201.089,295.123 201.188,296.395 201.309 C 298.889 201.544,299.119 201.495,298.935 200.765 C 298.808 200.258,298.063 199.833,297.300 199.834 C 296.997 199.834,295.956 199.748,294.986 199.643 L 293.221 199.452 293.955 198.267 C 294.926 196.702,295.382 196.031,295.934 195.361 C 296.659 194.479,296.188 194.293,294.569 194.822 C 294.027 194.999,293.075 195.261,292.455 195.404 C 290.431 195.870,289.654 196.454,288.481 198.392 C 287.921 199.317,287.911 199.324,287.105 199.329 C 283.096 199.352,276.442 201.539,273.018 203.958 C 272.596 204.256,272.183 204.500,272.099 204.500 C 271.940 204.500,271.689 204.682,267.600 207.765 C 265.503 209.346,260.761 214.349,258.673 217.184 C 255.847 221.021,255.258 221.947,253.859 224.750 C 251.056 230.366,250.191 234.474,251.333 236.745 C 252.507 239.079,257.971 238.342,261.932 235.315 C 262.399 234.959,262.828 234.667,262.885 234.667 C 263.665 234.667,270.182 228.512,273.693 224.458 C 274.706 223.290,275.560 222.333,275.592 222.333 C 275.624 222.333,275.354 222.856,274.992 223.495 C 274.630 224.134,274.333 224.726,274.333 224.812 C 274.333 224.897,274.028 225.613,273.654 226.403 C 270.963 232.092,270.648 236.860,272.807 239.203 C 275.167 241.762,281.616 241.321,286.873 238.240 C 287.411 237.925,287.908 237.667,287.978 237.667 C 288.048 237.667,288.608 237.329,289.223 236.917 C 289.838 236.504,290.377 236.167,290.420 236.167 C 290.549 236.167,292.245 234.932,292.306 234.794 C 292.336 234.724,292.450 234.667,292.559 234.667 C 292.667 234.667,293.125 234.362,293.576 233.989 C 294.027 233.616,294.551 233.229,294.740 233.129 C 294.929 233.028,295.496 232.586,296.000 232.146 C 296.504 231.705,297.554 230.811,298.333 230.158 C 299.388 229.274,303.953 225.004,305.361 223.584 C 305.423 223.522,305.259 224.022,304.997 224.694 C 300.841 235.379,307.411 240.605,319.839 236.501 C 322.487 235.627,327.079 233.350,328.781 232.067 C 329.072 231.847,329.362 231.667,329.424 231.667 C 329.532 231.667,330.213 231.181,332.643 229.372 C 333.961 228.391,336.180 226.548,337.445 225.384 C 339.201 223.769,339.603 223.519,339.183 224.302 C 338.341 225.877,337.728 231.149,338.151 233.181 C 339.562 239.946,350.478 240.086,362.333 233.492 C 362.837 233.211,363.425 232.867,363.639 232.728 C 363.854 232.588,364.047 232.498,364.069 232.528 C 364.091 232.559,364.208 232.846,364.330 233.167 C 367.480 241.489,385.170 240.130,390.945 231.122 C 394.063 226.260,393.656 221.845,389.538 215.858 C 385.970 210.668,385.745 210.155,386.167 208.163 C 386.679 205.755,389.602 203.942,393.000 203.927 C 395.109 203.918,396.027 204.378,397.186 206.025 C 397.565 206.564,398.254 206.253,398.417 205.469 C 398.481 205.165,398.863 204.289,399.266 203.523 C 400.803 200.604,399.852 199.559,396.084 200.024 C 392.860 200.422,389.374 202.362,386.197 205.525 C 381.138 210.562,380.667 214.264,384.364 219.944 C 385.673 221.954,386.211 222.858,386.431 223.417 C 386.540 223.692,386.815 224.376,387.043 224.937 C 389.151 230.116,386.438 235.273,381.000 236.423 C 375.494 237.587,371.553 235.961,369.316 231.603 C 368.202 229.433,368.164 229.694,369.763 228.509 C 370.535 227.938,371.167 227.402,371.167 227.318 C 371.167 227.235,371.260 227.166,371.375 227.165 C 371.490 227.164,371.971 226.808,372.445 226.373 C 372.919 225.939,373.557 225.359,373.862 225.084 C 376.674 222.556,381.067 217.898,381.690 216.787 C 381.894 216.422,381.381 215.833,380.866 215.838 C 380.526 215.842,380.223 216.076,379.621 216.797 C 376.856 220.112,374.061 222.913,370.036 226.403 C 369.552 226.823,369.101 227.167,369.034 227.167 C 368.968 227.167,368.718 227.348,368.479 227.570 C 368.240 227.791,367.416 228.406,366.647 228.935 C 365.879 229.465,365.225 229.959,365.194 230.033 C 365.164 230.106,365.041 230.167,364.921 230.167 C 364.802 230.167,364.331 230.424,363.874 230.737 C 358.651 234.330,350.685 235.968,347.704 234.061 C 344.761 232.178,344.340 226.892,346.593 220.087 C 347.778 216.510,347.783 216.506,350.417 216.502 C 352.258 216.500,353.858 216.235,356.000 215.580 C 356.779 215.342,357.642 215.086,357.917 215.013 C 358.362 214.894,358.927 214.631,361.222 213.469 C 366.190 210.954,370.281 204.165,368.698 201.062 C 367.180 198.085,360.480 198.969,354.833 202.890 C 352.651 204.406,347.167 209.489,347.167 209.996 C 347.167 210.057,346.935 210.364,346.652 210.678 C 346.158 211.228,344.422 213.573,344.089 214.142 C 344.001 214.293,343.709 214.744,343.440 215.145 C 342.892 215.961,341.860 217.817,341.243 219.098 C 340.784 220.048,338.300 222.561,335.250 225.159 C 334.242 226.018,333.357 226.821,333.283 226.943 C 333.210 227.066,333.060 227.167,332.950 227.167 C 332.840 227.167,332.412 227.470,332.000 227.840 C 331.587 228.210,331.093 228.603,330.902 228.715 C 330.711 228.826,329.627 229.535,328.493 230.292 C 327.359 231.048,326.379 231.667,326.314 231.667 C 326.249 231.667,325.674 231.963,325.035 232.325 C 324.396 232.687,323.433 233.144,322.895 233.341 C 322.357 233.539,321.392 233.891,320.750 234.124 C 318.260 235.030,314.367 235.126,313.052 234.314 C 310.393 232.671,310.369 227.669,312.989 221.257 C 313.362 220.344,313.667 219.542,313.667 219.475 C 313.667 219.408,314.004 218.636,314.417 217.759 C 314.829 216.882,315.167 216.130,315.167 216.089 C 315.167 215.928,317.216 211.829,318.169 210.083 C 318.719 209.075,319.360 207.845,319.593 207.351 C 319.826 206.857,320.224 206.144,320.478 205.768 C 320.731 205.391,321.136 204.699,321.376 204.230 C 321.617 203.761,322.006 203.094,322.240 202.749 C 322.475 202.403,322.667 202.045,322.667 201.952 C 322.667 201.860,322.943 201.368,323.281 200.858 C 323.619 200.349,324.073 199.591,324.290 199.174 C 324.507 198.758,324.937 198.004,325.246 197.500 C 325.556 196.996,326.160 196.007,326.589 195.302 C 327.125 194.422,327.512 193.970,327.825 193.861 C 328.076 193.774,328.788 193.394,329.407 193.018 C 330.027 192.641,330.582 192.333,330.640 192.333 C 330.698 192.333,331.234 192.009,331.831 191.613 C 333.931 190.220,335.254 189.372,335.612 189.188 C 335.811 189.086,336.074 188.903,336.195 188.783 C 336.317 188.662,336.988 188.178,337.687 187.708 C 338.386 187.237,339.063 186.747,339.191 186.619 C 339.319 186.491,339.609 186.287,339.837 186.166 C 340.064 186.046,340.550 185.696,340.917 185.389 C 341.283 185.083,342.628 184.006,343.906 182.996 C 348.751 179.164,355.191 173.044,359.885 167.811 C 360.326 167.319,360.926 166.651,361.219 166.327 C 361.511 166.002,361.902 165.552,362.087 165.327 C 362.272 165.101,363.060 164.154,363.837 163.221 C 364.614 162.289,365.550 161.144,365.917 160.676 C 366.283 160.208,366.939 159.396,367.374 158.871 C 367.808 158.346,368.164 157.857,368.165 157.785 C 368.166 157.712,368.322 157.487,368.513 157.285 C 368.924 156.848,370.605 154.535,371.094 153.734 C 371.284 153.424,371.591 153.001,371.777 152.793 C 372.113 152.419,374.022 149.568,374.150 149.250 C 374.187 149.158,374.543 148.624,374.942 148.062 C 375.340 147.501,375.667 146.994,375.667 146.937 C 375.667 146.880,376.042 146.256,376.500 145.551 C 376.958 144.846,377.333 144.212,377.333 144.143 C 377.333 144.073,377.571 143.665,377.861 143.235 C 378.151 142.805,378.589 142.070,378.834 141.602 C 381.143 137.187,381.833 135.824,381.833 135.680 C 381.833 135.587,382.137 134.889,382.508 134.130 C 382.879 133.371,383.252 132.487,383.337 132.167 C 383.422 131.846,383.792 130.721,384.160 129.667 C 386.001 124.387,384.449 121.733,380.063 122.663 M283.824 123.292 L 283.250 123.917 283.875 123.342 C 284.457 122.808,284.577 122.667,284.449 122.667 C 284.422 122.667,284.140 122.948,283.824 123.292 M376.221 128.157 C 377.768 129.868,376.464 136.745,373.332 143.399 C 372.966 144.177,372.667 144.857,372.667 144.912 C 372.667 144.966,372.380 145.517,372.029 146.136 C 371.678 146.755,371.302 147.516,371.193 147.828 C 371.085 148.140,370.893 148.512,370.767 148.656 C 370.641 148.799,370.315 149.339,370.042 149.856 C 369.520 150.844,368.772 152.067,367.458 154.083 C 367.023 154.751,366.667 155.371,366.667 155.462 C 366.667 155.552,366.561 155.714,366.431 155.821 C 366.302 155.928,365.758 156.651,365.223 157.428 C 363.142 160.446,361.152 163.074,359.260 165.302 C 358.613 166.065,357.885 166.945,357.644 167.260 C 357.402 167.574,356.989 168.049,356.727 168.315 C 356.465 168.581,355.875 169.217,355.417 169.729 C 354.420 170.843,348.315 176.955,347.202 177.954 C 344.270 180.584,343.024 181.638,340.904 183.274 C 340.163 183.846,339.460 184.431,339.341 184.574 C 339.223 184.716,339.046 184.833,338.949 184.833 C 338.851 184.833,338.429 185.120,338.011 185.470 C 337.592 185.821,336.387 186.681,335.333 187.382 C 334.279 188.083,333.229 188.808,333.000 188.991 C 332.771 189.175,332.516 189.328,332.434 189.330 C 332.352 189.332,331.897 189.590,331.424 189.904 C 329.848 190.951,328.913 191.398,329.228 190.955 C 329.373 190.750,329.731 190.171,330.024 189.667 C 330.316 189.162,330.826 188.338,331.157 187.833 C 331.488 187.329,331.850 186.767,331.961 186.583 C 333.452 184.115,333.887 183.424,334.322 182.823 C 334.603 182.435,334.833 182.061,334.833 181.994 C 334.833 181.927,335.152 181.394,335.541 180.811 C 335.931 180.228,336.362 179.554,336.500 179.315 C 336.879 178.653,337.668 177.402,338.476 176.181 C 338.875 175.577,339.250 174.971,339.309 174.833 C 339.368 174.696,339.710 174.133,340.069 173.583 C 341.114 171.980,342.208 170.258,342.788 169.303 C 343.084 168.816,343.797 167.687,344.372 166.796 C 344.946 165.904,345.784 164.592,346.233 163.879 C 346.682 163.166,347.389 162.058,347.804 161.417 C 348.528 160.299,349.752 158.373,350.090 157.822 C 350.464 157.211,351.670 155.360,352.146 154.667 C 353.035 153.372,354.407 151.248,354.639 150.809 C 354.761 150.576,355.080 150.131,355.348 149.818 C 355.616 149.506,355.879 149.113,355.933 148.945 C 355.987 148.778,356.380 148.161,356.807 147.575 C 357.889 146.089,358.527 145.181,358.917 144.573 C 359.100 144.287,359.813 143.318,360.500 142.419 C 361.188 141.520,361.928 140.514,362.145 140.184 C 362.362 139.854,362.742 139.358,362.989 139.083 C 363.236 138.808,363.546 138.423,363.678 138.227 C 363.809 138.031,364.592 137.028,365.417 135.999 C 371.614 128.262,374.454 126.201,376.221 128.157 M53.167 161.175 C 52.021 161.257,50.071 161.441,48.833 161.584 C 47.596 161.727,45.801 161.919,44.846 162.011 C 43.297 162.161,41.978 162.403,36.833 163.481 C 34.761 163.915,31.886 164.797,27.250 166.419 C 26.792 166.580,25.656 167.038,24.726 167.439 C 23.797 167.839,22.979 168.167,22.909 168.167 C 22.677 168.167,18.261 170.385,17.408 170.930 C 16.360 171.600,15.692 172.586,15.489 173.763 C 15.403 174.260,15.260 175.098,15.170 175.625 C 15.080 176.152,14.695 177.498,14.315 178.615 C 13.540 180.895,13.550 181.167,14.416 181.167 C 14.908 181.167,15.038 181.089,15.181 180.712 C 15.276 180.462,15.410 180.218,15.479 180.170 C 15.547 180.122,15.960 179.507,16.396 178.802 C 16.832 178.097,17.408 177.272,17.675 176.968 C 17.943 176.665,18.163 176.342,18.164 176.250 C 18.172 175.763,22.361 171.817,23.995 170.759 C 26.946 168.846,36.330 165.000,38.045 165.000 C 38.258 165.000,39.104 164.855,39.924 164.679 C 45.333 163.514,46.493 163.960,44.901 166.593 C 44.572 167.138,44.082 168.033,43.811 168.583 C 43.540 169.133,42.917 170.296,42.427 171.167 C 41.936 172.037,41.229 173.335,40.856 174.050 C 40.483 174.765,40.025 175.544,39.839 175.781 C 39.652 176.018,39.500 176.287,39.500 176.380 C 39.500 176.472,39.125 177.171,38.667 177.933 C 38.208 178.694,37.833 179.364,37.833 179.420 C 37.833 179.477,37.496 180.079,37.083 180.759 C 36.671 181.438,36.333 182.054,36.333 182.127 C 36.333 182.200,35.996 182.783,35.584 183.422 C 35.173 184.061,34.835 184.639,34.834 184.707 C 34.834 184.775,34.496 185.373,34.083 186.036 C 33.671 186.699,33.333 187.293,33.333 187.355 C 33.333 187.418,32.996 187.982,32.584 188.610 C 32.171 189.237,31.834 189.820,31.834 189.904 C 31.833 189.989,31.580 190.439,31.270 190.904 C 30.761 191.670,30.011 192.942,29.073 194.631 C 28.885 194.972,28.437 195.700,28.080 196.250 C 27.722 196.800,27.277 197.529,27.090 197.870 C 26.903 198.210,26.300 199.211,25.750 200.094 C 25.200 200.976,24.563 202.024,24.333 202.423 C 23.551 203.784,22.278 205.804,20.388 208.682 C 19.991 209.287,19.667 209.857,19.667 209.949 C 19.667 210.040,19.518 210.287,19.336 210.497 C 19.154 210.706,18.664 211.449,18.246 212.147 C 17.829 212.845,17.351 213.604,17.185 213.833 C 17.018 214.063,16.483 214.887,15.994 215.667 C 15.506 216.446,14.463 218.058,13.678 219.250 C 12.893 220.442,12.195 221.550,12.128 221.714 C 12.061 221.878,11.786 222.290,11.517 222.631 C 11.247 222.971,10.890 223.489,10.722 223.781 C 10.262 224.581,9.170 226.228,8.375 227.321 C 7.985 227.857,7.667 228.345,7.667 228.405 C 7.667 228.465,7.382 228.905,7.033 229.382 C 6.685 229.859,6.194 230.588,5.942 231.000 C 5.690 231.412,5.002 232.425,4.413 233.250 C 3.825 234.075,3.199 235.012,3.021 235.333 C 2.844 235.654,2.511 236.134,2.281 236.400 C 2.051 236.666,1.762 237.079,1.640 237.317 C 1.517 237.555,1.085 238.191,0.681 238.729 C -0.663 240.516,0.497 241.107,2.185 239.495 C 4.815 236.983,6.995 236.413,11.741 236.999 C 13.810 237.254,13.740 237.288,14.520 235.633 C 15.263 234.058,17.503 229.611,18.873 226.992 C 21.249 222.454,21.732 221.555,22.191 220.819 C 22.452 220.398,22.667 219.954,22.667 219.832 C 22.667 219.710,22.773 219.491,22.902 219.346 C 23.032 219.202,23.485 218.412,23.910 217.591 C 24.335 216.770,24.749 216.019,24.830 215.920 C 24.912 215.822,25.275 215.181,25.637 214.496 C 26.458 212.942,27.755 210.579,28.151 209.917 C 28.315 209.642,28.885 208.629,29.417 207.667 C 29.949 206.704,30.710 205.381,31.109 204.727 C 31.507 204.073,31.833 203.483,31.833 203.417 C 31.833 203.350,32.154 202.760,32.545 202.106 C 32.937 201.452,33.382 200.692,33.535 200.417 C 34.381 198.895,35.118 197.637,35.690 196.738 C 36.044 196.182,36.333 195.676,36.333 195.615 C 36.333 195.553,36.671 194.960,37.083 194.297 C 37.496 193.634,37.833 193.029,37.833 192.952 C 37.833 192.874,38.011 192.572,38.227 192.281 C 38.444 191.989,38.890 191.254,39.218 190.647 C 39.546 190.040,40.044 189.204,40.324 188.789 C 40.604 188.374,40.833 187.987,40.833 187.929 C 40.833 187.870,41.171 187.310,41.583 186.684 C 41.996 186.058,42.333 185.471,42.333 185.379 C 42.333 185.287,42.492 185.010,42.686 184.763 C 42.880 184.516,43.386 183.726,43.811 183.007 C 44.236 182.287,45.033 180.978,45.583 180.096 C 46.133 179.215,46.698 178.289,46.839 178.039 C 47.095 177.584,48.188 175.884,49.319 174.184 C 49.648 173.689,49.954 173.201,50.000 173.100 C 50.046 172.999,50.646 172.101,51.333 171.104 C 52.021 170.107,52.771 169.008,53.000 168.661 C 54.448 166.470,55.814 164.974,57.059 164.216 C 60.106 162.360,68.939 163.282,72.706 165.848 C 73.232 166.207,73.707 166.500,73.760 166.500 C 74.020 166.500,75.603 168.214,76.294 169.244 C 79.889 174.602,78.473 183.298,73.083 188.964 C 71.962 190.143,69.347 192.333,69.061 192.333 C 69.015 192.333,68.663 192.548,68.280 192.809 C 65.982 194.380,60.312 196.440,56.083 197.239 C 51.864 198.038,50.459 198.195,46.750 198.285 C 41.967 198.400,41.888 198.450,43.250 200.517 C 43.662 201.144,44.000 201.716,44.000 201.789 C 44.000 201.861,44.249 202.295,44.552 202.752 C 45.049 203.500,45.522 204.293,46.833 206.576 C 47.063 206.976,47.508 207.740,47.824 208.276 C 48.140 208.812,48.521 209.475,48.672 209.750 C 48.930 210.220,49.472 211.130,50.657 213.083 C 51.270 214.093,52.706 216.521,53.960 218.667 C 54.469 219.537,55.085 220.550,55.329 220.917 C 55.574 221.283,55.946 221.921,56.156 222.333 C 56.366 222.746,56.774 223.458,57.063 223.917 C 57.352 224.375,57.696 224.938,57.828 225.167 C 58.570 226.455,59.938 228.653,60.276 229.099 C 60.491 229.383,60.667 229.667,60.667 229.731 C 60.667 229.795,61.285 230.750,62.042 231.852 C 62.798 232.955,63.492 233.982,63.583 234.134 C 63.675 234.286,64.052 234.824,64.422 235.330 C 64.791 235.836,65.299 236.550,65.551 236.917 C 66.199 237.858,66.785 238.669,67.240 239.250 C 67.705 239.845,68.887 241.372,69.577 242.273 C 70.056 242.897,70.604 243.549,72.054 245.217 C 73.055 246.368,77.967 251.304,78.842 252.038 C 79.250 252.379,79.946 252.962,80.389 253.332 C 81.245 254.049,82.859 255.210,83.726 255.733 C 84.014 255.907,84.625 256.290,85.083 256.583 C 90.103 259.797,95.718 261.724,104.083 263.104 C 106.570 263.514,118.227 263.628,120.629 263.266 C 126.061 262.446,131.862 260.558,137.500 257.774 L 139.250 256.909 139.301 256.205 C 139.359 255.410,138.945 255.255,138.026 255.728 C 137.082 256.214,134.392 257.452,133.917 257.620 C 133.642 257.717,132.704 258.063,131.833 258.389 C 123.210 261.621,114.245 261.742,105.083 258.749 C 103.067 258.091,97.603 255.534,96.709 254.831 C 96.478 254.649,96.218 254.500,96.132 254.500 C 95.902 254.500,92.451 252.208,90.917 251.035 C 85.980 247.262,81.275 242.664,77.494 237.917 C 76.910 237.183,76.260 236.404,76.050 236.186 C 75.839 235.967,75.667 235.729,75.667 235.658 C 75.667 235.586,75.329 235.132,74.917 234.649 C 74.504 234.165,74.167 233.713,74.167 233.643 C 74.167 233.573,73.810 233.029,73.375 232.434 C 71.996 230.550,71.594 229.987,71.167 229.339 C 70.938 228.991,70.262 228.013,69.667 227.164 C 69.071 226.316,68.499 225.500,68.395 225.352 C 68.204 225.079,65.925 221.654,65.167 220.501 C 64.938 220.153,64.278 219.117,63.701 218.198 C 63.124 217.280,62.543 216.438,62.409 216.327 C 62.276 216.216,62.167 216.048,62.167 215.954 C 62.167 215.859,61.829 215.268,61.417 214.641 C 59.605 211.885,58.261 209.751,57.500 208.419 C 57.271 208.018,56.633 206.932,56.083 206.006 C 55.533 205.080,54.919 204.018,54.718 203.646 C 54.517 203.274,54.053 202.470,53.687 201.860 C 52.412 199.737,52.451 199.676,55.333 199.258 C 56.387 199.106,57.813 198.865,58.500 198.723 C 59.188 198.582,60.190 198.403,60.727 198.326 C 61.903 198.158,65.675 197.021,67.750 196.208 C 68.575 195.885,69.542 195.516,69.900 195.386 C 72.180 194.562,77.151 191.631,79.417 189.777 C 81.318 188.221,84.833 184.643,84.833 184.264 C 84.833 184.203,85.122 183.762,85.476 183.285 C 88.441 179.279,89.116 172.893,86.960 169.250 C 84.242 164.660,79.148 162.482,68.417 161.323 C 66.227 161.086,55.823 160.985,53.167 161.175 M147.333 193.511 C 147.333 193.608,147.560 193.879,147.836 194.111 C 151.438 197.142,149.608 210.017,144.641 216.599 C 144.288 217.066,144.000 217.501,144.000 217.567 C 144.000 218.169,139.345 223.162,137.158 224.906 C 136.475 225.451,135.566 226.182,135.137 226.531 C 134.708 226.881,134.282 227.167,134.191 227.167 C 134.100 227.167,133.814 227.342,133.554 227.555 C 132.368 228.534,127.481 231.115,125.481 231.818 C 124.987 231.992,124.302 232.255,123.958 232.403 C 123.068 232.785,123.185 232.497,124.292 231.581 C 126.400 229.836,129.536 226.275,130.447 224.590 C 131.234 223.135,131.720 222.057,131.840 221.500 C 131.909 221.179,132.273 219.502,132.649 217.772 C 133.025 216.043,133.333 214.432,133.333 214.192 C 133.333 212.696,135.509 205.187,136.373 203.700 C 136.756 203.043,138.533 201.333,138.835 201.333 C 139.097 201.333,139.026 200.500,138.755 200.396 C 138.621 200.344,137.664 200.505,136.630 200.754 C 135.596 201.003,134.112 201.299,133.333 201.411 C 131.143 201.726,123.301 203.021,122.833 203.145 C 122.516 203.230,122.404 203.383,122.365 203.789 C 122.279 204.667,122.848 204.693,126.479 203.978 C 129.708 203.342,129.801 203.466,128.786 207.057 C 127.991 209.872,127.431 212.518,127.253 214.303 C 127.113 215.705,127.048 215.833,126.477 215.833 C 126.166 215.833,125.949 215.939,125.878 216.125 C 125.816 216.285,125.643 216.529,125.493 216.667 C 125.342 216.804,124.615 217.632,123.875 218.507 C 121.742 221.031,116.563 225.952,114.772 227.156 C 114.577 227.287,114.192 227.596,113.917 227.842 C 113.642 228.088,112.629 228.796,111.667 229.416 C 110.704 230.035,109.726 230.674,109.492 230.834 C 105.688 233.453,99.329 235.298,95.750 234.821 C 91.150 234.209,89.624 229.330,91.764 222.078 C 92.007 221.256,92.274 220.295,92.357 219.942 C 92.645 218.726,93.674 216.704,94.058 216.601 C 94.255 216.548,95.177 216.504,96.107 216.502 C 105.277 216.490,114.833 209.393,114.833 202.596 C 114.833 197.074,104.468 198.776,97.269 205.480 C 84.625 217.255,79.427 234.935,87.796 237.696 C 90.852 238.704,96.124 238.405,100.083 236.998 C 100.908 236.705,101.891 236.368,102.266 236.248 C 102.939 236.035,106.780 234.186,108.087 233.447 C 109.004 232.929,110.592 231.987,111.232 231.583 C 112.328 230.891,115.743 228.399,116.693 227.597 C 117.028 227.315,117.661 226.783,118.101 226.417 C 120.477 224.433,124.806 220.087,126.152 218.333 C 126.640 217.697,126.666 217.934,126.315 219.833 C 126.138 220.796,125.920 222.081,125.833 222.689 C 124.843 229.551,120.566 234.667,115.818 234.667 C 115.323 234.667,115.187 234.739,115.107 235.042 C 114.990 235.486,117.516 238.167,118.052 238.167 C 118.832 238.167,121.197 237.415,122.284 236.822 C 122.944 236.462,123.582 236.161,123.700 236.155 C 123.819 236.148,124.367 235.849,124.917 235.490 C 125.467 235.131,126.091 234.761,126.305 234.668 C 126.735 234.480,129.406 232.723,130.833 231.688 C 131.337 231.323,132.050 230.813,132.417 230.554 C 133.003 230.140,135.801 227.963,136.495 227.379 C 143.657 221.360,148.677 215.963,151.993 210.719 C 156.619 203.405,155.824 195.289,150.319 193.616 C 149.277 193.300,147.333 193.231,147.333 193.511 M179.132 199.731 C 177.407 200.128,174.549 201.445,173.212 202.458 C 172.819 202.756,172.427 203.000,172.342 203.000 C 172.179 203.000,171.488 203.558,169.189 205.545 C 167.768 206.772,164.035 210.807,163.658 211.523 C 163.544 211.739,163.395 211.954,163.328 212.000 C 163.099 212.157,160.797 215.573,160.637 215.995 C 160.549 216.227,160.376 216.529,160.253 216.666 C 159.848 217.118,157.885 221.218,157.340 222.750 C 154.780 229.949,155.245 235.120,158.640 237.227 C 161.132 238.773,167.672 238.588,172.499 236.835 C 173.462 236.485,174.418 236.150,174.623 236.089 C 175.124 235.941,178.448 234.336,180.000 233.492 C 181.167 232.857,181.982 232.351,183.833 231.110 C 184.246 230.833,184.921 230.383,185.333 230.110 C 185.746 229.837,186.285 229.429,186.531 229.203 C 186.777 228.976,187.125 228.707,187.305 228.604 C 187.599 228.435,188.814 227.459,190.560 225.987 L 191.203 225.445 190.913 226.014 C 190.753 226.327,190.474 226.793,190.294 227.050 C 189.977 227.501,189.166 228.905,188.097 230.854 C 187.815 231.369,187.330 232.231,187.020 232.770 C 186.622 233.462,186.432 234.029,186.375 234.698 L 186.295 235.646 187.189 236.592 C 189.203 238.724,189.648 238.471,192.343 233.676 C 192.578 233.258,192.987 232.579,193.252 232.167 C 193.517 231.754,193.887 231.137,194.075 230.794 C 194.955 229.191,195.942 227.509,196.446 226.752 C 196.751 226.295,197.000 225.861,197.000 225.789 C 197.000 225.716,197.328 225.152,197.729 224.536 C 198.130 223.920,198.486 223.342,198.521 223.250 C 198.637 222.946,200.878 219.605,201.192 219.268 C 201.361 219.086,201.500 218.875,201.500 218.800 C 201.500 218.724,201.840 218.232,202.255 217.706 C 202.670 217.180,203.065 216.675,203.133 216.583 C 205.358 213.559,211.674 207.500,212.601 207.500 C 212.650 207.500,213.228 207.180,213.887 206.789 C 218.289 204.172,222.514 204.688,224.425 208.076 C 224.739 208.631,225.389 208.289,225.903 207.298 C 226.541 206.068,227.093 205.208,228.294 203.568 L 229.338 202.143 229.014 201.409 C 227.858 198.796,222.314 199.277,217.407 202.415 C 216.905 202.737,216.428 203.000,216.348 203.000 C 216.269 203.000,215.745 203.338,215.185 203.750 C 214.624 204.162,214.129 204.500,214.083 204.500 C 213.932 204.500,210.922 206.787,210.599 207.146 C 210.425 207.341,210.212 207.500,210.126 207.500 C 209.939 207.500,206.635 210.483,205.892 211.323 C 204.676 212.697,205.370 211.140,207.595 207.500 C 208.184 206.537,208.784 205.487,208.929 205.167 C 209.073 204.846,209.336 204.278,209.513 203.906 C 210.304 202.234,208.908 199.946,206.863 199.562 C 206.146 199.428,205.877 199.713,204.911 201.635 C 204.556 202.340,204.178 203.029,204.070 203.167 C 203.962 203.304,203.610 203.904,203.287 204.500 C 202.414 206.109,201.250 208.161,200.781 208.917 C 200.554 209.283,200.164 209.950,199.916 210.397 C 199.668 210.845,199.247 211.553,198.982 211.971 C 198.717 212.390,198.500 212.797,198.500 212.878 C 198.500 212.958,198.285 213.337,198.022 213.720 C 197.760 214.103,197.322 214.829,197.050 215.333 C 196.777 215.838,196.328 216.625,196.052 217.083 C 195.776 217.542,195.185 218.537,194.740 219.295 C 193.619 221.202,189.515 225.142,185.888 227.793 C 185.354 228.183,184.424 228.864,183.822 229.305 C 183.219 229.747,182.613 230.151,182.475 230.205 C 182.337 230.258,181.780 230.590,181.237 230.942 C 180.694 231.295,180.063 231.659,179.833 231.752 C 179.604 231.844,178.929 232.177,178.333 232.490 C 177.308 233.031,174.981 233.927,173.333 234.416 C 169.926 235.428,166.213 234.959,164.490 233.298 C 162.523 231.404,162.363 225.313,164.149 220.333 C 165.543 216.445,165.482 216.506,168.000 216.502 C 171.887 216.497,178.273 214.448,180.408 212.521 C 180.596 212.351,180.874 212.146,181.025 212.064 C 181.341 211.894,183.166 210.172,183.945 209.309 C 184.956 208.189,186.146 205.905,186.433 204.535 C 187.375 200.030,184.899 198.400,179.132 199.731 M247.029 200.021 C 245.783 200.173,245.118 200.372,243.697 201.020 C 243.117 201.284,242.588 201.500,242.519 201.500 C 242.451 201.500,241.892 201.838,241.277 202.250 C 240.662 202.662,240.113 203.000,240.056 203.000 C 239.818 203.000,236.837 205.814,235.904 206.920 C 232.829 210.563,232.159 214.351,234.011 217.628 C 234.308 218.153,234.699 218.845,234.879 219.166 C 235.059 219.486,235.440 220.086,235.725 220.499 C 236.010 220.912,236.365 221.475,236.515 221.750 C 236.665 222.025,237.018 222.662,237.299 223.167 C 240.203 228.362,238.336 234.442,233.333 236.079 C 226.989 238.155,221.486 235.743,219.653 230.083 C 219.144 228.513,218.924 228.396,218.019 229.213 C 217.670 229.528,216.904 230.110,216.317 230.505 C 215.014 231.384,215.017 231.380,215.124 232.230 C 215.648 236.398,220.202 238.866,226.917 238.620 C 230.643 238.484,235.509 237.005,237.667 235.353 C 237.987 235.108,238.438 234.785,238.667 234.636 C 242.321 232.260,244.720 226.433,243.814 222.133 C 243.485 220.571,241.434 216.837,239.805 214.837 C 239.546 214.518,239.333 214.201,239.333 214.132 C 239.333 214.063,239.033 213.611,238.666 213.128 C 235.522 208.987,237.137 205.153,242.481 204.076 C 244.840 203.600,246.647 204.043,247.636 205.339 C 248.339 206.260,248.608 206.423,248.955 206.135 C 249.198 205.933,250.000 204.272,250.000 203.971 C 250.000 203.887,250.262 203.407,250.583 202.905 C 251.988 200.710,250.601 199.585,247.029 200.021 M286.934 201.208 C 286.784 201.415,286.573 201.771,286.465 202.000 C 286.357 202.229,285.979 202.916,285.625 203.526 C 284.969 204.656,284.686 205.167,283.686 207.029 C 283.376 207.606,282.832 208.538,282.478 209.099 C 282.123 209.660,281.833 210.167,281.833 210.225 C 281.833 210.283,281.496 210.856,281.083 211.500 C 280.671 212.144,280.333 212.717,280.333 212.775 C 280.333 212.832,279.996 213.391,279.583 214.017 C 279.171 214.644,278.833 215.205,278.833 215.265 C 278.833 215.325,278.496 215.847,278.083 216.425 C 277.671 217.003,277.333 217.519,277.333 217.571 C 277.333 217.662,275.167 220.653,274.729 221.167 C 272.694 223.554,270.033 226.480,269.359 227.073 C 269.144 227.262,268.356 227.994,267.609 228.700 C 266.862 229.405,266.010 230.155,265.717 230.366 C 265.425 230.577,264.483 231.275,263.625 231.917 C 261.923 233.189,261.753 233.298,260.196 234.114 C 257.659 235.444,257.199 234.140,258.630 229.667 C 260.058 225.200,262.897 219.940,266.724 214.667 C 267.362 213.788,267.596 213.494,268.970 211.848 C 274.554 205.157,281.221 200.969,286.479 200.850 C 287.205 200.833,287.206 200.835,286.934 201.208 M108.264 201.608 C 110.225 202.893,109.020 207.587,105.838 211.058 C 104.362 212.669,101.185 214.396,98.880 214.841 C 97.872 215.036,94.947 215.002,94.738 214.794 C 94.629 214.685,95.579 212.597,95.934 212.167 C 96.047 212.029,96.415 211.429,96.750 210.833 C 97.086 210.237,97.582 209.450,97.853 209.083 C 98.123 208.717,98.511 208.178,98.714 207.886 C 102.038 203.113,106.292 200.316,108.264 201.608 M180.480 201.920 C 181.477 203.055,181.142 206.149,179.785 208.347 C 179.583 208.675,179.267 209.188,179.083 209.487 C 177.272 212.436,172.570 215.003,168.989 214.998 C 166.984 214.995,166.494 214.872,166.668 214.413 C 166.856 213.919,168.468 211.136,169.142 210.142 C 169.430 209.717,169.667 209.326,169.667 209.273 C 169.667 209.005,172.347 205.658,173.465 204.530 C 176.476 201.493,179.212 200.475,180.480 201.920 M362.564 201.681 C 364.461 203.173,363.272 207.647,360.097 210.969 C 359.296 211.808,357.176 213.500,356.927 213.500 C 356.864 213.500,356.397 213.690,355.891 213.921 C 354.083 214.748,352.595 215.048,350.713 214.964 C 348.676 214.874,348.685 214.879,349.200 213.967 C 349.422 213.573,349.705 213.063,349.828 212.833 C 350.227 212.091,350.317 211.937,351.167 210.531 C 351.629 209.770,352.143 209.000,352.310 208.820 C 352.477 208.641,352.719 208.289,352.848 208.039 C 352.978 207.788,353.165 207.508,353.264 207.417 C 353.364 207.325,353.905 206.679,354.466 205.980 C 357.420 202.302,360.963 200.422,362.564 201.681 " stroke="none" fill="#092040" fill-rule="evenodd"></path><path id="path2" d="" stroke="none" fill="#ff0000" fill-rule="evenodd"></path><path id="path3" d="M312.128 28.125 C 311.531 28.560,310.124 29.554,309.002 30.333 C 307.879 31.113,306.538 32.054,306.022 32.426 C 304.731 33.357,302.084 35.214,301.113 35.872 C 300.671 36.172,300.165 36.548,299.988 36.708 C 299.811 36.869,299.608 37.000,299.535 37.000 C 299.463 37.000,299.144 37.222,298.827 37.493 C 298.510 37.765,298.162 37.990,298.056 37.993 C 297.949 37.997,297.836 38.063,297.806 38.141 C 297.775 38.218,297.112 38.718,296.333 39.252 C 295.554 39.785,294.330 40.641,293.613 41.153 C 292.895 41.664,292.021 42.271,291.669 42.500 C 290.949 42.969,290.127 43.553,288.557 44.708 C 287.966 45.144,287.443 45.500,287.395 45.500 C 287.347 45.500,286.882 45.823,286.362 46.219 C 285.842 46.614,285.154 47.101,284.833 47.302 C 283.584 48.083,283.562 48.114,283.942 48.540 C 284.126 48.747,285.388 50.792,286.746 53.083 C 288.104 55.375,289.494 57.700,289.836 58.250 C 290.177 58.800,294.268 65.625,298.926 73.417 C 303.584 81.208,308.463 89.365,309.768 91.544 L 312.141 95.504 312.998 94.669 C 313.470 94.209,313.897 93.833,313.948 93.833 C 313.999 93.833,314.601 93.252,315.285 92.542 C 315.969 91.831,317.553 90.199,318.806 88.913 C 321.461 86.190,322.923 84.619,324.083 83.245 C 324.542 82.702,327.204 79.706,330.000 76.587 C 332.796 73.468,335.758 70.134,336.583 69.180 C 337.408 68.225,338.327 67.163,338.625 66.820 C 339.318 66.023,339.562 66.566,336.444 61.949 C 331.767 55.020,325.796 46.157,320.085 37.667 C 318.266 34.962,316.077 31.721,315.220 30.464 C 314.364 29.207,313.591 27.988,313.502 27.756 C 313.300 27.223,313.400 27.196,312.128 28.125 M96.880 35.793 C 96.401 36.503,95.314 38.098,94.463 39.338 C 93.613 40.577,92.054 42.850,91.000 44.387 C 89.127 47.119,82.773 56.350,80.369 59.833 C 79.704 60.796,78.555 62.474,77.814 63.562 C 77.073 64.650,75.317 67.219,73.912 69.270 L 71.358 73.000 75.166 77.036 C 77.261 79.256,78.931 81.149,78.878 81.244 C 78.824 81.339,78.844 81.359,78.921 81.288 C 79.054 81.167,80.500 82.441,80.500 82.679 C 80.500 82.740,81.210 83.486,82.078 84.336 C 82.945 85.187,83.615 85.949,83.565 86.029 C 83.516 86.109,83.545 86.154,83.630 86.129 C 83.715 86.104,84.041 86.383,84.355 86.750 C 84.668 87.117,86.292 88.766,87.962 90.415 C 89.633 92.064,91.000 93.508,91.000 93.623 C 91.000 93.739,91.065 93.833,91.145 93.833 C 91.225 93.833,91.694 94.259,92.187 94.780 C 93.866 96.553,98.360 100.848,98.648 100.954 C 98.704 100.975,100.042 98.838,101.620 96.204 C 103.199 93.571,105.512 89.729,106.760 87.667 C 108.008 85.604,109.650 82.867,110.408 81.583 C 111.166 80.300,114.975 73.949,118.871 67.469 L 125.954 55.688 125.436 55.201 C 125.150 54.934,124.785 54.669,124.625 54.613 C 124.465 54.556,124.333 54.439,124.333 54.353 C 124.333 54.218,122.535 52.841,118.756 50.083 C 117.015 48.813,114.465 46.914,113.609 46.250 C 113.137 45.883,112.629 45.508,112.481 45.417 C 112.334 45.325,111.284 44.553,110.148 43.701 C 109.012 42.850,107.783 41.929,107.417 41.655 C 107.050 41.381,106.289 40.803,105.726 40.370 C 104.064 39.093,97.866 34.500,97.805 34.501 C 97.775 34.502,97.358 35.083,96.880 35.793 M265.745 61.820 C 265.427 62.130,264.630 62.744,258.583 67.334 C 257.025 68.517,254.362 70.540,252.667 71.829 C 250.971 73.119,247.577 75.681,245.125 77.524 C 240.845 80.740,240.481 81.071,240.817 81.425 C 240.899 81.512,241.677 82.821,242.545 84.333 C 244.419 87.600,247.199 92.402,251.108 99.126 C 251.627 100.019,252.590 101.688,253.248 102.833 C 253.906 103.979,254.881 105.667,255.415 106.583 C 256.592 108.603,260.062 114.592,265.505 124.000 C 266.902 126.415,268.312 128.843,269.375 130.667 C 269.829 131.446,270.508 132.628,270.884 133.294 C 271.260 133.960,271.623 134.485,271.691 134.461 C 271.809 134.418,281.631 125.195,282.493 124.318 C 282.831 123.973,292.300 114.960,293.790 113.564 C 293.997 113.370,294.167 113.159,294.167 113.094 C 294.167 112.986,293.054 110.903,288.997 103.417 C 287.423 100.510,284.009 94.200,281.379 89.333 C 280.462 87.638,279.488 85.837,279.214 85.333 C 278.736 84.454,278.030 83.150,273.213 74.250 C 272.022 72.050,270.337 68.938,269.468 67.333 C 265.833 60.624,266.285 61.294,265.745 61.820 M139.319 76.875 C 135.182 84.629,130.327 93.696,127.829 98.333 C 126.654 100.515,118.795 115.280,117.583 117.583 C 117.197 118.317,116.918 119.022,116.963 119.151 C 117.070 119.456,122.981 125.379,124.917 127.122 C 128.054 129.945,128.767 130.558,129.333 130.917 C 130.160 131.443,133.598 134.488,136.913 137.631 C 138.469 139.107,139.751 140.299,139.763 140.282 C 139.775 140.264,140.985 138.150,142.453 135.583 C 143.920 133.017,145.556 130.167,146.088 129.250 C 147.611 126.623,151.199 120.375,153.122 117.000 C 156.108 111.760,160.595 103.929,165.632 95.167 C 166.870 93.013,168.215 90.657,168.621 89.933 C 169.027 89.209,169.477 88.436,169.621 88.216 C 169.867 87.840,169.179 86.873,168.640 86.840 C 168.580 86.836,168.130 86.512,167.640 86.119 C 167.151 85.727,166.162 84.995,165.444 84.494 C 164.726 83.993,163.737 83.265,163.247 82.875 C 162.757 82.485,162.305 82.167,162.243 82.167 C 162.180 82.167,161.782 81.882,161.356 81.534 C 160.931 81.185,159.996 80.492,159.277 79.992 C 158.559 79.492,157.570 78.765,157.080 78.375 C 156.590 77.985,156.116 77.667,156.026 77.667 C 155.936 77.667,155.658 77.423,155.407 77.125 C 155.157 76.827,154.941 76.621,154.928 76.667 C 154.883 76.827,150.278 73.509,149.286 72.601 C 149.031 72.368,148.784 72.180,148.737 72.183 C 148.606 72.192,145.747 70.174,144.759 69.375 C 144.277 68.985,143.841 68.667,143.791 68.667 C 143.740 68.667,141.728 72.360,139.319 76.875 " stroke="none" fill="#eac376" fill-rule="evenodd"></path><path id="path4" d="M91.333 94.052 C 91.333 94.081,91.577 94.325,91.875 94.594 L 92.417 95.083 91.927 94.542 C 91.471 94.037,91.333 93.923,91.333 94.052 " stroke="none" fill="#ffff00" fill-rule="evenodd"></path></g></svg>