<?xml version="1.0" encoding="iso-8859-1"?>
<!-- Generator: Adobe Illustrator 19.0.0, SVG Export Plug-In . SVG Version: 6.00 Build 0)  -->
<svg version="1.1" id="Capa_1" xmlns="http://www.w3.org/2000/svg" xmlns:xlink="http://www.w3.org/1999/xlink" x="0px" y="0px"
	 viewBox="0 0 412.067 412.067" style="enable-background:new 0 0 412.067 412.067;" xml:space="preserve">
<polygon style="fill:#00EFD1;" points="289.625,398.766 206.033,398.766 122.441,398.766 10.115,398.766 31.535,266.587 
	380.531,266.587 401.952,398.766 "/>
<path style="fill:#00ACEA;" d="M380.531,208.595v57.992H31.535v-57.992c0-17.763,14.106-31.869,31.869-31.869h105.535V49.77
	c0-20.375,16.718-37.094,37.094-37.094c20.375,0.522,36.571,16.718,37.094,37.094v126.955h106.057
	c17.241,0,31.347,14.106,31.347,31.347C380.531,208.072,380.531,208.595,380.531,208.595z"/>
<path style="fill:#083863;" d="M411.878,398.244L388.89,268.677v-60.082c0-23.51-16.718-44.408-39.706-44.408h-96.131V49.77
	c0-12.539-4.702-24.555-13.584-33.437c-8.882-8.882-20.898-14.106-33.437-14.106c-26.122,0-47.02,20.898-47.02,47.02v0.522v114.416
	H62.882c-22.988,0-39.706,20.898-39.706,44.408v60.082L0.188,398.766c-0.522,2.612,0,5.747,2.09,7.837
	c2.09,2.09,4.702,3.657,7.837,3.135h391.837c3.135,0,5.747-1.045,7.837-3.135C411.878,404.513,412.401,401.379,411.878,398.244z
	 M44.074,208.595c0-12.016,7.314-23.51,18.808-23.51h106.057c5.747,0,10.971-2.612,10.971-8.359V49.77
	c-0.522-14.629,10.971-26.122,25.6-26.645h0.522c7.314,0,14.106,2.612,18.808,7.837c4.702,5.224,7.314,12.016,7.314,18.808v126.955
	c0,5.747,5.224,8.359,10.971,8.359h106.057c11.494,0,18.808,11.494,18.808,23.51v49.633H44.074L44.074,208.595L44.074,208.595z
	 M300.074,388.84v-47.02c0-5.747-4.702-10.449-10.449-10.449s-10.449,4.702-10.449,10.449v47.02h-62.694v-67.918
	c0-5.747-4.702-10.449-10.449-10.449c-5.747,0-10.449,4.702-10.449,10.449v67.918H132.89v-47.02c0-5.747-4.702-10.449-10.449-10.449
	s-10.449,4.702-10.449,10.449v47.02H22.654l17.763-109.714H371.65l17.763,109.714H300.074z"/>
<g>
</g>
<g>
</g>
<g>
</g>
<g>
</g>
<g>
</g>
<g>
</g>
<g>
</g>
<g>
</g>
<g>
</g>
<g>
</g>
<g>
</g>
<g>
</g>
<g>
</g>
<g>
</g>
<g>
</g>
</svg>
