<svg width="781" height="932" viewBox="0 0 781 932" fill="none" xmlns="http://www.w3.org/2000/svg">
<path d="M771.563 1361.09C747.514 1308.25 685.195 1284.9 632.482 1308.96C258.003 1479.34 -185.492 1313.07 -355.908 938.254C-475.716 674.607 -358.78 362.59 -95.1333 242.641C86.1079 160.091 301.042 240.546 383.596 421.993C438.424 542.712 384.879 685.54 264.318 740.378C188.569 774.907 99.2314 741.206 64.8698 665.684C45.6353 623.419 64.4141 573.343 106.722 554.101C159.54 530.094 182.872 467.756 158.819 414.971C134.828 362.079 72.4543 338.836 19.7372 362.849C-127.954 430.055 -193.494 604.892 -126.357 752.64C-44.0514 933.589 170.162 1013.92 351.193 931.682C577.234 828.876 677.546 561.229 574.781 335.044C444.325 48.1555 104.916 -79.3848 -182.109 51.3883C-551.155 219.251 -714.9 656.093 -547.089 1025.26C-386.992 1377.51 -38.6804 1586 325.033 1586C457.245 1586 591.508 1558.45 719.46 1500.22C772.222 1476.21 795.555 1413.93 771.563 1361.09Z" fill="#222123"/>
</svg>
