<svg width="22" height="22" viewBox="0 0 22 22" fill="none" xmlns="http://www.w3.org/2000/svg">
<path d="M11 0.5C11.1989 0.5 11.3897 0.579018 11.5303 0.71967C11.671 0.860322 11.75 1.05109 11.75 1.25V2.75C11.75 2.94891 11.671 3.13968 11.5303 3.28033C11.3897 3.42098 11.1989 3.5 11 3.5C10.8011 3.5 10.6103 3.42098 10.4697 3.28033C10.329 3.13968 10.25 2.94891 10.25 2.75V1.25C10.25 1.05109 10.329 0.860322 10.4697 0.71967C10.6103 0.579018 10.8011 0.5 11 0.5ZM3.575 3.575C3.71565 3.4344 3.90638 3.35541 4.10525 3.35541C4.30412 3.35541 4.49485 3.4344 4.6355 3.575L5.696 4.6355C5.83262 4.77695 5.90821 4.9664 5.90651 5.16305C5.9048 5.3597 5.82592 5.54781 5.68686 5.68686C5.54781 5.82592 5.3597 5.9048 5.16305 5.90651C4.9664 5.90821 4.77695 5.83262 4.6355 5.696L3.575 4.6355C3.4344 4.49485 3.35541 4.30412 3.35541 4.10525C3.35541 3.90638 3.4344 3.71565 3.575 3.575ZM18.425 3.575C18.5656 3.71565 18.6446 3.90638 18.6446 4.10525C18.6446 4.30412 18.5656 4.49485 18.425 4.6355L17.3645 5.696C17.2953 5.76763 17.2126 5.82477 17.1211 5.86408C17.0295 5.90338 16.9311 5.92407 16.8316 5.92494C16.732 5.9258 16.6332 5.90683 16.541 5.86912C16.4489 5.83141 16.3651 5.77572 16.2947 5.7053C16.2243 5.63488 16.1686 5.55114 16.1309 5.45897C16.0932 5.36679 16.0742 5.26803 16.0751 5.16845C16.0759 5.06886 16.0966 4.97045 16.1359 4.87895C16.1752 4.78744 16.2324 4.70469 16.304 4.6355L17.3645 3.575C17.5051 3.4344 17.6959 3.35541 17.8948 3.35541C18.0936 3.35541 18.2844 3.4344 18.425 3.575ZM0.5 11C0.5 10.8011 0.579018 10.6103 0.71967 10.4697C0.860322 10.329 1.05109 10.25 1.25 10.25H2.75C2.94891 10.25 3.13968 10.329 3.28033 10.4697C3.42098 10.6103 3.5 10.8011 3.5 11C3.5 11.1989 3.42098 11.3897 3.28033 11.5303C3.13968 11.671 2.94891 11.75 2.75 11.75H1.25C1.05109 11.75 0.860322 11.671 0.71967 11.5303C0.579018 11.3897 0.5 11.1989 0.5 11ZM18.5 11C18.5 10.8011 18.579 10.6103 18.7197 10.4697C18.8603 10.329 19.0511 10.25 19.25 10.25H20.75C20.9489 10.25 21.1397 10.329 21.2803 10.4697C21.421 10.6103 21.5 10.8011 21.5 11C21.5 11.1989 21.421 11.3897 21.2803 11.5303C21.1397 11.671 20.9489 11.75 20.75 11.75H19.25C19.0511 11.75 18.8603 11.671 18.7197 11.5303C18.579 11.3897 18.5 11.1989 18.5 11ZM5.696 16.304C5.8366 16.4446 5.91559 16.6354 5.91559 16.8342C5.91559 17.0331 5.8366 17.2239 5.696 17.3645L4.6355 18.425C4.56631 18.4966 4.48356 18.5538 4.39205 18.5931C4.30055 18.6324 4.20214 18.6531 4.10255 18.6539C4.00297 18.6548 3.90421 18.6358 3.81203 18.5981C3.71986 18.5604 3.63612 18.5047 3.5657 18.4343C3.49528 18.3639 3.43959 18.2801 3.40188 18.188C3.36417 18.0958 3.3452 17.997 3.34606 17.8974C3.34693 17.7979 3.36762 17.6995 3.40692 17.6079C3.44623 17.5164 3.50337 17.4337 3.575 17.3645L4.6355 16.304C4.77615 16.1634 4.96688 16.0844 5.16575 16.0844C5.36462 16.0844 5.55535 16.1634 5.696 16.304ZM16.304 16.304C16.4446 16.1634 16.6354 16.0844 16.8342 16.0844C17.0331 16.0844 17.2239 16.1634 17.3645 16.304L18.425 17.3645C18.4966 17.4337 18.5538 17.5164 18.5931 17.6079C18.6324 17.6995 18.6531 17.7979 18.6539 17.8974C18.6548 17.997 18.6358 18.0958 18.5981 18.188C18.5604 18.2801 18.5047 18.3639 18.4343 18.4343C18.3639 18.5047 18.2801 18.5604 18.188 18.5981C18.0958 18.6358 17.997 18.6548 17.8974 18.6539C17.7979 18.6531 17.6995 18.6324 17.6079 18.5931C17.5164 18.5538 17.4337 18.4966 17.3645 18.425L16.304 17.3645C16.1634 17.2239 16.0844 17.0331 16.0844 16.8342C16.0844 16.6354 16.1634 16.4446 16.304 16.304ZM11 18.5C11.1989 18.5 11.3897 18.579 11.5303 18.7197C11.671 18.8603 11.75 19.0511 11.75 19.25V20.75C11.75 20.9489 11.671 21.1397 11.5303 21.2803C11.3897 21.421 11.1989 21.5 11 21.5C10.8011 21.5 10.6103 21.421 10.4697 21.2803C10.329 21.1397 10.25 20.9489 10.25 20.75V19.25C10.25 19.0511 10.329 18.8603 10.4697 18.7197C10.6103 18.579 10.8011 18.5 11 18.5ZM11 5C9.4087 5 7.88258 5.63214 6.75736 6.75736C5.63214 7.88258 5 9.4087 5 11C5 12.5913 5.63214 14.1174 6.75736 15.2426C7.88258 16.3679 9.4087 17 11 17C12.5913 17 14.1174 16.3679 15.2426 15.2426C16.3679 14.1174 17 12.5913 17 11C17 9.4087 16.3679 7.88258 15.2426 6.75736C14.1174 5.63214 12.5913 5 11 5Z" fill="#1A1A1A"/>
</svg>
