<svg width="170" height="35" viewBox="0 0 170 35" fill="none" xmlns="http://www.w3.org/2000/svg">
<g clip-path="url(#clip0_75_443)">
<path d="M79.4299 0C74.0325 2.0068 68.6351 4.01285 63.2377 6.0189C63.2377 6.36303 63.2377 6.70641 63.2377 7.05054C68.6351 9.05659 74.0325 11.0634 79.4299 13.0694C84.8274 11.0626 90.2248 9.05659 95.6222 7.05054C95.6222 6.70641 95.6222 6.36303 95.6222 6.0189C90.224 4.01285 84.8274 2.0068 79.4299 0ZM95.1317 6.9175C89.8978 8.86335 84.6639 10.8092 79.4299 12.755C74.196 10.8085 68.9621 8.8626 63.7281 6.91601C63.7281 6.87662 63.7281 6.83797 63.7281 6.79858C68.9621 4.85273 74.196 2.90688 79.4299 0.961032C84.6639 2.90762 89.8978 4.85347 95.1317 6.80006C95.1317 6.83946 95.1317 6.87811 95.1317 6.9175Z" fill="#5AB031"/>
<path d="M63.2338 27.9494C63.2338 28.2936 63.2338 28.637 63.2338 28.9811C68.6312 30.9871 74.0286 32.9939 79.4261 35C84.8235 32.9939 90.2209 30.9871 95.6183 28.9811C95.6183 28.637 95.6183 28.2936 95.6183 27.9494C90.2209 25.9434 84.8235 23.9366 79.4261 21.9305C74.0286 23.9366 68.6312 25.9426 63.2338 27.9494ZM95.1279 28.2014C89.8939 30.1473 84.66 32.0931 79.4261 34.039C74.1921 32.0924 68.9582 30.1465 63.7242 28.1999C63.7242 28.1605 63.7242 28.1219 63.7242 28.0825C68.9582 26.1366 74.1921 24.1908 79.4261 22.2449C84.66 24.1915 89.8939 26.1374 95.1279 28.084C95.1279 28.1226 95.1279 28.162 95.1279 28.2014Z" fill="#5AB031"/>
<path d="M25.1659 18.1036C26.6057 20.2695 28.0454 22.4353 29.4852 24.6012C29.0475 24.6012 28.609 24.6012 28.1712 24.6012C26.959 22.7453 25.7468 20.8894 24.5345 19.0335C24.7447 18.7228 24.9557 18.4128 25.1659 18.1036Z" fill="#5AB031"/>
<path d="M168.613 10.3663C167.096 12.6786 165.58 14.9909 164.063 17.3039C162.498 14.9916 160.933 12.6794 159.367 10.3663C158.905 10.3663 158.443 10.3663 157.98 10.3663C159.83 13.0465 161.679 15.7275 163.528 18.4076C163.528 20.4724 163.528 22.5364 163.528 24.6012C163.901 24.6012 164.275 24.6012 164.648 24.6012C164.648 22.5364 164.648 20.4724 164.648 18.4076C166.432 15.7275 168.217 13.0465 170.001 10.3663C169.538 10.3663 169.076 10.3663 168.613 10.3663Z" fill="white"/>
<path d="M138.421 11.302C140.067 11.302 141.714 11.302 143.36 11.302C143.36 15.7348 143.36 20.1676 143.36 24.6003C143.685 24.6003 144.009 24.6003 144.334 24.6003C144.334 20.1676 144.334 15.7348 144.334 11.302C145.996 11.302 147.659 11.302 149.321 11.302C149.321 10.9898 149.321 10.6776 149.321 10.3655C145.688 10.3655 142.054 10.3655 138.42 10.3655C138.421 10.6784 138.421 10.9898 138.421 11.302Z" fill="white"/>
<path d="M127.791 27.5481C128.171 27.5481 128.479 23.0418 128.479 17.4829C128.479 11.9241 128.171 7.41772 127.791 7.41772C127.41 7.41772 127.102 11.9241 127.102 17.4829C127.102 23.0418 127.41 27.5481 127.791 27.5481Z" fill="white"/>
<path d="M109.424 10.3663C109.1 10.3663 108.776 10.3663 108.451 10.3663C108.451 15.1113 108.451 19.8562 108.451 24.6012C111.363 24.6012 114.274 24.6012 117.186 24.6012C117.186 24.2972 117.186 23.9932 117.186 23.6892C114.599 23.6892 112.012 23.6892 109.424 23.6892C109.424 19.2475 109.424 14.8066 109.424 10.3663Z" fill="white"/>
<path d="M95.8733 10.3663C95.8733 15.1113 95.8733 19.8562 95.8733 24.6012C96.198 24.6012 96.522 24.6012 96.8467 24.6012C96.8467 19.8562 96.8467 15.1113 96.8467 10.3663C96.5227 10.3663 96.198 10.3663 95.8733 10.3663Z" fill="white"/>
<path d="M82.5179 17.1352C83.0859 17.0393 83.5485 16.6714 83.9049 16.0314C84.2778 15.3915 84.4647 14.6311 84.4647 13.7511C84.4647 12.8228 84.1565 12.0223 83.5402 11.3504C82.9081 10.6941 82.154 10.3663 81.2778 10.3663C81.2778 10.3663 77.9198 10.3663 74.5619 10.3663C74.5619 15.1113 74.5619 19.8562 74.5619 24.6012C77.9198 24.6012 81.2778 24.6012 81.2778 24.6012C82.3318 24.6012 83.2487 24.2169 84.0028 23.4246C84.7495 22.6405 85.1224 21.6966 85.1224 20.5921C85.1224 19.7277 84.8791 18.9681 84.3924 18.3118C83.8891 17.6555 83.2645 17.263 82.5179 17.1352ZM75.5353 11.3021C78.3093 11.3021 81.0834 11.3021 81.0834 11.3021C81.7486 11.3021 82.316 11.5422 82.7861 12.0223C83.257 12.5025 83.492 13.0785 83.492 13.7504C83.492 14.5828 83.2562 15.2941 82.7861 15.8865C82.316 16.4789 81.7479 16.7747 81.0834 16.7747C81.0834 16.7747 78.3093 16.7747 75.5353 16.7747C75.5353 14.9507 75.5353 13.1268 75.5353 11.3021ZM83.2479 22.7765C82.6482 23.3845 81.9264 23.6885 81.0826 23.6885C81.0826 23.6885 78.3086 23.6885 75.5345 23.6885C75.5345 21.6802 75.5345 19.6719 75.5345 17.6636C78.3086 17.6636 81.0826 17.6636 81.0826 17.6636C81.9264 17.6636 82.6392 17.9602 83.2479 18.528C83.8484 19.0877 84.1482 19.776 84.1482 20.5921C84.149 21.4401 83.8484 22.1685 83.2479 22.7765Z" fill="white"/>
<path d="M62.4705 27.5481C62.8508 27.5481 63.1591 23.0418 63.1591 17.4829C63.1591 11.9241 62.8508 7.41772 62.4705 7.41772C62.0902 7.41772 61.7819 11.9241 61.7819 17.4829C61.7819 23.0418 62.0902 27.5481 62.4705 27.5481Z" fill="white"/>
<path d="M49.4236 16.5828C46.52 16.5828 43.6163 16.5828 40.7127 16.5828C40.7127 14.5106 40.7127 12.4377 40.7127 10.3655C40.3879 10.3655 40.064 10.3655 39.7393 10.3655C39.7393 15.1104 39.7393 19.8554 39.7393 24.6003C40.064 24.6003 40.3879 24.6003 40.7127 24.6003C40.7127 22.2323 40.7127 19.8636 40.7127 17.4955C43.6163 17.4955 46.52 17.4955 49.4236 17.4955C49.4236 19.8636 49.4236 22.2323 49.4236 24.6003C49.7483 24.6003 50.0723 24.6003 50.397 24.6003C50.397 19.8554 50.397 15.1104 50.397 10.3655C50.0723 10.3655 49.7483 10.3655 49.4236 10.3655C49.4236 12.4384 49.4236 14.5106 49.4236 16.5828Z" fill="white"/>
<path d="M23.9381 16.3912C22.64 14.3829 21.3426 12.3746 20.0445 10.3663C19.6151 10.3663 19.1849 10.3663 18.7547 10.3663C20.2306 12.6466 21.7073 14.9277 23.1832 17.208C21.5852 19.6727 19.9872 22.1366 18.39 24.6012C18.8202 24.6012 19.2497 24.6012 19.6799 24.6012C21.0993 22.4406 22.5187 20.2806 23.9381 18.12C24.1491 17.816 24.36 17.512 24.5702 17.208C26.1192 14.9277 27.6682 12.6466 29.2173 10.3663C28.7795 10.3663 28.341 10.3663 27.9033 10.3663C26.5826 12.3746 25.2604 14.3829 23.9381 16.3912Z" fill="white"/>
<path d="M0 24.6003C3.1387 24.6003 6.2774 24.6003 9.4161 24.6003C9.4161 24.2963 9.4161 23.9924 9.4161 23.6884C6.60212 23.6884 3.78739 23.6884 0.973404 23.6884C0.973404 21.6801 0.973404 19.6718 0.973404 17.6635C3.54403 17.6635 6.11542 17.6635 8.6868 17.6635C8.6868 17.3677 8.6868 17.0719 8.6868 16.7753C6.11542 16.7753 3.54479 16.7753 0.973404 16.7753C0.973404 14.9506 0.973404 13.1267 0.973404 11.302C3.78739 11.302 6.60212 11.302 9.4161 11.302C9.4161 10.9898 9.4161 10.6776 9.4161 10.3655C6.2774 10.3655 3.1387 10.3655 0 10.3655C0 15.1112 0 19.8554 0 24.6003Z" fill="white"/>
</g>
<defs>
<clipPath id="clip0_75_443">
<rect width="170" height="35" fill="white"/>
</clipPath>
</defs>
</svg>
