<svg width="34" height="40" viewBox="0 0 34 40" fill="none" xmlns="http://www.w3.org/2000/svg">
<path d="M2.57033 12.9894C1.88196 12.9894 1.29791 13.2295 0.817815 13.7096C0.337717 14.1897 0.0975952 14.7658 0.0975952 15.4382V25.7621C0.0975952 26.4513 0.337644 27.0348 0.817815 27.515C1.29791 27.9951 1.88196 28.2352 2.57033 28.2352C3.25818 28.2352 3.83869 27.9952 4.31135 27.515C4.78307 27.0349 5.01958 26.4513 5.01958 25.7621V15.4382C5.01958 14.7657 4.77953 14.1897 4.29936 13.7096C3.81919 13.2295 3.24272 12.9894 2.57033 12.9894ZM22.4503 3.72163L24.155 0.576933C24.2668 0.368741 24.227 0.209093 24.0352 0.0968346C23.8269 3.47681e-05 23.6669 0.0490848 23.5551 0.240517L21.8266 3.41035C20.3056 2.73788 18.6969 2.40103 17.0005 2.40103C15.3038 2.40103 13.6949 2.73795 12.1745 3.41035L10.4459 0.240517C10.3336 0.0490848 10.1736 0.000468202 9.96583 0.0968346C9.77353 0.209599 9.73373 0.368741 9.84606 0.576933L11.5508 3.72163C9.82222 4.60315 8.4455 5.83085 7.42115 7.40739C6.39681 8.98479 5.88442 10.7085 5.88442 12.5817H28.0925C28.0925 10.709 27.58 8.98515 26.5557 7.40739C25.5313 5.83085 24.1625 4.60315 22.4503 3.72163ZM12.5945 8.29563C12.4102 8.48042 12.19 8.57238 11.934 8.57238C11.6776 8.57238 11.4619 8.48042 11.2859 8.29563C11.1099 8.11171 11.022 7.8924 11.022 7.63559C11.022 7.37965 11.1099 7.1599 11.2859 6.97554C11.4619 6.79162 11.6781 6.69967 11.934 6.69967C12.19 6.69967 12.4102 6.79162 12.5945 6.97554C12.7784 7.16033 12.8708 7.37965 12.8708 7.63559C12.8703 7.89196 12.778 8.11171 12.5945 8.29563ZM22.7142 8.29563C22.5378 8.48042 22.3216 8.57238 22.0661 8.57238C21.8096 8.57238 21.5895 8.48042 21.4055 8.29563C21.2212 8.11171 21.1292 7.8924 21.1292 7.63559C21.1292 7.37965 21.2212 7.1599 21.4055 6.97554C21.5895 6.79162 21.8096 6.69967 22.0661 6.69967C22.322 6.69967 22.5377 6.79162 22.7142 6.97554C22.8903 7.16033 22.9781 7.37965 22.9781 7.63559C22.9781 7.89196 22.8902 8.11171 22.7142 8.29563ZM5.97977 29.4355C5.97977 30.1725 6.23572 30.7963 6.74767 31.3083C7.26006 31.8202 7.88391 32.0762 8.62039 32.0762H10.3972L10.4215 37.5269C10.4215 38.2152 10.6616 38.7996 11.1417 39.2798C11.6218 39.76 12.1983 40 12.8703 40C13.5582 40 14.1426 39.76 14.6228 39.2798C15.1029 38.7996 15.343 38.2152 15.343 37.5269V32.0767H18.6561V37.5269C18.6561 38.2152 18.8961 38.7996 19.3763 39.2798C19.8565 39.76 20.4404 40 21.1288 40C21.8167 40 22.4011 39.76 22.8813 39.2798C23.3615 38.7996 23.6015 38.2152 23.6015 37.5269V32.0767H25.4022C26.1224 32.0767 26.7382 31.8207 27.2511 31.3087C27.763 30.7967 28.0191 30.1729 28.0191 29.436V13.4452H5.97977V29.4355ZM31.4297 12.9894C30.7573 12.9894 30.1812 13.2259 29.7011 13.6976C29.221 14.1702 28.9809 14.7507 28.9809 15.4382V25.7621C28.9809 26.4513 29.2209 27.0348 29.7011 27.515C30.1812 27.9952 30.7577 28.2352 31.4297 28.2352C32.1177 28.2352 32.7021 27.9952 33.1823 27.515C33.6624 27.0348 33.9024 26.4513 33.9024 25.7621V15.4382C33.9024 14.7507 33.6624 14.1702 33.1823 13.6976C32.7021 13.2259 32.1177 12.9894 31.4297 12.9894Z" fill="url(#paint0_linear_45_15)"/>
<defs>
<linearGradient id="paint0_linear_45_15" x1="0.094048" y1="0.0485232" x2="31.6158" y2="41.7313" gradientUnits="userSpaceOnUse">
<stop stop-color="white" stop-opacity="0.4"/>
<stop offset="1" stop-color="white"/>
</linearGradient>
</defs>
</svg>
