<svg width="32" height="40" viewBox="0 0 32 40" fill="none" xmlns="http://www.w3.org/2000/svg">
<g clip-path="url(#clip0_45_12)">
<path d="M26.7238 21.2507C26.779 27.3041 31.9402 29.3184 31.9974 29.3441C31.9538 29.4861 31.1727 32.2147 29.2782 35.0332C27.6405 37.4699 25.9408 39.8976 23.2633 39.9479C20.6323 39.9973 19.7863 38.3597 16.7783 38.3597C13.7713 38.3597 12.8313 39.8977 10.3408 39.9973C7.7563 40.097 5.78813 37.3624 4.13689 34.9346C0.762628 29.9685 -1.81601 20.9015 1.64645 14.7812C3.36652 11.7418 6.44042 9.81717 9.77687 9.76782C12.3148 9.71853 14.7103 11.506 16.2618 11.506C17.8124 11.506 20.7233 9.35641 23.7836 9.67211C25.0648 9.72639 28.661 10.1989 30.9702 13.6399C30.7841 13.7573 26.6792 16.19 26.7238 21.2507ZM21.7792 6.3866C23.1513 4.69578 24.0749 2.342 23.8229 0C21.8451 0.0809235 19.4534 1.3417 18.0348 3.0316C16.7634 4.52807 15.6499 6.92328 15.9504 9.21892C18.1549 9.39255 20.407 8.07849 21.7792 6.3866Z" fill="url(#paint0_linear_45_12)"/>
</g>
<defs>
<linearGradient id="paint0_linear_45_12" x1="-2.43286e-07" y1="2.04488e-07" x2="32" y2="40" gradientUnits="userSpaceOnUse">
<stop stop-color="white" stop-opacity="0.4"/>
<stop offset="1" stop-color="white"/>
</linearGradient>
<clipPath id="clip0_45_12">
<rect width="32" height="40" fill="white"/>
</clipPath>
</defs>
</svg>
