<svg width="51" height="29" viewBox="0 0 51 29" fill="none" xmlns="http://www.w3.org/2000/svg">
<path fill-rule="evenodd" clip-rule="evenodd" d="M49.8633 1.94958C50.2205 0.8042 49.8633 0 48.179 0H42.5905C41.1614 0 40.5235 0.73109 40.1662 1.53529C40.1662 1.53529 37.3336 8.16387 33.3017 12.4286C31.9748 13.6958 31.4389 14.0613 30.6988 14.0613C30.3416 14.0613 29.8312 13.6714 29.8312 12.526V1.94958C29.8312 0.584872 29.4229 0 28.2235 0H19.4451C18.5775 0 18.0161 0.657983 18.0161 1.21849C18.0161 2.51008 20.0065 2.82689 20.2617 6.40924V14.2563C20.2617 15.9622 19.93 16.279 19.2155 16.279C17.3526 16.279 12.7082 9.65042 10.0033 2.04706C9.44186 0.633612 8.9315 0.024368 7.50246 0.024368H1.91389C0.306223 0.024368 0 0.755461 0 1.55966C0 2.97311 1.86285 9.96723 8.80389 19.2277C13.4227 25.5395 19.93 28.9756 25.8248 28.9756C29.3718 28.9756 29.8057 28.2202 29.8057 26.9286V22.1277C29.8057 20.5924 30.1374 20.3 31.2857 20.3C32.1278 20.3 33.5314 20.6899 36.8233 23.7361C40.6 27.3429 41.238 29 43.356 29H48.9446C50.5523 29 51.3433 28.2445 50.8585 26.758C50.3481 25.2714 48.5363 23.1025 46.163 20.5193C44.8361 19.0328 42.8967 17.4731 42.3353 16.6689C41.4932 15.6454 41.7483 15.1824 42.3353 14.305C42.3608 14.2076 49.1743 5.06891 49.8633 1.94958Z" fill="url(#paint0_linear_249_4)"/>
<defs>
<linearGradient id="paint0_linear_249_4" x1="25.5" y1="0" x2="25.5" y2="29" gradientUnits="userSpaceOnUse">
<stop offset="0.141143" stop-color="white"/>
<stop offset="1" stop-color="white" stop-opacity="0"/>
</linearGradient>
</defs>
</svg>
