<svg width="110" height="110" viewBox="0 0 110 110" fill="none" xmlns="http://www.w3.org/2000/svg">
<path fill-rule="evenodd" clip-rule="evenodd" d="M85.25 49.1266H24.75V89.4599H85.25V49.1266ZM62.0556 72.7921C61.9813 72.3671 62.1312 71.9337 62.4576 71.634L67.171 67.4072C67.5591 67.0621 67.7015 66.5368 67.5364 66.058C67.3613 65.5804 66.9189 65.2341 66.3896 65.1625L60.1262 64.3016C59.6737 64.2359 59.2818 63.9649 59.0802 63.5745L56.2837 58.2373C56.0656 57.8361 55.6485 57.5675 55.1746 57.5209H54.6441L54.4298 57.6045L54.2925 57.6522C54.2168 57.694 54.1488 57.7454 54.0896 57.8075L53.9761 57.891C53.8741 57.9842 53.7896 58.094 53.7241 58.2134L50.9641 63.5745C50.7499 63.9804 50.3315 64.255 49.8551 64.3016L43.5917 65.1625C43.0712 65.2401 42.6402 65.5852 42.4713 66.058C42.2974 66.532 42.4297 67.0574 42.8103 67.4072L47.3611 71.5862C47.6875 71.8907 47.8374 72.3265 47.7631 72.7551L46.6415 78.6296C46.5192 79.34 47.017 80.0135 47.7631 80.1472C48.0693 80.1937 48.3819 80.1472 48.6579 80.0158L54.2408 77.2446C54.3466 77.1896 54.4626 77.1538 54.5811 77.1371H54.9226C55.1431 77.1431 55.3586 77.1956 55.5527 77.2935L61.1344 80.0517C61.6044 80.2905 62.1779 80.2546 62.6089 79.9561C63.0487 79.6684 63.2705 79.1645 63.176 78.6666L62.0556 72.7921Z" fill="url(#paint0_linear_1_852)" fill-opacity="0.2"/>
<path d="M24.75 49.1266V48.1266H23.75V49.1266H24.75ZM85.25 49.1266H86.25V48.1266H85.25V49.1266ZM24.75 89.4599H23.75V90.4599H24.75V89.4599ZM85.25 89.4599V90.4599H86.25V89.4599H85.25ZM62.4576 71.634L61.7899 70.8894L61.7813 70.8974L62.4576 71.634ZM62.0556 72.7921L61.0706 72.9645L61.0719 72.972L61.0733 72.9795L62.0556 72.7921ZM67.171 67.4072L66.5066 66.6598L66.5033 66.6627L67.171 67.4072ZM67.5364 66.058L68.4818 65.732L68.4786 65.7228L68.4753 65.7136L67.5364 66.058ZM66.3896 65.1625L66.2534 66.1532L66.2555 66.1535L66.3896 65.1625ZM60.1262 64.3016L59.9825 65.2913L59.99 65.2923L60.1262 64.3016ZM59.0802 63.5745L59.9687 63.1156L59.9659 63.1104L59.0802 63.5745ZM56.2837 58.2373L57.1694 57.7732L57.1659 57.7665L57.1623 57.7598L56.2837 58.2373ZM55.1746 57.5209L55.2724 56.5257L55.2236 56.5209H55.1746V57.5209ZM54.6441 57.5209V56.5209H54.4559L54.2806 56.5893L54.6441 57.5209ZM54.4298 57.6045L54.7582 58.549L54.7759 58.5429L54.7933 58.5361L54.4298 57.6045ZM54.2925 57.6522L53.9641 56.7077L53.8834 56.7357L53.8087 56.777L54.2925 57.6522ZM54.0896 57.8075L54.6828 58.6125L54.7529 58.5608L54.8131 58.4977L54.0896 57.8075ZM53.9761 57.891L53.3829 57.086L53.3408 57.117L53.3021 57.1523L53.9761 57.891ZM53.7241 58.2134L52.8474 57.7323L52.8411 57.7439L52.835 57.7557L53.7241 58.2134ZM50.9641 63.5745L51.8486 64.0412L51.8532 64.0322L50.9641 63.5745ZM49.8551 64.3016L49.7578 63.3064L49.7383 63.3083L49.7189 63.3109L49.8551 64.3016ZM43.5917 65.1625L43.4555 64.1717L43.4442 64.1734L43.5917 65.1625ZM42.4713 66.058L43.4101 66.4024L43.413 66.3943L42.4713 66.058ZM42.8103 67.4072L42.1336 68.1434L42.1339 68.1438L42.8103 67.4072ZM47.3611 71.5862L48.0432 70.8549L48.0374 70.8496L47.3611 71.5862ZM47.7631 72.7551L48.7453 72.9427L48.7469 72.9344L48.7484 72.926L47.7631 72.7551ZM46.6415 78.6296L45.6592 78.4421L45.6575 78.451L45.6559 78.46L46.6415 78.6296ZM47.7631 80.1472L47.5867 81.1315L47.5997 81.1338L47.6128 81.1358L47.7631 80.1472ZM48.6579 80.0158L49.0876 80.9188L49.0951 80.9152L49.1025 80.9116L48.6579 80.0158ZM54.2408 77.2446L54.6854 78.1403L54.6934 78.1363L54.7013 78.1322L54.2408 77.2446ZM54.5811 77.1371V76.1371H54.5108L54.4413 76.1469L54.5811 77.1371ZM54.9226 77.1371L54.9496 76.1375L54.9361 76.1371H54.9226V77.1371ZM55.5527 77.2935L55.1023 78.1864L55.1097 78.19L55.5527 77.2935ZM61.1344 80.0517L61.5873 79.16L61.5774 79.1551L61.1344 80.0517ZM62.6089 79.9561L62.0614 79.1193L62.0503 79.1265L62.0395 79.134L62.6089 79.9561ZM63.176 78.6666L64.1584 78.4801L64.1583 78.4793L63.176 78.6666ZM24.75 50.1266H85.25V48.1266H24.75V50.1266ZM25.75 89.4599V49.1266H23.75V89.4599H25.75ZM85.25 88.4599H24.75V90.4599H85.25V88.4599ZM84.25 49.1266V89.4599H86.25V49.1266H84.25ZM61.7813 70.8974C61.211 71.421 60.9358 72.1941 61.0706 72.9645L63.0406 72.6198C63.0267 72.5401 63.0514 72.4463 63.134 72.3706L61.7813 70.8974ZM66.5033 66.6627L61.79 70.8895L63.1253 72.3785L67.8386 68.1517L66.5033 66.6627ZM66.5911 66.384C66.6201 66.4682 66.6033 66.5739 66.5066 66.6598L67.8354 68.1546C68.515 67.5504 68.783 66.6054 68.4818 65.732L66.5911 66.384ZM66.2555 66.1535C66.4387 66.1782 66.5573 66.2924 66.5976 66.4023L68.4753 65.7136C68.1652 64.8683 67.3992 64.29 66.5237 64.1715L66.2555 66.1535ZM59.99 65.2923L66.2534 66.1532L66.5258 64.1718L60.2623 63.3109L59.99 65.2923ZM58.1916 64.0333C58.5497 64.7267 59.2292 65.1819 59.9825 65.2912L60.2698 63.312C60.1183 63.29 60.0138 63.2031 59.9687 63.1156L58.1916 64.0333ZM55.3979 58.7014L58.1944 64.0386L59.9659 63.1104L57.1694 57.7732L55.3979 58.7014ZM55.0768 58.5161C55.2394 58.5321 55.3541 58.6211 55.405 58.7148L57.1623 57.7598C56.7772 57.0511 56.0576 56.6028 55.2724 56.5257L55.0768 58.5161ZM54.6441 58.5209H55.1746V56.5209H54.6441V58.5209ZM54.7933 58.5361L55.0075 58.4525L54.2806 56.5893L54.0664 56.6729L54.7933 58.5361ZM54.6209 58.5968L54.7582 58.549L54.1014 56.6599L53.9641 56.7077L54.6209 58.5968ZM54.8131 58.4977C54.7972 58.5144 54.7827 58.5238 54.7762 58.5275L53.8087 56.777C53.6509 56.8642 53.5004 56.9763 53.366 57.1172L54.8131 58.4977ZM54.5694 58.6961L54.6828 58.6125L53.4963 57.0024L53.3829 57.086L54.5694 58.6961ZM54.6007 58.6946C54.6167 58.6655 54.6343 58.6442 54.6501 58.6298L53.3021 57.1523C53.1138 57.3241 52.9625 57.5226 52.8474 57.7323L54.6007 58.6946ZM51.8532 64.0322L54.6132 58.6711L52.835 57.7557L50.075 63.1167L51.8532 64.0322ZM49.9524 65.2969C50.7468 65.2192 51.4698 64.7588 51.8485 64.0412L50.0797 63.1077C50.03 63.2021 49.9162 63.2909 49.7578 63.3064L49.9524 65.2969ZM43.7278 66.1532L49.9913 65.2923L49.7189 63.3109L43.4555 64.1718L43.7278 66.1532ZM43.413 66.3943C43.4509 66.2883 43.5628 66.1778 43.7391 66.1516L43.4442 64.1734C42.5796 64.3023 41.8294 64.8821 41.5296 65.7216L43.413 66.3943ZM43.487 66.671C43.3945 66.5859 43.3802 66.4838 43.4101 66.4024L41.5325 65.7135C41.2145 66.5802 41.4649 67.5288 42.1336 68.1434L43.487 66.671ZM48.0374 70.8496L43.4867 66.6707L42.1339 68.1438L46.6847 72.3228L48.0374 70.8496ZM48.7484 72.926C48.8823 72.1542 48.6085 71.3823 48.0432 70.855L46.679 72.3175C46.7664 72.399 46.7926 72.4987 46.7778 72.5842L48.7484 72.926ZM47.6237 78.8172L48.7453 72.9427L46.7808 72.5676L45.6592 78.4421L47.6237 78.8172ZM47.9395 79.1629C47.6876 79.1177 47.6058 78.9223 47.627 78.7992L45.6559 78.46C45.4326 79.7578 46.3464 80.9092 47.5867 81.1315L47.9395 79.1629ZM48.2282 79.1129C48.133 79.1581 48.0225 79.1751 47.9134 79.1585L47.6128 81.1358C48.1161 81.2124 48.6307 81.1362 49.0876 80.9188L48.2282 79.1129ZM53.7962 76.3488L48.2132 79.1201L49.1025 80.9116L54.6854 78.1403L53.7962 76.3488ZM54.4413 76.1469C54.2178 76.1785 53.9925 76.2468 53.7803 76.3569L54.7013 78.1322C54.7007 78.1325 54.7022 78.1317 54.7058 78.1306C54.7095 78.1294 54.7145 78.1282 54.7208 78.1273L54.4413 76.1469ZM54.9226 76.1371H54.5811V78.1371H54.9226V76.1371ZM56.0031 76.4007C55.6716 76.2334 55.3107 76.1472 54.9496 76.1375L54.8955 78.1367C54.9756 78.1389 55.0457 78.1578 55.1023 78.1863L56.0031 76.4007ZM61.5774 79.1551L55.9957 76.397L55.1097 78.19L60.6914 80.9482L61.5774 79.1551ZM62.0395 79.134C61.9154 79.22 61.735 79.2351 61.5873 79.1601L60.6814 80.9432C61.4739 81.3458 62.4403 81.2893 63.1782 80.7782L62.0395 79.134ZM62.1935 78.8531C62.2088 78.9338 62.1794 79.0421 62.0614 79.1193L63.1563 80.793C63.918 80.2947 64.3321 79.3952 64.1584 78.4801L62.1935 78.8531ZM61.0733 72.9795L62.1937 78.854L64.1583 78.4793L63.0379 72.6048L61.0733 72.9795Z" fill="#1A1A1A"/>
<path d="M24.75 28.5312V45.9708H85.25V28.5312H24.75Z" stroke="black" stroke-width="2"/>
<path d="M39.875 19.7083H47.4375V34.8333H39.875V19.7083Z" fill="white" stroke="#1A1A1A" stroke-width="2" stroke-linecap="square" stroke-linejoin="bevel"/>
<rect x="62.5625" y="19.7083" width="7.5625" height="15.125" fill="white" stroke="#1A1A1A" stroke-width="2" stroke-linecap="square" stroke-linejoin="bevel"/>
<defs>
<linearGradient id="paint0_linear_1_852" x1="75.3436" y1="55.495" x2="50.3053" y2="93.0524" gradientUnits="userSpaceOnUse">
<stop stop-color="#5BBB35"/>
<stop offset="1" stop-color="#5BBB35" stop-opacity="0"/>
</linearGradient>
</defs>
</svg>
