<svg width="110" height="110" viewBox="0 0 110 110" fill="none" xmlns="http://www.w3.org/2000/svg">
<path d="M61.7278 85.5391L61.7052 85.5548L61.6835 85.5717C60.0992 86.8067 58.241 87.589 56.2986 87.872C55.2142 88.012 54.1574 88.0139 53.1255 87.8725C51.1783 87.59 49.3195 86.8076 47.7386 85.5696L47.7149 85.5511L47.6901 85.534C46.5702 84.7609 45.8167 83.5812 45.7414 82.3169C45.7482 81.8274 45.9576 81.4781 46.3332 81.1826C46.7462 80.8576 47.3429 80.6206 48.0005 80.4677C48.3333 80.3992 49.2085 80.3325 50.4663 80.2868C51.6957 80.2421 53.2 80.2196 54.7085 80.2196C56.217 80.2196 57.7213 80.2421 58.9507 80.2868C60.2085 80.3325 61.0837 80.3992 61.4165 80.4677C62.0741 80.6206 62.6707 80.8576 63.0838 81.1826C63.4594 81.4781 63.6688 81.8274 63.6756 82.3169C63.6003 83.5813 62.8466 84.762 61.7278 85.5391Z" fill="white" stroke="#1A1A1A" stroke-width="2"/>
<path d="M54.9103 20.5333C62.0291 20.5333 69.3009 23.9111 73.6205 29.5155C76.4231 33.1243 77.7087 36.7296 77.7087 42.334V43.7919C77.7087 48.09 78.8447 50.6234 81.3446 53.5428C83.2391 55.6935 83.8445 58.4544 83.8445 61.4496C83.8445 64.4413 82.8616 67.2815 80.8923 69.5873C78.3141 72.3516 74.6782 74.1163 70.9675 74.4231C65.5902 74.8815 60.2094 75.2676 54.7573 75.2676C49.3017 75.2676 43.9244 75.0366 38.5471 74.4231C34.8329 74.1163 31.197 72.3516 28.6223 69.5873C26.653 67.2815 25.6666 64.4413 25.6666 61.4496C25.6666 58.4544 26.2754 55.6935 28.1665 53.5428C30.7447 50.6234 31.8058 48.09 31.8058 43.7919V42.334C31.8058 36.5779 33.2411 32.8141 36.1968 29.1295C40.5912 23.756 47.6351 20.5333 54.6042 20.5333H54.9103Z" fill="url(#paint0_linear_1_834)" fill-opacity="0.2" stroke="#1A1A1A" stroke-width="2" stroke-linecap="square" stroke-linejoin="bevel"/>
<defs>
<linearGradient id="paint0_linear_1_834" x1="74.3183" y1="29.1756" x2="37.5772" y2="68.2283" gradientUnits="userSpaceOnUse">
<stop stop-color="#5BBB35"/>
<stop offset="1" stop-color="#5BBB35" stop-opacity="0"/>
</linearGradient>
</defs>
</svg>
