<svg width="110" height="110" viewBox="0 0 110 110" fill="none" xmlns="http://www.w3.org/2000/svg">
<mask id="path-1-inside-1_1_844" fill="white">
<path fill-rule="evenodd" clip-rule="evenodd" d="M21.4372 45.7725L41.3985 23.4628C35.4208 17.26 32.3698 15.3889 22.5018 25.2575C22.4228 25.3558 22.287 25.4884 22.1115 25.6599C20.4031 27.3284 14.933 32.671 21.4372 45.7725Z"/>
</mask>
<path d="M21.4372 45.7725L19.6458 46.6618L20.9588 49.3066L22.9277 47.106L21.4372 45.7725ZM41.3985 23.4628L42.889 24.7964L44.1274 23.4123L42.8386 22.075L41.3985 23.4628ZM22.5018 25.2575L21.0876 23.8433L21.011 23.9199L20.9432 24.0042L22.5018 25.2575ZM22.1115 25.6599L20.714 24.2291L22.1115 25.6599ZM22.9277 47.106L42.889 24.7964L39.908 22.1292L19.9467 44.4389L22.9277 47.106ZM23.9161 26.6717C26.3401 24.2475 28.2599 22.6329 29.8444 21.6327C31.421 20.6376 32.5404 20.3304 33.4021 20.3334C34.2407 20.3363 35.0991 20.6337 36.1675 21.379C37.2705 22.1484 38.4618 23.2977 39.9584 24.8506L42.8386 22.075C41.3463 20.5265 39.9146 19.1158 38.456 18.0983C36.9627 17.0566 35.3208 16.34 33.416 16.3334C31.5341 16.3268 29.6669 17.0146 27.7093 18.2502C25.7596 19.4809 23.5975 21.3332 21.0876 23.8433L23.9161 26.6717ZM23.5089 27.0906C23.6402 26.9624 23.8867 26.7268 24.0605 26.5108L20.9432 24.0042C20.9592 23.9843 20.9668 23.9765 20.9595 23.9845C20.953 23.9916 20.9398 24.0056 20.9169 24.0288C20.8682 24.0784 20.8062 24.1391 20.714 24.2291L23.5089 27.0906ZM23.2286 44.8831C20.1251 38.6317 20.0091 34.5067 20.6388 31.8981C21.2697 29.2842 22.7203 27.8609 23.5089 27.0906L20.714 24.2291C19.7943 25.1273 17.6556 27.2096 16.7505 30.9595C15.844 34.7147 16.2451 39.8117 19.6458 46.6618L23.2286 44.8831Z" fill="#1A1A1A" mask="url(#path-1-inside-1_1_844)"/>
<path d="M40.3973 70.0317L41.1043 69.3245L40.3973 70.0317ZM24.5559 51.1927L23.8107 50.5259L23.7169 51.7368L24.5559 51.1927ZM84.7639 88.2972L85.4795 88.9958L85.4795 88.9957L84.7639 88.2972ZM85.1674 87.9056L85.7938 88.6851L85.8744 88.6128L85.1674 87.9056ZM85.5388 67.6547L84.8496 68.3793L85.5388 67.6547ZM82.2424 64.4626L82.9494 63.7554L82.9493 63.7552L82.2424 64.4626ZM71.2665 62.4035L70.9359 61.4597L71.2665 62.4035ZM53.3888 57.0398L54.0958 56.3326L53.3888 57.0398ZM48.0152 39.1606L47.0711 38.8308L48.0152 39.1606ZM45.9472 28.1816L45.2402 28.8888L45.2402 28.8888L45.9472 28.1816ZM45.5247 27.7569L46.2356 27.0536L44.7795 27.0901L45.5247 27.7569ZM41.1043 69.3245C33.7566 61.9788 28.7416 55.8095 25.3949 50.6486L23.7169 51.7368C27.1599 57.0463 32.2734 63.3241 39.6903 70.7389L41.1043 69.3245ZM84.0483 87.5987C83.4491 88.2126 82.4382 89.2445 80.7906 90.0289C79.1541 90.808 76.8336 91.3675 73.5995 90.92C67.0793 90.0179 56.797 85.0129 41.1043 69.3245L39.6903 70.7389C55.4758 86.5201 66.1469 91.9079 73.3254 92.9011C76.9407 93.4014 79.6559 92.7842 81.6503 91.8347C83.6336 90.8905 84.8487 89.642 85.4795 88.9958L84.0483 87.5987ZM84.541 87.1261C84.3832 87.2529 84.1985 87.4448 84.0483 87.5987L85.4795 88.9957C85.6731 88.7973 85.7544 88.7167 85.7938 88.6851L84.541 87.1261ZM84.8496 68.3793C86.6869 70.1269 88.1804 71.55 89.2624 72.8869C90.3374 74.2152 90.9234 75.3615 91.0519 76.529C91.1789 77.6839 90.8748 79.0172 89.8456 80.7513C88.8096 82.4971 87.0791 84.5804 84.4604 87.1984L85.8744 88.6128C88.5363 85.9517 90.4034 83.7303 91.5656 81.772C92.7346 79.8021 93.2293 78.032 93.0398 76.3102C92.8518 74.6011 92.0057 73.0975 90.8171 71.6287C89.6354 70.1687 88.0337 68.6477 86.228 66.9301L84.8496 68.3793ZM81.5354 65.1698C82.7136 66.3476 83.8293 67.4088 84.8496 68.3793L86.228 66.9301C85.2061 65.9582 84.1076 64.9132 82.9494 63.7554L81.5354 65.1698ZM71.5971 63.3472C73.3723 62.7253 74.8264 62.2305 76.3492 62.3346C77.8086 62.4344 79.469 63.1048 81.5356 65.1699L82.9493 63.7552C80.6411 61.4487 78.5516 60.4806 76.4857 60.3393C74.4833 60.2024 72.6368 60.8638 70.9359 61.4597L71.5971 63.3472ZM52.6817 57.747C57.0708 62.1348 60.6328 64.0092 63.7654 64.5101C66.8928 65.0103 69.4319 64.1058 71.5971 63.3472L70.9359 61.4597C68.7441 62.2276 66.6504 62.9461 64.0812 62.5352C61.5172 62.1252 58.3189 60.5545 54.0958 56.3326L52.6817 57.747ZM47.0711 38.8308C46.3144 40.9971 45.4123 43.5372 45.9143 46.6649C46.4172 49.7977 48.293 53.3594 52.6817 57.747L54.0958 56.3326C49.873 52.1109 48.3007 48.9126 47.889 46.3479C47.4765 43.778 48.1933 41.6831 48.9593 39.4904L47.0711 38.8308ZM45.2402 28.8888C47.307 30.9551 47.9789 32.6158 48.0799 34.076C48.1853 35.5996 47.6916 37.0546 47.0711 38.8308L48.9593 39.4904C49.5538 37.7884 50.2136 35.9409 50.0751 33.938C49.9322 31.8717 48.9625 29.7821 46.6542 27.4744L45.2402 28.8888ZM44.8139 28.4603C44.9543 28.6021 45.0963 28.745 45.2402 28.8888L46.6542 27.4744C46.5131 27.3333 46.3735 27.193 46.2356 27.0536L44.8139 28.4603ZM44.7795 27.0901L23.8107 50.5259L25.3011 51.8595L46.27 28.4237L44.7795 27.0901Z" fill="#1A1A1A"/>
<g opacity="0.2">
<path fill-rule="evenodd" clip-rule="evenodd" d="M24.5559 51.1927C27.9507 56.4279 33.015 62.6515 40.3973 70.0317C71.8755 101.501 82.304 90.8174 84.7639 88.2972C84.9358 88.1211 85.0688 87.9848 85.1674 87.9056C95.7288 77.3472 92.8248 74.585 85.5388 67.6547C84.5177 66.6835 83.4106 65.6304 82.2424 64.4626C77.8677 60.0909 74.7426 61.1857 71.2665 62.4035C66.9095 63.9299 62.0009 65.6495 53.3888 57.0398C44.7772 48.4306 46.4926 43.5196 48.0152 39.1606C49.2301 35.6824 50.3223 32.5555 45.9472 28.1816C45.8047 28.0391 45.6639 27.8976 45.5247 27.7569L24.5559 51.1927Z" fill="url(#paint0_linear_1_844)"/>
<path d="M40.3973 70.0317L41.1043 69.3245L40.3973 70.0317ZM24.5559 51.1927L23.8107 50.5259L23.7169 51.7368L24.5559 51.1927ZM84.7639 88.2972L85.4795 88.9958L85.4795 88.9957L84.7639 88.2972ZM85.1674 87.9056L85.7938 88.6851L85.8744 88.6128L85.1674 87.9056ZM85.5388 67.6547L84.8496 68.3793L85.5388 67.6547ZM82.2424 64.4626L82.9494 63.7554L82.9493 63.7552L82.2424 64.4626ZM71.2665 62.4035L70.9359 61.4597L71.2665 62.4035ZM53.3888 57.0398L54.0958 56.3326L53.3888 57.0398ZM48.0152 39.1606L47.0711 38.8308L48.0152 39.1606ZM45.9472 28.1816L45.2402 28.8888L45.2402 28.8888L45.9472 28.1816ZM45.5247 27.7569L46.2356 27.0536L44.7795 27.0901L45.5247 27.7569ZM41.1043 69.3245C33.7566 61.9788 28.7416 55.8095 25.3949 50.6486L23.7169 51.7368C27.1599 57.0463 32.2734 63.3241 39.6903 70.7389L41.1043 69.3245ZM84.0483 87.5987C83.4491 88.2126 82.4382 89.2445 80.7906 90.0289C79.1541 90.808 76.8336 91.3675 73.5995 90.92C67.0793 90.0179 56.797 85.0129 41.1043 69.3245L39.6903 70.7389C55.4758 86.5201 66.1469 91.9079 73.3254 92.9011C76.9407 93.4014 79.6559 92.7842 81.6503 91.8347C83.6336 90.8905 84.8487 89.642 85.4795 88.9958L84.0483 87.5987ZM84.541 87.1261C84.3832 87.2529 84.1985 87.4448 84.0483 87.5987L85.4795 88.9957C85.6731 88.7973 85.7544 88.7167 85.7938 88.6851L84.541 87.1261ZM84.8496 68.3793C86.6869 70.1269 88.1804 71.55 89.2624 72.8869C90.3374 74.2152 90.9234 75.3615 91.0519 76.529C91.1789 77.6839 90.8748 79.0172 89.8456 80.7513C88.8096 82.4971 87.0791 84.5804 84.4604 87.1984L85.8744 88.6128C88.5363 85.9517 90.4034 83.7303 91.5656 81.772C92.7346 79.8021 93.2293 78.032 93.0398 76.3102C92.8518 74.6011 92.0057 73.0975 90.8171 71.6287C89.6354 70.1687 88.0337 68.6477 86.228 66.9301L84.8496 68.3793ZM81.5354 65.1698C82.7136 66.3476 83.8293 67.4088 84.8496 68.3793L86.228 66.9301C85.2061 65.9582 84.1076 64.9132 82.9494 63.7554L81.5354 65.1698ZM71.5971 63.3472C73.3723 62.7253 74.8264 62.2305 76.3492 62.3346C77.8086 62.4344 79.469 63.1048 81.5356 65.1699L82.9493 63.7552C80.6411 61.4487 78.5516 60.4806 76.4857 60.3393C74.4833 60.2024 72.6368 60.8638 70.9359 61.4597L71.5971 63.3472ZM52.6817 57.747C57.0708 62.1348 60.6328 64.0092 63.7654 64.5101C66.8928 65.0103 69.4319 64.1058 71.5971 63.3472L70.9359 61.4597C68.7441 62.2276 66.6504 62.9461 64.0812 62.5352C61.5172 62.1252 58.3189 60.5545 54.0958 56.3326L52.6817 57.747ZM47.0711 38.8308C46.3144 40.9971 45.4123 43.5372 45.9143 46.6649C46.4172 49.7977 48.293 53.3594 52.6817 57.747L54.0958 56.3326C49.873 52.1109 48.3007 48.9126 47.889 46.3479C47.4765 43.778 48.1933 41.6831 48.9593 39.4904L47.0711 38.8308ZM45.2402 28.8888C47.307 30.9551 47.9789 32.6158 48.0799 34.076C48.1853 35.5996 47.6916 37.0546 47.0711 38.8308L48.9593 39.4904C49.5538 37.7884 50.2136 35.9409 50.0751 33.938C49.9322 31.8717 48.9625 29.7821 46.6542 27.4744L45.2402 28.8888ZM44.8139 28.4603C44.9543 28.6021 45.0963 28.745 45.2402 28.8888L46.6542 27.4744C46.5131 27.3333 46.3735 27.193 46.2356 27.0536L44.8139 28.4603ZM44.7795 27.0901L23.8107 50.5259L25.3011 51.8595L46.27 28.4237L44.7795 27.0901Z" fill="#1A1A1A"/>
</g>
<defs>
<linearGradient id="paint0_linear_1_844" x1="81.0227" y1="37.9131" x2="37.816" y2="83.2699" gradientUnits="userSpaceOnUse">
<stop stop-color="#5BBB35"/>
<stop offset="1" stop-color="#5BBB35" stop-opacity="0"/>
</linearGradient>
</defs>
</svg>
