<svg width="60" height="69" viewBox="0 0 60 69" fill="none" xmlns="http://www.w3.org/2000/svg">
<path d="M48.9476 24.5604L1.99453 23.8035C-3.61826 42.6414 8.68365 52.201 15.5362 54.6261L15.3435 66.5818C15.3319 67.3017 16.2577 67.9253 16.7221 68.1471C24.0784 68.3514 39.1491 68.7144 40.5814 68.5318C42.0137 68.3491 42.2072 67.9579 42.1249 67.7851L42.3052 56.6007C43.708 56.6662 46.8968 56.7776 48.4296 56.6994C49.9623 56.6213 50.1905 55.6563 50.1131 55.1835L50.2664 45.6704C52.6488 45.6659 57.5955 45.4542 58.3233 44.6429C59.051 43.8317 53.4128 35.2196 50.5027 31.015L48.9476 24.5604Z" fill="#90001A"/>
<path d="M17.5075 19.4244L7.42792 19.2619L7.49838 14.891C7.50667 14.3768 8.1906 14.1735 8.53153 14.1361L11.4702 13.9263L12.6662 10.988L10.909 9.15945C10.4069 8.637 10.6299 7.99764 10.8042 7.74327C12.0171 6.39121 14.5718 3.61199 15.0872 3.31168C15.6025 3.01137 16.1525 3.20027 16.3631 3.33225L18.6245 5.55473L21.5777 4.44503L21.6295 1.23113C21.6378 0.716906 22.153 0.425169 22.4095 0.343578L28.4063 0.440247C29.2229 0.45341 29.5833 1.31648 29.6614 1.74637L29.62 4.3175L32.5318 5.77892C33.0518 5.18721 34.1952 3.92832 34.6084 3.62637C35.0217 3.32442 35.6312 3.51427 35.8843 3.64694C37.1395 4.95307 39.7256 7.61798 40.0285 7.8286C40.3314 8.03923 40.2232 8.94618 40.1312 9.37333L37.929 11.3953L39.1531 14.6297C39.7492 14.5965 41.1707 14.5594 42.0877 14.677C42.6985 14.7898 42.9265 15.4192 42.9642 15.7199L42.8979 19.8337L33.0735 19.6753C33.0807 16.5893 31.5126 10.4174 25.1825 10.4183C18.8524 10.4191 17.4283 16.4227 17.5075 19.4244Z" fill="#90001A"/>
<path fill-rule="evenodd" clip-rule="evenodd" d="M28.6462 20.2467C29.0291 19.6574 29.2564 18.9555 29.2686 18.1993C29.3029 16.0693 27.6171 14.315 25.5031 14.2809C23.3891 14.2469 21.6475 15.9459 21.6132 18.0759C21.601 18.8321 21.8057 19.5409 22.1693 20.1423L28.6462 20.2467Z" fill="#90001A"/>
</svg>
