<svg width="69" height="68" viewBox="0 0 69 68" fill="none" xmlns="http://www.w3.org/2000/svg">
<path d="M32.2714 1.50198L26.1793 4.94268C25.4291 5.36639 24.5821 5.58904 23.7205 5.58904H16.8607C14.8707 5.58904 13.0701 6.76913 12.276 8.59385L9.36309 15.2874C8.98047 16.1666 8.35311 16.9172 7.55579 17.4499L3.08133 20.4389C1.25675 21.6577 0.440035 23.9237 1.06749 26.0263L3.10145 32.8421C3.39114 33.8129 3.37911 34.8488 3.06695 35.8125L1.19643 41.5876C0.498054 43.7438 1.33738 46.1001 3.24163 47.3292L8.55821 50.7609C9.43598 51.3274 10.1142 52.1547 10.4977 53.1265L12.3349 57.7824C13.0885 59.6922 14.9329 60.9472 16.9859 60.9472H23.4354C24.4757 60.9472 25.4901 61.2717 26.3373 61.8754L31.9645 65.8859C33.7324 67.1458 36.1113 67.121 37.8525 65.8245L43.0737 61.9368C43.9367 61.2942 44.9839 60.9472 46.0599 60.9472H52.7406C54.996 60.9472 56.9721 59.4373 57.5649 57.2613L58.94 52.213C59.2306 51.1462 59.8667 50.2058 60.7486 49.5389L65.3064 46.0927C66.9399 44.8576 67.6551 42.7512 67.1113 40.7768L65.4088 34.5958C65.1695 33.7268 65.1695 32.8094 65.4088 31.9404L67.061 25.9419C67.6296 23.8776 66.8206 21.6803 65.0491 20.4776L60.6107 17.464C59.8128 16.9223 59.1886 16.1614 58.8133 15.2729L56.0132 8.64353C55.2312 6.79225 53.4168 5.58904 51.4072 5.58904H44.9124C43.9344 5.58904 42.978 5.30226 42.1614 4.76419L37.4813 1.68047C35.9155 0.648787 33.9041 0.579876 32.2714 1.50198Z" fill="#90001A"/>
<path d="M43.012 26L25.012 43" stroke="white" stroke-width="3" stroke-linecap="round"/>
<circle cx="38.012" cy="42" r="2.5" stroke="white" stroke-width="3"/>
<circle cx="30.012" cy="26" r="2.5" stroke="white" stroke-width="3"/>
</svg>
