<svg width="69" height="68" viewBox="0 0 69 68" fill="none" xmlns="http://www.w3.org/2000/svg">
<path d="M32.8021 0.9679L27.2013 5.44853C26.7622 5.79983 26.1955 5.95002 25.64 5.86232L18.6038 4.75134C17.6746 4.60463 16.7688 5.12526 16.4279 6.00197L13.8309 12.6798C13.6277 13.2024 13.2144 13.6157 12.6918 13.819L6.01394 16.4159C5.13722 16.7568 4.61659 17.6627 4.7633 18.5918L5.87428 25.628C5.96199 26.1835 5.81179 26.7502 5.46049 27.1893L1.01147 32.7506C0.427125 33.481 0.427126 34.519 1.01148 35.2494L5.46049 40.8107C5.81179 41.2498 5.96199 41.8165 5.87428 42.372L4.7633 49.4082C4.61659 50.3373 5.13722 51.2432 6.01394 51.5841L12.6918 54.181C13.2144 54.3843 13.6277 54.7976 13.8309 55.3202L16.4279 61.998C16.7688 62.8747 17.6746 63.3954 18.6038 63.2487L25.64 62.1377C26.1955 62.05 26.7622 62.2002 27.2013 62.5515L32.7626 67.0005C33.493 67.5848 34.5309 67.5848 35.2614 67.0005L40.8226 62.5515C41.2617 62.2002 41.8285 62.05 42.3839 62.1377L49.4201 63.2487C50.3493 63.3954 51.2551 62.8747 51.5961 61.998L54.193 55.3202C54.3962 54.7976 54.8095 54.3843 55.3321 54.181L62.01 51.5841C62.8867 51.2432 63.4073 50.3373 63.2606 49.4082L62.1496 42.372C62.0619 41.8165 62.2121 41.2498 62.5634 40.8107L67.0125 35.2494C67.5968 34.519 67.5968 33.481 67.0125 32.7506L62.5634 27.1893C62.2121 26.7502 62.0619 26.1835 62.1496 25.628L63.2606 18.5918C63.4073 17.6627 62.8867 16.7568 62.01 16.4159L55.3321 13.819C54.8095 13.6157 54.3962 13.2024 54.193 12.6798L51.6012 6.01516C51.2579 5.13247 50.3426 4.61156 49.4084 4.76726L42.8561 5.85931C42.317 5.94916 41.7646 5.81446 41.3273 5.48652L35.2515 0.929637C34.5218 0.382383 33.5143 0.398122 32.8021 0.9679Z" fill="#90001A"/>
<path d="M21.012 35L31.012 43L46.012 25" stroke="white" stroke-width="4" stroke-linecap="round"/>
</svg>
