<svg width="62" height="68" viewBox="0 0 62 68" fill="none" xmlns="http://www.w3.org/2000/svg">
<path d="M1.59954 0.243824C0.116065 0.671709 -0.0647296 2.25704 0.0342932 3.06643C0.04044 3.11668 0.0446343 3.16717 0.0446343 3.21778V65.3087C0.0446343 65.4455 0.072699 65.5808 0.127093 65.7063L0.624679 66.8545C0.781209 67.2157 1.12535 67.4513 1.51897 67.4566C15.3171 67.6432 41.9983 68 43.2231 68C44.2404 68 44.9538 67.5077 45.3107 67.1271C45.4431 66.9859 45.4956 66.793 45.4956 66.5996V56.8646C45.4956 56.1722 44.8095 55.6888 44.1566 55.9196C40.8717 57.0812 35.959 58.7542 35.2093 58.7542C34.3834 58.7542 34.1516 57.3158 34.134 56.5082C34.1325 56.4415 34.1395 56.3754 34.1528 56.31L36.2308 46.0542C36.2668 45.8765 36.3505 45.7119 36.4728 45.578L45.2398 35.9887C45.4046 35.8084 45.4977 35.581 45.5015 35.3368C45.6604 25.1366 45.8737 4.99565 45.4956 3.14175C45.1395 1.39572 43.9966 0.549474 43.3576 0.291899C43.2694 0.256375 43.1787 0.243205 43.0837 0.24189C29.7989 0.0580349 3.12516 -0.19622 1.59954 0.243824Z" fill="#90001A"/>
<path d="M37.4378 53.21L38.3525 48.7009C38.3876 48.5278 38.468 48.367 38.5854 48.235L56.2536 28.3766C56.6311 27.9523 57.2857 27.9272 57.6947 28.3212L60.8178 31.331C61.2052 31.7043 61.2278 32.3174 60.8688 32.7182L42.8857 52.7965C42.7718 52.9237 42.6273 53.0196 42.4658 53.0751L38.7429 54.3545C38.0117 54.6058 37.2841 53.9677 37.4378 53.21Z" fill="#90001A"/>
<path d="M9.10217 11.0396H37.0904" stroke="white" stroke-width="3" stroke-linecap="round"/>
<path d="M8.62378 20.1475H36.612" stroke="white" stroke-width="3" stroke-linecap="round"/>
<path d="M8.62378 29.2554H36.612" stroke="white" stroke-width="3" stroke-linecap="round"/>
<path d="M8.62378 38.3633H26.0865" stroke="white" stroke-width="3" stroke-linecap="round"/>
</svg>
