<svg xmlns="http://www.w3.org/2000/svg" fill="none" viewBox="12.02 7.2 83.48 83.8">
<path d="M77.2085 23.604L16.4015 44.8774C14.3301 45.6021 13.2293 47.8604 13.9346 49.9385L24.4421 80.899C25.1568 83.0047 27.4518 84.1234 29.5508 83.3891L90.7278 61.9877C92.8169 61.2569 93.9155 58.9685 93.1791 56.8813L82.3015 26.0488C81.5679 23.9693 79.2898 22.8758 77.2085 23.604Z" fill="#90001A"/>
<path d="M61.6266 10.0258L14.8268 57.1418C13.0869 58.8934 13.0832 61.7197 14.8185 63.4759L39.2042 88.1554C40.9625 89.935 43.8347 89.9388 45.5977 88.1639L92.6915 40.7541C94.4462 38.9876 94.4329 36.1319 92.6617 34.3818L67.9821 9.99603C66.2176 8.25246 63.3748 8.26577 61.6266 10.0258Z" fill="#90001A" stroke="#F4F4F4" stroke-width="3"/>
<ellipse cx="53.8406" cy="49.1031" rx="12.5097" ry="7.7161" transform="rotate(40.0069 53.8406 49.1031)" fill="#F4F4F4"/>
<path d="M75.6488 41.8779L80.141 37.3836" stroke="#F4F4F4" stroke-width="4" stroke-linecap="round"/>
<path d="M27.4197 58.4364L31.8777 53.9083" stroke="#F4F4F4" stroke-width="4" stroke-linecap="round"/>
</svg>