<svg width="53" height="68" viewBox="0 0 53 68" fill="none" xmlns="http://www.w3.org/2000/svg">
<path d="M4.75279 26.0063H1.3074C0.768367 26.0063 0.326249 26.4318 0.309918 26.9706C-0.0190023 37.8225 -0.0348059 58.6274 0.0681616 62.6222C0.0695658 62.6766 0.0753939 62.7238 0.0863308 62.7772C0.875997 66.6318 4.27821 67.7295 5.89148 67.7952C17.9178 67.9498 43.0669 68.1661 47.4532 67.7952C51.7422 67.4326 52.2386 64.381 51.9421 62.801C51.9289 62.7303 51.9208 62.6595 51.9208 62.5876V27.0063C51.9208 26.4541 51.473 26.0063 50.9208 26.0063H47.4598C46.8991 26.0063 46.4488 25.5476 46.4518 24.9868C46.5031 15.4427 44.3063 -0.976665 24.9124 0.0455629C7.94906 0.93968 5.09123 16.537 5.77287 24.8794C5.82203 25.481 5.35636 26.0063 4.75279 26.0063Z" fill="#90001A"/>
<path d="M21.6147 56.1893L22.7316 47.4474C22.7401 47.3811 22.7977 47.3314 22.8659 47.3314H29.0609C29.1277 47.3314 29.1845 47.3791 29.1947 47.4436L30.5744 56.1855C30.587 56.2658 30.5236 56.3382 30.4406 56.3382H21.749C21.6676 56.3382 21.6046 56.2684 21.6147 56.1893Z" fill="white"/>
<path d="M32.0877 42.4969C32.0877 45.7156 29.4207 48.3248 26.1309 48.3248C22.8411 48.3248 20.1742 45.7156 20.1742 42.4969C20.1742 39.2782 22.8411 36.6689 26.1309 36.6689C29.4207 36.6689 32.0877 39.2782 32.0877 42.4969Z" fill="white"/>
<path d="M36.9778 25.6089H15.759C15.2067 25.6089 14.7581 25.1634 14.7604 24.6111C14.7877 17.9359 15.3499 8.52246 26.9432 8.52246C36.1866 8.52246 38.1254 18.7658 37.9549 24.682C37.9398 25.2065 37.5025 25.6089 36.9778 25.6089Z" fill="#F4F4F4"/>
</svg>
