<svg width="13" height="13" viewBox="0 0 13 13" fill="none" xmlns="http://www.w3.org/2000/svg">
<g clip-path="url(#clip0)">
<path d="M9.91252 8.12489C9.01877 8.04364 8.53127 9.26239 7.88127 9.58739C6.82502 10.1561 4.87502 8.12489 4.87502 8.12489C4.87502 8.12489 2.84377 6.17489 3.33127 5.11864C3.73752 4.46864 4.95627 3.98114 4.87502 3.08739C4.79377 2.27489 3.00627 -0.650111 2.11252 0.162389C0.162522 1.94989 2.21499e-05 2.68114 2.21499e-05 4.14364C-0.0812279 6.66239 3.16877 9.83114 3.16877 9.83114C3.49377 10.1561 6.33752 13.0811 8.85627 12.9999C10.3188 12.9999 11.05 12.8374 12.8375 10.8874C13.65 9.99364 10.8063 8.20614 9.91252 8.12489Z" fill="#A77E42"/>
</g>
<defs>
<clipPath id="clip0">
<rect width="13" height="13" fill="white"/>
</clipPath>
</defs>
</svg>
